<?xml version="1.0" encoding="utf-8"?>
<!-- Generator: Adobe Illustrator 27.5.0, SVG Export Plug-In . SVG Version: 6.00 Build 0)  -->
<svg version="1.1" id="Layer_1" xmlns="http://www.w3.org/2000/svg" xmlns:xlink="http://www.w3.org/1999/xlink" x="0px" y="0px"
	 viewBox="0 0 300 300" style="enable-background:new 0 0 300 300;" xml:space="preserve">
<g>
	<linearGradient id="SVGID_1_" gradientUnits="userSpaceOnUse" x1="116.5755" y1="47.683" x2="107.8309" y2="91.0631">
		<stop  offset="0.0363" style="stop-color:#FFAA51"/>
		<stop  offset="0.2402" style="stop-color:#FF542B"/>
		<stop  offset="1" style="stop-color:#C60B00"/>
	</linearGradient>
	<path style="fill:url(#SVGID_1_);" d="M147.101,61.144c0.232-0.021,0.463-0.039,0.682-0.044c0.076-0.002,0.151-0.003,0.225-0.003
		c0.285,0,0.559,0.011,0.814,0.037c-0.004-0.001-0.008-0.002-0.012-0.003c0.009,0.001,0.018,0.002,0.027,0.003
		c-0.005,0-0.011,0-0.015-0.001c0.303,0.062,0.6,0.116,0.885,0.154c-0.235-0.064-0.499-0.11-0.78-0.143
		c0.086,0.01,0.174,0.019,0.255,0.031c0.127,0.02,0.248,0.044,0.364,0.071c0.055,0.013,0.108,0.026,0.16,0.04l-3.376-0.919
		l-3.384-0.921l-3.391-0.923l-0.004-0.001c-1.174-0.392-2.348-0.784-3.393-0.923l-3.402-0.926l-3.407-0.927l-3.41-0.928
		l-3.413-0.929l-3.414-0.929l-0.296-0.08c-1.376-0.374-2.751-0.749-4.127-1.123l-2.408-0.655l-3.414-0.929l-3.413-0.929l-3.41-0.928
		l-3.407-0.927l-1.7-0.463c-0.819-0.223-1.639-0.446-2.458-0.669l-2.64-0.718l-2.882-0.784c-2.423-0.659-4.845-1.318-7.268-1.978
		c0,0,0.007,0.029,0.016,0.071c0.002,0.008,0.003,0.014,0.005,0.023c0.01,0.046,0.025,0.113,0.042,0.193
		c0.006,0.027,0.012,0.055,0.019,0.086c0.011,0.05,0.025,0.113,0.038,0.173c0.016,0.072,0.031,0.144,0.05,0.231
		c0.03,0.138,0.062,0.286,0.099,0.46l63.711,17.336c0.356-0.076,0.703-0.129,1.043-0.172
		C146.846,61.164,146.972,61.155,147.101,61.144z"/>
	
		<linearGradient id="SVGID_00000113349399481103902330000006669012640675678369_" gradientUnits="userSpaceOnUse" x1="60.5396" y1="36.3872" x2="51.795" y2="79.7673">
		<stop  offset="0.0363" style="stop-color:#FFAA51"/>
		<stop  offset="0.2402" style="stop-color:#FF542B"/>
		<stop  offset="1" style="stop-color:#C60B00"/>
	</linearGradient>
	<path style="fill:url(#SVGID_00000113349399481103902330000006669012640675678369_);" d="M28.837,86.509
		c0.017-0.008,0.034-0.015,0.051-0.023c0.307-0.132,0.635-0.255,0.982-0.365c0.005-0.002,0.011-0.004,0.016-0.005
		c0.358-0.113,0.735-0.213,1.127-0.297L81.96,44.016c-0.007-0.032-0.014-0.064-0.02-0.094c-0.011-0.052-0.022-0.102-0.033-0.151
		c-0.011-0.049-0.021-0.097-0.031-0.143c-0.01-0.047-0.02-0.093-0.029-0.136c-0.01-0.045-0.019-0.088-0.028-0.128
		c-0.009-0.042-0.018-0.083-0.026-0.121c-0.009-0.04-0.017-0.078-0.024-0.113c-0.008-0.038-0.016-0.072-0.023-0.104
		c-0.008-0.035-0.015-0.067-0.021-0.095c-0.006-0.028-0.011-0.05-0.015-0.07c0-0.001-0.001-0.003-0.001-0.004
		c-0.001-0.003-0.002-0.007-0.002-0.01c-0.01-0.046-0.015-0.068-0.016-0.068c-1.141,0.936-2.545,2.089-3.845,3.155l-1.561,1.281
		c-0.269,0.221-0.57,0.468-0.879,0.721l-1.833,1.504c-1.079,0.886-2.39,1.961-3.63,2.979l-1.807,1.483
		c-1.064,0.873-2.353,1.931-3.578,2.936l-1.873,1.537l-1.365,1.12c-0.478,0.392-0.955,0.784-1.365,1.12l-2.73,2.24l-2.731,2.241
		l-5.462,4.481l-2.073,1.701c-1.859,1.526-3.719,3.052-5.578,4.577l-0.529,0.434l-2.721,2.232l-2.717,2.229l-2.712,2.225
		l-2.706,2.221l-2.7,2.215c0.196-0.161,0.427-0.319,0.684-0.47c0.015-0.009,0.031-0.017,0.047-0.026
		C28.273,86.774,28.544,86.637,28.837,86.509z"/>
	
		<linearGradient id="SVGID_00000023976976468066941400000010370673331706404743_" gradientUnits="userSpaceOnUse" x1="118.7561" y1="79.3683" x2="126.3004" y2="88.4558">
		<stop  offset="0.1286" style="stop-color:#C60B00"/>
		<stop  offset="0.4405" style="stop-color:#FFAA51"/>
		<stop  offset="0.6156" style="stop-color:#FF542B"/>
		<stop  offset="0.9106" style="stop-color:#C60B00"/>
	</linearGradient>
	<path style="fill:url(#SVGID_00000023976976468066941400000010370673331706404743_);" d="M151.013,62.289
		c-0.004-0.017-0.008-0.034-0.013-0.051c-0.005-0.019-0.011-0.037-0.017-0.055c-0.006-0.018-0.013-0.036-0.021-0.054
		c-0.008-0.019-0.017-0.038-0.027-0.057c-0.01-0.019-0.02-0.037-0.031-0.055c-0.011-0.019-0.024-0.037-0.036-0.055
		c-0.012-0.017-0.025-0.034-0.039-0.051c0-0.001-0.001-0.001-0.001-0.001c-0.001-0.001-0.002-0.002-0.003-0.003
		c-0.015-0.018-0.031-0.037-0.047-0.054c-0.017-0.019-0.035-0.037-0.054-0.055c-0.019-0.018-0.039-0.036-0.059-0.053
		c-0.022-0.019-0.045-0.037-0.07-0.055c-0.026-0.02-0.054-0.039-0.082-0.058c-0.014-0.009-0.03-0.018-0.044-0.027
		c-0.005-0.003-0.01-0.006-0.016-0.01c-0.019-0.012-0.037-0.024-0.057-0.035c-0.057-0.032-0.136-0.054-0.2-0.083
		c-0.105-0.048-0.206-0.097-0.327-0.136c-0.019-0.006-0.032-0.016-0.052-0.021c-0.062-0.019-0.125-0.036-0.191-0.053
		c-0.061-0.015-0.123-0.03-0.187-0.043c-0.052-0.011-0.105-0.021-0.159-0.03c-0.004-0.001-0.008-0.002-0.012-0.002
		c-0.006-0.001-0.012-0.002-0.019-0.004c-0.066-0.011-0.133-0.021-0.201-0.031c-0.071-0.01-0.143-0.018-0.216-0.026
		c-0.076-0.008-0.153-0.014-0.231-0.02c-0.03-0.002-0.061-0.003-0.091-0.005c-0.012-0.001-0.024-0.001-0.036-0.002
		c-0.04-0.002-0.08-0.005-0.121-0.007c-0.086-0.003-0.173-0.005-0.261-0.006c-0.089-0.001-0.178,0-0.27,0.002
		c-0.061,0.001-0.123,0.004-0.185,0.006c-0.011,0-0.022,0.001-0.033,0.001c-0.02,0.001-0.039,0.001-0.058,0.002
		c-0.093,0.004-0.187,0.01-0.282,0.017c-0.094,0.007-0.189,0.015-0.285,0.025c-0.096,0.01-0.192,0.021-0.29,0.033
		c-0.005,0.001-0.01,0.001-0.014,0.002c-0.004,0.001-0.008,0.001-0.012,0.002c-0.089,0.011-0.178,0.024-0.268,0.037
		c-0.099,0.015-0.198,0.031-0.298,0.049c-0.101,0.018-0.202,0.037-0.304,0.058c-0.041,0.008-0.082,0.017-0.123,0.026l-50.946,41.804
		c0.005,0.021,0.009,0.042,0.014,0.064c0.012,0.053,0.023,0.108,0.035,0.163c0.008,0.039,0.017,0.079,0.026,0.118
		c0.009,0.043,0.018,0.083,0.027,0.126c0.007,0.031,0.013,0.061,0.02,0.092c0.003,0.014,0.006,0.029,0.009,0.043
		c0.02,0.092,0.04,0.187,0.061,0.282c0.002,0.009,0.004,0.018,0.006,0.027c0.013,0.06,0.026,0.121,0.039,0.182
		c0.013,0.059,0.025,0.118,0.038,0.177c0.006,0.027,0.012,0.054,0.017,0.081c0.008,0.038,0.016,0.075,0.024,0.113
		c0.001,0.005,0.002,0.01,0.003,0.014c0.047,0.217,0.093,0.434,0.14,0.652c0.004,0.019,0.008,0.037,0.012,0.056
		c0.012,0.056,0.024,0.111,0.036,0.166c0.003,0.016,0.007,0.032,0.01,0.048c0.128,0.596,0.25,1.17,0.352,1.648
		c0.001,0.005,0.002,0.01,0.003,0.015c0.001,0.005,0.002,0.009,0.003,0.013c0.034,0.16,0.066,0.309,0.095,0.444L151.013,62.289z"/>
	<g>
		
			<linearGradient id="SVGID_00000155862959531443985820000009292595749696119458_" gradientUnits="userSpaceOnUse" x1="89.8998" y1="50.5532" x2="80.2979" y2="192.5244">
			<stop  offset="0.0363" style="stop-color:#FFAA51"/>
			<stop  offset="0.3019" style="stop-color:#FF542B"/>
			<stop  offset="1" style="stop-color:#C60B00"/>
		</linearGradient>
		<path style="fill:url(#SVGID_00000155862959531443985820000009292595749696119458_);" d="M81.96,44.016
			c20.325,5.531,43.385,11.805,63.711,17.336c-16.253,13.337-34.692,28.467-50.946,41.804C74.399,97.625,51.339,91.35,31.014,85.82
			C47.267,72.483,65.706,57.353,81.96,44.016z"/>
	</g>
	<g>
		
			<linearGradient id="SVGID_00000077314509095166209760000005908588194914970275_" gradientUnits="userSpaceOnUse" x1="71.1429" y1="82.8995" x2="64.4559" y2="104.2467">
			<stop  offset="0.0363" style="stop-color:#FFAA51"/>
			<stop  offset="0.2402" style="stop-color:#FF542B"/>
			<stop  offset="1" style="stop-color:#C60B00"/>
		</linearGradient>
		<polygon style="fill:url(#SVGID_00000077314509095166209760000005908588194914970275_);" points="95.695,107.681 99.916,127.554 
			30.737,108.73 26.515,88.857 		"/>
	</g>
	<g>
		
			<linearGradient id="SVGID_00000095338996664887722220000004895142189286040250_" gradientUnits="userSpaceOnUse" x1="144.0477" y1="68.2147" x2="96.9812" y2="135.8568">
			<stop  offset="0.0363" style="stop-color:#FFAA51"/>
			<stop  offset="0.2402" style="stop-color:#FF542B"/>
			<stop  offset="1" style="stop-color:#C60B00"/>
		</linearGradient>
		<polygon style="fill:url(#SVGID_00000095338996664887722220000004895142189286040250_);" points="151.013,62.289 155.235,82.162 
			99.916,127.554 95.695,107.681 		"/>
	</g>
	
		<linearGradient id="SVGID_00000068658529057691095350000004377415706901338037_" gradientUnits="userSpaceOnUse" x1="62.6149" y1="92.6379" x2="60.6431" y2="99.7536">
		<stop  offset="0.1286" style="stop-color:#C60B00"/>
		<stop  offset="0.4405" style="stop-color:#FFAA51"/>
		<stop  offset="0.6156" style="stop-color:#FF542B"/>
		<stop  offset="0.9106" style="stop-color:#C60B00"/>
	</linearGradient>
	<path style="fill:url(#SVGID_00000068658529057691095350000004377415706901338037_);" d="M95.653,107.485
		c-0.015-0.069-0.03-0.14-0.046-0.214c-0.013-0.063-0.027-0.128-0.042-0.195c-0.013-0.063-0.027-0.127-0.041-0.192
		c-0.014-0.065-0.028-0.132-0.043-0.2c-0.015-0.071-0.031-0.144-0.046-0.217c-0.017-0.081-0.035-0.163-0.053-0.246
		c-0.02-0.096-0.041-0.193-0.062-0.291c-0.025-0.119-0.051-0.24-0.077-0.361c-0.003-0.012-0.005-0.024-0.008-0.036
		c-0.001-0.005-0.002-0.01-0.003-0.015c-0.033-0.152-0.066-0.306-0.099-0.459c-0.003-0.014-0.006-0.027-0.009-0.04
		c-0.14-0.655-0.281-1.307-0.401-1.863L31.014,85.82c-0.312,0.067-0.612,0.146-0.904,0.232c-0.092,0.027-0.177,0.057-0.267,0.085
		c-0.198,0.063-0.39,0.129-0.574,0.2c-0.094,0.036-0.184,0.072-0.274,0.11c-0.175,0.073-0.341,0.149-0.501,0.227
		c-0.077,0.037-0.155,0.074-0.227,0.112c-0.032,0.017-0.07,0.033-0.102,0.05c-0.146,0.08-0.275,0.164-0.404,0.247
		c-0.038,0.024-0.081,0.047-0.117,0.072c-0.007,0.005-0.015,0.009-0.022,0.014c-0.119,0.082-0.23,0.165-0.333,0.25
		c-0.049,0.04-0.091,0.081-0.136,0.122c-0.016,0.015-0.033,0.029-0.049,0.044c-0.016,0.015-0.034,0.03-0.05,0.045
		c-0.062,0.061-0.12,0.123-0.173,0.185c-0.048,0.056-0.092,0.112-0.131,0.169c-0.003,0.005-0.006,0.009-0.009,0.014
		c-0.003,0.004-0.005,0.009-0.008,0.013c-0.03,0.045-0.059,0.089-0.084,0.134c-0.029,0.054-0.055,0.107-0.076,0.16
		c-0.015,0.039-0.026,0.078-0.036,0.116c-0.002,0.008-0.006,0.016-0.008,0.024c-0.002,0.009-0.007,0.019-0.009,0.028
		c-0.015,0.066-0.023,0.131-0.024,0.195c-0.001,0.064,0.005,0.127,0.018,0.189l69.18,18.824
		C95.682,107.618,95.668,107.553,95.653,107.485z"/>
</g>
<g>
	<g>
		
			<linearGradient id="SVGID_00000135677434173718066330000007845906419543370666_" gradientUnits="userSpaceOnUse" x1="63.231" y1="141.2444" x2="66.1459" y2="169.0214">
			<stop  offset="0.0363" style="stop-color:#FFAA51"/>
			<stop  offset="0.2402" style="stop-color:#FF542B"/>
			<stop  offset="1" style="stop-color:#C60B00"/>
		</linearGradient>
		<polygon style="fill:url(#SVGID_00000135677434173718066330000007845906419543370666_);" points="33.972,162.922 97.471,145.364 
			101.264,203.179 37.765,220.736 		"/>
	</g>
	
		<linearGradient id="SVGID_00000165236821488743230560000004202535078354513580_" gradientUnits="userSpaceOnUse" x1="64.0475" y1="145.8426" x2="66.1908" y2="154.33">
		<stop  offset="0.0363" style="stop-color:#FFAA51"/>
		<stop  offset="0.2402" style="stop-color:#FF542B"/>
		<stop  offset="1" style="stop-color:#C60B00"/>
	</linearGradient>
	<path style="fill:url(#SVGID_00000165236821488743230560000004202535078354513580_);" d="M97.447,145.003
		c-0.01-0.145-0.019-0.288-0.029-0.428c-0.003-0.051-0.007-0.1-0.01-0.15c-0.004-0.055-0.007-0.109-0.011-0.162
		c-0.002-0.028-0.004-0.058-0.006-0.086c-0.009-0.126-0.017-0.249-0.025-0.37c-0.008-0.117-0.016-0.232-0.024-0.344
		c-0.001-0.008-0.001-0.015-0.002-0.023c-0.002-0.022-0.003-0.043-0.005-0.065c-0.006-0.078-0.011-0.157-0.016-0.232
		c-0.007-0.101-0.014-0.2-0.021-0.297c-0.006-0.08-0.012-0.158-0.017-0.235c-0.001-0.008-0.001-0.017-0.002-0.025
		c0-0.004-0.001-0.009-0.001-0.013c-0.006-0.087-0.013-0.172-0.019-0.254c-0.006-0.081-0.012-0.16-0.018-0.236
		c-0.006-0.075-0.011-0.148-0.017-0.218c-0.005-0.07-0.011-0.137-0.016-0.202c-0.005-0.065-0.01-0.128-0.015-0.188
		c-0.004-0.048-0.008-0.092-0.011-0.137c0-0.006-0.001-0.012-0.001-0.017c-0.001-0.007-0.001-0.014-0.002-0.021
		c-0.005-0.057-0.009-0.111-0.014-0.162c-0.005-0.056-0.01-0.108-0.014-0.156c-0.002-0.019-0.003-0.034-0.005-0.052
		c-0.001-0.013-0.002-0.025-0.004-0.038c-0.002-0.021-0.004-0.045-0.006-0.064c-0.005-0.051-0.009-0.079-0.013-0.116
		c-0.003-0.023-0.006-0.054-0.008-0.072c-0.007-0.053-0.013-0.084-0.016-0.083l-2.428,0.671c-1.167,0.323-2.359,0.652-3.363,0.93
		l-1.019,0.282c-0.656,0.181-1.345,0.372-1.915,0.529l-2.955,0.817l-2.974,0.822l-1.845,0.51c-1.408,0.389-2.915,0.806-4.146,1.146
		l-3.011,0.833l-2.812,0.778c-0.166,0.046-0.326,0.09-0.492,0.136l-2.734,0.756l-2.578,0.713c-1.202,0.332-2.426,0.671-3.459,0.956
		c-0.566,0.157-1.247,0.345-1.902,0.526l-1.109,0.307c-1.797,0.497-4.194,1.16-5.991,1.657c-0.528,0.146-1.113,0.308-1.715,0.474
		l-1.259,0.348l-2.955,0.817l-1.019,0.282c-0.656,0.181-1.345,0.372-1.915,0.529l-2.909,0.804l-0.225,0.062
		c-0.932,0.258-1.857,0.514-2.657,0.735c-0.273,0.075-0.534,0.18-0.785,0.305c-0.083,0.041-0.158,0.094-0.238,0.14
		c-0.13,0.074-0.264,0.14-0.387,0.227c-0.046,0.033-0.09,0.07-0.136,0.104c-0.024,0.018-0.047,0.036-0.071,0.055
		c-0.038,0.03-0.078,0.057-0.115,0.088c-0.089,0.074-0.175,0.151-0.259,0.232c-0.077,0.073-0.151,0.149-0.223,0.228
		c-0.009,0.009-0.016,0.019-0.025,0.029c-0.007,0.008-0.013,0.016-0.02,0.023c-0.054,0.06-0.108,0.12-0.159,0.183
		c-0.065,0.079-0.128,0.161-0.189,0.244c-0.061,0.083-0.119,0.168-0.175,0.255c-0.006,0.009-0.011,0.019-0.017,0.029
		c-0.005,0.008-0.009,0.015-0.014,0.023c-0.045,0.071-0.09,0.143-0.132,0.217c-0.053,0.092-0.104,0.187-0.152,0.283
		c-0.049,0.098-0.095,0.197-0.139,0.298c-0.003,0.006-0.005,0.013-0.008,0.019c-0.003,0.006-0.005,0.012-0.007,0.018
		c-0.039,0.091-0.077,0.184-0.111,0.278c-0.041,0.11-0.078,0.221-0.113,0.334c-0.028,0.091-0.052,0.185-0.076,0.278
		c-0.003,0.012-0.007,0.023-0.01,0.035c-0.003,0.013-0.008,0.026-0.011,0.04c-0.03,0.123-0.056,0.247-0.079,0.373
		c-0.023,0.129-0.043,0.261-0.059,0.393c-0.005,0.045-0.007,0.091-0.012,0.136c-0.003,0.027-0.005,0.054-0.007,0.081
		c-0.006,0.066-0.013,0.132-0.017,0.199c-0.008,0.145-0.011,0.291-0.009,0.438c0.001,0.12,0.006,0.241,0.014,0.363l63.499-17.558
		C97.463,145.242,97.455,145.122,97.447,145.003z"/>
	<g>
		
			<linearGradient id="SVGID_00000047039680420495131690000005968613886114214328_" gradientUnits="userSpaceOnUse" x1="133.0281" y1="141.5326" x2="131.3134" y2="175.6537">
			<stop  offset="0.0363" style="stop-color:#FFAA51"/>
			<stop  offset="0.2402" style="stop-color:#FF542B"/>
			<stop  offset="1" style="stop-color:#C60B00"/>
		</linearGradient>
		<polygon style="fill:url(#SVGID_00000047039680420495131690000005968613886114214328_);" points="97.471,145.364 161.02,154.954 
			164.813,212.768 101.264,203.179 		"/>
	</g>
	
		<linearGradient id="SVGID_00000119823861330108954900000016311365147245607812_" gradientUnits="userSpaceOnUse" x1="129.4978" y1="137.2367" x2="129.0691" y2="147.5245">
		<stop  offset="0.0363" style="stop-color:#FFAA51"/>
		<stop  offset="0.4478" style="stop-color:#FF542B"/>
		<stop  offset="1" style="stop-color:#C60B00"/>
	</linearGradient>
	<path style="fill:url(#SVGID_00000119823861330108954900000016311365147245607812_);" d="M97.142,140.887
		c0.004,0.044,0.009,0.101,0.014,0.153c0.006,0.071,0.013,0.142,0.02,0.228c0.006,0.068,0.012,0.146,0.018,0.223
		c0.008,0.099,0.016,0.201,0.025,0.315c0.006,0.075,0.012,0.155,0.018,0.236c0.01,0.133,0.021,0.273,0.032,0.421
		c0.007,0.092,0.014,0.186,0.021,0.284c0.011,0.149,0.022,0.306,0.034,0.467c0.008,0.108,0.015,0.215,0.023,0.327
		c0.013,0.188,0.027,0.386,0.041,0.587c0.007,0.1,0.013,0.196,0.02,0.298c0.02,0.301,0.041,0.613,0.063,0.938l63.549,9.59
		c-0.018-0.28-0.054-0.554-0.105-0.821c-0.007-0.038-0.021-0.073-0.029-0.111c-0.027-0.127-0.065-0.247-0.098-0.371
		c-0.051-0.188-0.104-0.374-0.17-0.553c-0.046-0.124-0.099-0.241-0.152-0.361c-0.074-0.167-0.151-0.33-0.238-0.488
		c-0.063-0.114-0.13-0.224-0.2-0.333c-0.095-0.149-0.195-0.291-0.301-0.428c-0.078-0.1-0.156-0.198-0.239-0.293
		c-0.115-0.131-0.237-0.251-0.362-0.369c-0.088-0.083-0.175-0.166-0.268-0.242c-0.137-0.112-0.281-0.21-0.426-0.307
		c-0.093-0.062-0.183-0.128-0.28-0.183c-0.166-0.095-0.34-0.17-0.515-0.244c-0.086-0.036-0.168-0.082-0.256-0.113
		c-0.267-0.094-0.541-0.167-0.823-0.209c-5.773-0.871-11.546-1.742-17.319-2.614l-0.346-0.052l-3.005-0.453l-3.014-0.455
		l-0.437-0.066c-11.778-1.777-23.557-3.555-35.336-5.332c0.004,0.001,0.01,0.033,0.017,0.088c0.002,0.016,0.005,0.047,0.008,0.068
		C97.129,140.761,97.135,140.814,97.142,140.887z"/>
	
		<linearGradient id="SVGID_00000111178678934976143930000012701338965765723306_" gradientUnits="userSpaceOnUse" x1="130.5677" y1="213.2272" x2="133.9112" y2="226.6013">
		<stop  offset="0.0363" style="stop-color:#FFAA51"/>
		<stop  offset="0.6335" style="stop-color:#FF542B"/>
		<stop  offset="1" style="stop-color:#C60B00"/>
	</linearGradient>
	<path style="fill:url(#SVGID_00000111178678934976143930000012701338965765723306_);" d="M164.813,212.768L164.813,212.768
		l-63.499,17.558c0.008,0.122,0.016,0.242,0.024,0.36c0.01,0.145,0.019,0.288,0.029,0.428c0.005,0.068,0.009,0.133,0.014,0.2
		c0.001,0.022,0.003,0.043,0.004,0.064c0.003,0.044,0.006,0.09,0.009,0.133c0.009,0.126,0.017,0.249,0.025,0.37
		c0.008,0.117,0.016,0.232,0.024,0.344c0.008,0.109,0.015,0.216,0.023,0.321c0.007,0.101,0.014,0.2,0.021,0.297
		c0.006,0.082,0.012,0.161,0.017,0.24c0,0.006,0.001,0.013,0.001,0.019c0,0.005,0.001,0.01,0.001,0.015
		c0.006,0.087,0.013,0.172,0.019,0.255c0.006,0.081,0.012,0.16,0.018,0.236c0.005,0.06,0.009,0.117,0.013,0.174
		c0.001,0.007,0.001,0.015,0.002,0.023c0.001,0.007,0.001,0.015,0.002,0.022c0.005,0.07,0.011,0.137,0.016,0.202l0,0v0l0,0h0
		c0.005,0.065,0.01,0.128,0.015,0.188c0.004,0.051,0.008,0.1,0.012,0.147c0,0,0,0.001,0,0.001c0.001,0.009,0.002,0.018,0.002,0.027
		c0.005,0.057,0.009,0.111,0.014,0.162c0.005,0.056,0.01,0.108,0.014,0.156c0.002,0.019,0.003,0.034,0.005,0.051
		c0.001,0.014,0.003,0.027,0.004,0.04c0.002,0.02,0.004,0.044,0.006,0.062c0.005,0.05,0.009,0.077,0.013,0.113
		c0.003,0.024,0.006,0.057,0.008,0.075c0.007,0.05,0.012,0.077,0.015,0.079c0,0,0.001,0.004,0.001,0.004
		c3.431-0.949,6.862-1.897,10.293-2.846l1.387-0.383l0.895-0.248c11.505-3.181,23.011-6.363,34.516-9.544l0.615-0.17l0.303-0.084
		c2.35-0.65,4.699-1.299,7.049-1.949l1.446-0.4l2.881-0.797c0.273-0.075,0.534-0.181,0.785-0.305
		c0.083-0.041,0.158-0.094,0.238-0.14c0.13-0.074,0.264-0.14,0.387-0.227c0.047-0.033,0.09-0.07,0.136-0.104
		c0.024-0.018,0.048-0.036,0.071-0.055c0.038-0.03,0.077-0.057,0.114-0.087c0.089-0.074,0.175-0.151,0.259-0.232
		c0.077-0.073,0.151-0.149,0.223-0.228c0.009-0.009,0.017-0.02,0.025-0.029c0.007-0.008,0.013-0.016,0.02-0.023
		c0.054-0.06,0.108-0.12,0.159-0.183c0.065-0.079,0.128-0.161,0.189-0.245c0.061-0.083,0.119-0.168,0.175-0.255
		c0.006-0.009,0.012-0.019,0.018-0.029c0.005-0.008,0.009-0.015,0.014-0.023c0.045-0.071,0.09-0.143,0.132-0.216
		c0.053-0.092,0.104-0.187,0.152-0.283c0.049-0.098,0.095-0.197,0.139-0.298c0.003-0.006,0.005-0.013,0.008-0.019
		c0.003-0.006,0.005-0.012,0.007-0.018c0.039-0.091,0.077-0.183,0.111-0.277c0.041-0.11,0.078-0.221,0.113-0.334
		c0.028-0.092,0.052-0.185,0.077-0.279c0.003-0.012,0.007-0.023,0.009-0.034c0.003-0.014,0.008-0.027,0.011-0.041
		c0.03-0.123,0.056-0.247,0.079-0.373c0.023-0.13,0.043-0.261,0.059-0.393c0.005-0.045,0.007-0.09,0.012-0.135
		c0.003-0.027,0.005-0.054,0.007-0.081c0.006-0.066,0.013-0.132,0.017-0.199c0.008-0.145,0.011-0.291,0.009-0.438
		C164.826,213.011,164.821,212.89,164.813,212.768z"/>
	
		<linearGradient id="SVGID_00000029007819794520881140000005568926916623735455_" gradientUnits="userSpaceOnUse" x1="70.806" y1="220.3723" x2="69.2628" y2="231.1745">
		<stop  offset="0.3342" style="stop-color:#FFAA51"/>
		<stop  offset="0.564" style="stop-color:#FF542B"/>
		<stop  offset="0.8313" style="stop-color:#C60B00"/>
	</linearGradient>
	<path style="fill:url(#SVGID_00000029007819794520881140000005568926916623735455_);" d="M101.686,235.135
		c-0.004-0.001-0.01-0.033-0.017-0.088c-0.002-0.017-0.005-0.048-0.008-0.07c-0.006-0.049-0.012-0.101-0.018-0.174
		c-0.004-0.04-0.009-0.094-0.013-0.141c-0.007-0.076-0.014-0.155-0.022-0.249c-0.006-0.065-0.012-0.139-0.018-0.213
		c-0.008-0.094-0.015-0.192-0.024-0.299c-0.007-0.084-0.014-0.175-0.021-0.267c-0.01-0.127-0.02-0.261-0.03-0.403
		c-0.007-0.095-0.014-0.191-0.021-0.291c-0.011-0.146-0.022-0.3-0.033-0.457c-0.008-0.111-0.016-0.222-0.024-0.339
		c-0.013-0.181-0.026-0.373-0.039-0.566c-0.007-0.107-0.014-0.21-0.022-0.321c-0.02-0.3-0.041-0.608-0.062-0.932l-63.549-9.59
		c0.018,0.28,0.054,0.554,0.105,0.821c0.007,0.038,0.021,0.073,0.029,0.111c0.027,0.127,0.064,0.247,0.098,0.37
		c0.051,0.188,0.104,0.375,0.17,0.554c0.046,0.124,0.099,0.241,0.152,0.36c0.074,0.167,0.152,0.331,0.239,0.489
		c0.063,0.114,0.13,0.223,0.199,0.331c0.095,0.149,0.196,0.292,0.302,0.43c0.077,0.1,0.155,0.198,0.238,0.292
		c0.115,0.131,0.237,0.251,0.362,0.369c0.088,0.083,0.175,0.167,0.268,0.243c0.136,0.112,0.28,0.209,0.425,0.306
		c0.094,0.062,0.184,0.129,0.282,0.184c0.165,0.094,0.339,0.169,0.513,0.243c0.087,0.037,0.17,0.082,0.258,0.114
		c0.264,0.093,0.535,0.165,0.814,0.207c0.003,0,0.006,0.002,0.009,0.002c11.819,1.783,23.637,3.567,35.455,5.35l0.317,0.048
		l3.014,0.455l0.258,0.039c3.727,0.563,7.455,1.125,11.183,1.688l0.493,0.074l2.938,0.443l0.119,0.018
		C97.9,234.564,99.793,234.849,101.686,235.135z"/>
	<g>
		
			<linearGradient id="SVGID_00000088132859570748138830000006422380812418870436_" gradientUnits="userSpaceOnUse" x1="96.6258" y1="158.0497" x2="60.8758" y2="205.6307">
			<stop  offset="0.0363" style="stop-color:#FFAA51"/>
			<stop  offset="0.2402" style="stop-color:#FF542B"/>
			<stop  offset="1" style="stop-color:#C60B00"/>
		</linearGradient>
		<polygon style="fill:url(#SVGID_00000088132859570748138830000006422380812418870436_);" points="97.521,172.512 101.314,230.326 
			37.765,220.736 33.972,162.922 		"/>
	</g>
	<g>
		
			<linearGradient id="SVGID_00000131328811901216984400000013217723021583332271_" gradientUnits="userSpaceOnUse" x1="152.7089" y1="156.0457" x2="91.2395" y2="260.4666">
			<stop  offset="0.0363" style="stop-color:#FFAA51"/>
			<stop  offset="0.4879" style="stop-color:#FF542B"/>
			<stop  offset="1" style="stop-color:#C60B00"/>
		</linearGradient>
		<polygon style="fill:url(#SVGID_00000131328811901216984400000013217723021583332271_);" points="161.02,154.954 164.813,212.768 
			101.314,230.326 97.521,172.512 		"/>
	</g>
	
		<linearGradient id="SVGID_00000047020150434788572580000000722421196052894908_" gradientUnits="userSpaceOnUse" x1="125.9808" y1="152.0395" x2="131.8105" y2="172.2721">
		<stop  offset="0.1286" style="stop-color:#C60B00"/>
		<stop  offset="0.4405" style="stop-color:#FFAA51"/>
		<stop  offset="0.6156" style="stop-color:#FF542B"/>
		<stop  offset="0.9106" style="stop-color:#C60B00"/>
	</linearGradient>
	<path style="fill:url(#SVGID_00000047020150434788572580000000722421196052894908_);" d="M161.012,154.855
		c-0.013-0.16-0.031-0.319-0.055-0.475c-0.025-0.164-0.056-0.325-0.092-0.483c-0.006-0.025-0.014-0.048-0.02-0.073
		c-0.007-0.027-0.015-0.052-0.021-0.079c-0.029-0.115-0.058-0.231-0.093-0.343c-0.055-0.175-0.117-0.347-0.186-0.514
		c-0.015-0.037-0.035-0.071-0.05-0.107c-0.02-0.046-0.042-0.089-0.063-0.134c-0.049-0.105-0.094-0.213-0.148-0.315
		c-0.059-0.11-0.134-0.206-0.199-0.311c-0.075-0.123-0.148-0.246-0.232-0.362c-0.034-0.047-0.059-0.102-0.094-0.148
		c-0.116-0.153-0.247-0.288-0.376-0.426c-0.046-0.049-0.086-0.104-0.133-0.151c-0.012-0.012-0.022-0.027-0.034-0.038
		c-0.191-0.187-0.394-0.359-0.607-0.513c-0.03-0.021-0.061-0.04-0.091-0.06c-0.022-0.015-0.044-0.029-0.066-0.044
		c-0.064-0.043-0.128-0.088-0.194-0.128c-0.093-0.056-0.187-0.109-0.283-0.158c-0.073-0.038-0.147-0.073-0.221-0.107
		c-0.046-0.021-0.094-0.04-0.141-0.06c-0.006-0.003-0.013-0.006-0.019-0.008c-0.016-0.007-0.032-0.014-0.048-0.021
		c-0.059-0.023-0.119-0.046-0.179-0.066c-0.058-0.02-0.116-0.039-0.174-0.057c-0.05-0.015-0.101-0.03-0.151-0.043
		c-0.051-0.014-0.102-0.026-0.153-0.038c-0.047-0.011-0.095-0.021-0.142-0.03c-0.035-0.007-0.07-0.013-0.105-0.019
		c-0.002,0-0.004-0.001-0.006-0.001c-0.009-0.001-0.017-0.003-0.026-0.005c-0.046-0.007-0.092-0.014-0.138-0.02
		c-0.044-0.006-0.089-0.011-0.134-0.015c-0.044-0.004-0.089-0.008-0.133-0.011c-0.045-0.003-0.089-0.006-0.134-0.007
		c-0.046-0.002-0.093-0.003-0.139-0.003c-0.047,0-0.094,0-0.142,0.001c-0.047,0.001-0.095,0.003-0.143,0.006
		c-0.009,0.001-0.019,0.001-0.029,0.002l-58.48,16.17c0,0.002,0,0.004,0,0.006c0,0.01,0,0.022,0,0.034c0,0.012,0,0.025,0.001,0.038
		c0,0.013,0.001,0.027,0.001,0.042c0,0.014,0.001,0.029,0.001,0.044c0,0.015,0.001,0.031,0.001,0.048
		c0.001,0.017,0.001,0.034,0.002,0.052c0.001,0.019,0.001,0.038,0.002,0.058c0,0.003,0,0.007,0,0.011c0,0.002,0,0.004,0,0.005
		c0.001,0.015,0.001,0.03,0.002,0.046c0.001,0.022,0.002,0.045,0.003,0.069c0.001,0.026,0.002,0.052,0.003,0.079
		c0.001,0.027,0.002,0.055,0.003,0.084c0.001,0.034,0.003,0.068,0.004,0.104c0.002,0.037,0.003,0.075,0.005,0.114
		c0,0.008,0.001,0.018,0.001,0.026c0.001,0.011,0.001,0.024,0.002,0.035c0.001,0.027,0.002,0.054,0.004,0.083
		c0.003,0.054,0.005,0.109,0.008,0.166c0.004,0.075,0.008,0.153,0.012,0.233c0.003,0.053,0.006,0.11,0.009,0.166
		c0.002,0.031,0.003,0.062,0.005,0.093c0.001,0.022,0.002,0.043,0.003,0.066c0.011,0.21,0.023,0.434,0.036,0.671
		c0.001,0.014,0.002,0.029,0.002,0.043c0.004,0.071,0.008,0.149,0.013,0.222c0.009,0.161,0.018,0.319,0.028,0.49
		c0.003,0.049,0.006,0.103,0.009,0.152c0.009,0.152,0.018,0.307,0.027,0.465c0.007,0.113,0.013,0.218,0.02,0.334
		c0.007,0.119,0.015,0.241,0.022,0.363c0.003,0.042,0.005,0.082,0.007,0.124c0.003,0.044,0.005,0.087,0.008,0.132
		c0.011,0.183,0.023,0.368,0.034,0.556c0.007,0.119,0.015,0.24,0.023,0.361c0.002,0.03,0.004,0.059,0.006,0.09
		c0.002,0.024,0.003,0.048,0.005,0.072c0.01,0.166,0.021,0.332,0.032,0.5c0.01,0.16,0.021,0.32,0.031,0.481
		c0.002,0.033,0.004,0.066,0.006,0.099l63.499-17.558C161.017,154.921,161.015,154.888,161.012,154.855z"/>
	
		<linearGradient id="SVGID_00000017504930776829660970000004031202541134126258_" gradientUnits="userSpaceOnUse" x1="66.8649" y1="159.7386" x2="64.6358" y2="174.6559">
		<stop  offset="0.0363" style="stop-color:#FFAA51"/>
		<stop  offset="0.2402" style="stop-color:#FF542B"/>
		<stop  offset="1" style="stop-color:#C60B00"/>
	</linearGradient>
	<path style="fill:url(#SVGID_00000017504930776829660970000004031202541134126258_);" d="M97.457,171.518
		c-0.019-0.299-0.037-0.591-0.055-0.881c-0.008-0.133-0.017-0.27-0.025-0.401c-0.012-0.204-0.024-0.397-0.036-0.594
		c-0.01-0.162-0.02-0.33-0.029-0.486c-0.009-0.153-0.017-0.294-0.025-0.441c-0.01-0.174-0.02-0.352-0.03-0.516
		c-0.008-0.135-0.014-0.256-0.021-0.383c-0.008-0.152-0.017-0.304-0.024-0.444c-0.011-0.205-0.02-0.387-0.028-0.562
		c-0.004-0.073-0.008-0.157-0.011-0.225c-0.002-0.048-0.004-0.089-0.006-0.134c-0.007-0.147-0.012-0.279-0.016-0.392
		c-0.001-0.028-0.002-0.061-0.003-0.087c-0.005-0.135-0.007-0.245-0.008-0.314l-58.526-8.832c-0.04,0.003-0.079,0.006-0.119,0.009
		c-0.249,0.022-0.493,0.065-0.729,0.128c-0.034,0.009-0.065,0.024-0.098,0.034c-0.058,0.017-0.113,0.04-0.17,0.059
		c-0.244,0.081-0.478,0.182-0.703,0.302c-0.05,0.027-0.102,0.05-0.152,0.079c-0.027,0.016-0.056,0.027-0.083,0.043
		c-0.091,0.056-0.167,0.137-0.255,0.199c-0.183,0.129-0.364,0.259-0.529,0.414c-0.029,0.027-0.065,0.045-0.093,0.073
		c-0.11,0.108-0.203,0.237-0.304,0.356c-0.083,0.097-0.171,0.187-0.248,0.29c-0.018,0.024-0.04,0.043-0.058,0.068
		c-0.105,0.147-0.186,0.313-0.278,0.471c-0.065,0.112-0.139,0.216-0.197,0.334c-0.008,0.017-0.02,0.03-0.028,0.047
		c-0.062,0.128-0.098,0.272-0.151,0.406c-0.075,0.191-0.158,0.376-0.214,0.577c-0.006,0.022-0.017,0.041-0.023,0.063
		c-0.077,0.283-0.127,0.577-0.165,0.876c-0.008,0.064-0.015,0.127-0.021,0.192c-0.008,0.078-0.021,0.154-0.026,0.234
		c-0.017,0.276-0.016,0.557,0.003,0.842l63.549,9.59C97.499,172.177,97.478,171.846,97.457,171.518z"/>
	
		<radialGradient id="SVGID_00000021840125198294106190000001337529225068350372_" cx="-23.0569" cy="135.1199" r="12.1643" gradientTransform="matrix(0.4947 -0.0265 0.284 5.2998 72.658 -515.2822)" gradientUnits="userSpaceOnUse">
		<stop  offset="0.0675" style="stop-color:#FFAA51"/>
		<stop  offset="0.5163" style="stop-color:#FF542B;stop-opacity:0"/>
		<stop  offset="1" style="stop-color:#C60B00;stop-opacity:0"/>
	</radialGradient>
	<path style="fill:url(#SVGID_00000021840125198294106190000001337529225068350372_);" d="M104.958,201.156
		c0.876,16.344-0.801,29.721-3.746,29.879c-2.945,0.158-6.042-12.964-6.918-29.308s0.801-29.721,3.746-29.879
		C100.985,171.691,104.082,184.812,104.958,201.156z"/>
	
		<radialGradient id="SVGID_00000113335487204728624230000001109482953877362048_" cx="3.3995" cy="49.904" r="12.1643" gradientTransform="matrix(-0.0617 -0.2404 3.2825 -0.8428 -16.8861 261.7806)" gradientUnits="userSpaceOnUse">
		<stop  offset="0.0675" style="stop-color:#FFAA51"/>
		<stop  offset="0.5163" style="stop-color:#FF542B;stop-opacity:0"/>
		<stop  offset="1" style="stop-color:#C60B00;stop-opacity:0"/>
	</radialGradient>
	<path style="fill:url(#SVGID_00000113335487204728624230000001109482953877362048_);" d="M146.047,216.312
		c10.123-2.599,18.627-3.546,18.994-2.115s-7.541,4.698-17.663,7.297c-10.123,2.599-18.627,3.546-18.994,2.115
		S135.924,218.911,146.047,216.312z"/>
</g>
<g>
	<g>
		
			<linearGradient id="SVGID_00000039814088266825002250000008386624827098377614_" gradientUnits="userSpaceOnUse" x1="176.436" y1="145.0274" x2="179.3508" y2="172.8044">
			<stop  offset="0.0363" style="stop-color:#FF7D89"/>
			<stop  offset="0.2402" style="stop-color:#FF48C1"/>
			<stop  offset="1" style="stop-color:#B600A0"/>
		</linearGradient>
		<polygon style="fill:url(#SVGID_00000039814088266825002250000008386624827098377614_);" points="147.177,166.705 
			210.676,149.147 214.469,206.962 150.97,224.519 		"/>
	</g>
	
		<linearGradient id="SVGID_00000066487003568300229620000015777046017892558994_" gradientUnits="userSpaceOnUse" x1="177.2525" y1="149.6256" x2="179.3958" y2="158.1131">
		<stop  offset="0.0363" style="stop-color:#FF7D89"/>
		<stop  offset="0.2402" style="stop-color:#FF48C1"/>
		<stop  offset="1" style="stop-color:#B600A0"/>
	</linearGradient>
	<path style="fill:url(#SVGID_00000066487003568300229620000015777046017892558994_);" d="M210.652,148.786
		c-0.01-0.145-0.019-0.288-0.029-0.428c-0.003-0.051-0.007-0.1-0.01-0.15c-0.004-0.055-0.007-0.109-0.011-0.162
		c-0.002-0.028-0.004-0.058-0.006-0.086c-0.009-0.126-0.017-0.249-0.025-0.37c-0.008-0.117-0.016-0.232-0.024-0.344
		c-0.001-0.008-0.001-0.015-0.002-0.023c-0.002-0.022-0.003-0.043-0.005-0.065c-0.005-0.078-0.011-0.157-0.016-0.232
		c-0.007-0.101-0.014-0.2-0.021-0.297c-0.006-0.08-0.012-0.158-0.017-0.235c-0.001-0.008-0.001-0.017-0.002-0.025
		c0-0.004-0.001-0.009-0.001-0.013c-0.006-0.087-0.013-0.172-0.019-0.254c-0.006-0.081-0.012-0.16-0.018-0.236
		c-0.006-0.075-0.011-0.148-0.017-0.218c-0.005-0.07-0.011-0.137-0.016-0.202c-0.005-0.065-0.01-0.128-0.015-0.188
		c-0.004-0.048-0.008-0.092-0.011-0.137c0-0.006-0.001-0.012-0.001-0.017c-0.001-0.007-0.001-0.014-0.002-0.021
		c-0.005-0.057-0.009-0.111-0.014-0.162c-0.005-0.056-0.01-0.108-0.014-0.156c-0.002-0.019-0.003-0.034-0.005-0.052
		c-0.001-0.013-0.002-0.025-0.004-0.038c-0.002-0.021-0.004-0.045-0.006-0.064c-0.005-0.051-0.009-0.079-0.013-0.116
		c-0.003-0.023-0.006-0.054-0.008-0.072c-0.007-0.053-0.013-0.084-0.016-0.083l-2.428,0.671c-1.167,0.323-2.359,0.652-3.363,0.93
		l-1.019,0.282c-0.656,0.181-1.345,0.372-1.915,0.529l-2.955,0.817l-2.974,0.822l-1.845,0.51c-1.408,0.389-2.915,0.806-4.146,1.146
		l-3.011,0.833l-2.812,0.778c-0.166,0.046-0.326,0.09-0.492,0.136l-2.734,0.756l-2.578,0.713c-1.202,0.332-2.426,0.671-3.459,0.956
		c-0.566,0.157-1.247,0.345-1.902,0.526l-1.109,0.307c-1.797,0.497-4.194,1.16-5.991,1.657c-0.528,0.146-1.113,0.308-1.715,0.474
		l-1.259,0.348l-2.955,0.817l-1.019,0.282c-0.656,0.181-1.345,0.372-1.915,0.529l-2.909,0.804l-0.225,0.062
		c-0.932,0.258-1.857,0.514-2.657,0.735c-0.273,0.075-0.534,0.18-0.785,0.305c-0.083,0.041-0.158,0.094-0.238,0.14
		c-0.13,0.074-0.264,0.14-0.387,0.227c-0.046,0.033-0.09,0.07-0.135,0.104c-0.024,0.018-0.047,0.036-0.071,0.055
		c-0.038,0.03-0.078,0.057-0.115,0.088c-0.089,0.074-0.175,0.151-0.259,0.232c-0.077,0.073-0.151,0.149-0.223,0.228
		c-0.009,0.009-0.016,0.019-0.025,0.029c-0.007,0.008-0.013,0.016-0.02,0.023c-0.054,0.06-0.108,0.12-0.159,0.183
		c-0.065,0.079-0.128,0.161-0.189,0.244c-0.061,0.083-0.119,0.168-0.175,0.255c-0.006,0.009-0.011,0.019-0.017,0.029
		c-0.005,0.008-0.009,0.015-0.014,0.023c-0.045,0.071-0.09,0.143-0.132,0.217c-0.053,0.092-0.104,0.187-0.152,0.283
		c-0.049,0.098-0.095,0.197-0.139,0.298c-0.003,0.006-0.005,0.013-0.008,0.019c-0.003,0.006-0.005,0.012-0.007,0.018
		c-0.039,0.091-0.077,0.183-0.111,0.278c-0.041,0.11-0.078,0.221-0.113,0.334c-0.028,0.091-0.052,0.185-0.076,0.278
		c-0.003,0.012-0.007,0.023-0.01,0.035c-0.003,0.013-0.008,0.027-0.011,0.04c-0.03,0.123-0.056,0.247-0.079,0.373
		c-0.023,0.13-0.043,0.261-0.059,0.393c-0.005,0.045-0.007,0.091-0.012,0.135c-0.003,0.027-0.005,0.054-0.007,0.081
		c-0.006,0.066-0.013,0.132-0.017,0.199c-0.008,0.145-0.011,0.291-0.009,0.438c0.001,0.12,0.006,0.241,0.014,0.363l63.499-17.558
		C210.668,149.025,210.66,148.905,210.652,148.786z"/>
	<g>
		
			<linearGradient id="SVGID_00000018235236962142616790000011588160865392214935_" gradientUnits="userSpaceOnUse" x1="246.233" y1="145.3156" x2="244.5184" y2="179.4367">
			<stop  offset="0.0363" style="stop-color:#FF7D89"/>
			<stop  offset="0.2402" style="stop-color:#FF48C1"/>
			<stop  offset="1" style="stop-color:#B600A0"/>
		</linearGradient>
		<polygon style="fill:url(#SVGID_00000018235236962142616790000011588160865392214935_);" points="210.676,149.147 
			274.225,158.737 278.018,216.551 214.469,206.962 		"/>
	</g>
	
		<linearGradient id="SVGID_00000118369461786662864080000016731602896143738772_" gradientUnits="userSpaceOnUse" x1="242.7028" y1="141.0197" x2="242.2741" y2="151.3075">
		<stop  offset="0.0363" style="stop-color:#FF7D89"/>
		<stop  offset="0.4478" style="stop-color:#FF48C1"/>
		<stop  offset="1" style="stop-color:#B600A0"/>
	</linearGradient>
	<path style="fill:url(#SVGID_00000118369461786662864080000016731602896143738772_);" d="M210.347,144.67
		c0.004,0.044,0.009,0.101,0.014,0.153c0.006,0.071,0.013,0.142,0.02,0.228c0.006,0.068,0.012,0.146,0.018,0.223
		c0.008,0.099,0.016,0.201,0.025,0.314c0.006,0.075,0.012,0.155,0.018,0.236c0.01,0.133,0.021,0.273,0.032,0.421
		c0.007,0.092,0.014,0.186,0.021,0.284c0.011,0.149,0.022,0.306,0.034,0.467c0.008,0.108,0.015,0.215,0.023,0.327
		c0.013,0.188,0.027,0.386,0.041,0.587c0.007,0.1,0.013,0.196,0.02,0.298c0.02,0.301,0.041,0.613,0.063,0.938l63.549,9.59
		c-0.018-0.28-0.054-0.554-0.105-0.822c-0.007-0.038-0.021-0.073-0.029-0.111c-0.027-0.127-0.065-0.247-0.098-0.371
		c-0.051-0.188-0.104-0.374-0.17-0.553c-0.046-0.124-0.099-0.241-0.152-0.361c-0.074-0.167-0.151-0.33-0.238-0.488
		c-0.063-0.114-0.13-0.224-0.2-0.333c-0.095-0.149-0.195-0.291-0.301-0.428c-0.078-0.1-0.156-0.198-0.239-0.292
		c-0.115-0.131-0.237-0.251-0.362-0.369c-0.088-0.083-0.175-0.166-0.268-0.242c-0.137-0.112-0.281-0.21-0.426-0.307
		c-0.093-0.062-0.183-0.128-0.28-0.183c-0.166-0.095-0.34-0.17-0.515-0.244c-0.086-0.036-0.168-0.082-0.256-0.113
		c-0.267-0.094-0.541-0.167-0.823-0.209c-5.773-0.871-11.546-1.742-17.319-2.614l-0.346-0.052l-3.005-0.453l-3.014-0.455
		l-0.437-0.066c-11.778-1.777-23.557-3.555-35.336-5.332c0.004,0.001,0.01,0.033,0.017,0.088c0.002,0.016,0.005,0.047,0.008,0.068
		C210.334,144.544,210.34,144.597,210.347,144.67z"/>
	
		<linearGradient id="SVGID_00000052070154485505085410000009587096802359798448_" gradientUnits="userSpaceOnUse" x1="243.7727" y1="217.0102" x2="247.1162" y2="230.3843">
		<stop  offset="0.0363" style="stop-color:#FF7D89"/>
		<stop  offset="0.6335" style="stop-color:#FF48C1"/>
		<stop  offset="1" style="stop-color:#B600A0"/>
	</linearGradient>
	<path style="fill:url(#SVGID_00000052070154485505085410000009587096802359798448_);" d="M278.018,216.551L278.018,216.551
		l-63.499,17.558c0.008,0.122,0.016,0.242,0.024,0.36c0.01,0.145,0.019,0.288,0.029,0.428c0.005,0.068,0.009,0.133,0.014,0.2
		c0.001,0.022,0.003,0.043,0.004,0.064c0.003,0.044,0.006,0.09,0.009,0.133c0.009,0.126,0.017,0.249,0.025,0.37
		c0.008,0.117,0.016,0.232,0.024,0.344c0.008,0.109,0.015,0.216,0.023,0.321c0.007,0.101,0.014,0.2,0.021,0.297
		c0.006,0.082,0.012,0.161,0.017,0.24c0,0.006,0.001,0.013,0.001,0.019c0,0.005,0.001,0.01,0.001,0.015
		c0.006,0.087,0.013,0.172,0.019,0.255c0.006,0.081,0.012,0.16,0.018,0.236c0.005,0.06,0.009,0.117,0.013,0.174
		c0.001,0.007,0.001,0.015,0.002,0.023c0.001,0.007,0.001,0.015,0.002,0.022c0.005,0.07,0.011,0.137,0.016,0.202l0,0v0l0,0h0
		c0.005,0.065,0.01,0.128,0.015,0.188c0.004,0.051,0.008,0.1,0.012,0.147c0,0,0,0.001,0,0.001c0.001,0.009,0.002,0.018,0.002,0.027
		c0.005,0.057,0.009,0.111,0.014,0.162c0.005,0.056,0.01,0.108,0.014,0.156c0.002,0.019,0.003,0.034,0.005,0.051
		c0.001,0.014,0.003,0.027,0.004,0.04c0.002,0.02,0.004,0.044,0.006,0.062c0.005,0.05,0.009,0.077,0.013,0.113
		c0.003,0.024,0.006,0.057,0.008,0.075c0.007,0.049,0.012,0.077,0.015,0.079c0,0,0.001,0.004,0.001,0.004
		c3.431-0.949,6.862-1.897,10.293-2.846l1.387-0.383l0.895-0.248c11.505-3.181,23.011-6.363,34.516-9.544l0.615-0.17l0.303-0.084
		c2.35-0.65,4.7-1.299,7.049-1.949l1.446-0.4l2.881-0.797c0.273-0.075,0.534-0.181,0.785-0.305c0.083-0.041,0.158-0.094,0.238-0.14
		c0.13-0.074,0.264-0.14,0.387-0.227c0.047-0.033,0.09-0.07,0.136-0.104c0.024-0.018,0.048-0.036,0.071-0.055
		c0.038-0.03,0.077-0.057,0.114-0.087c0.089-0.074,0.175-0.151,0.259-0.232c0.077-0.073,0.151-0.149,0.223-0.228
		c0.009-0.009,0.017-0.02,0.025-0.029c0.007-0.008,0.013-0.016,0.02-0.023c0.054-0.06,0.108-0.12,0.159-0.183
		c0.065-0.079,0.128-0.161,0.189-0.245c0.061-0.083,0.119-0.168,0.175-0.255c0.006-0.009,0.012-0.019,0.018-0.029
		c0.005-0.008,0.009-0.015,0.014-0.023c0.045-0.071,0.09-0.143,0.132-0.216c0.053-0.093,0.104-0.187,0.152-0.283
		c0.049-0.098,0.095-0.197,0.139-0.298c0.003-0.006,0.005-0.013,0.008-0.019c0.003-0.006,0.005-0.012,0.007-0.018
		c0.039-0.091,0.077-0.183,0.111-0.277c0.041-0.11,0.078-0.221,0.113-0.334c0.028-0.092,0.052-0.185,0.077-0.279
		c0.003-0.012,0.007-0.023,0.009-0.034c0.003-0.014,0.008-0.027,0.011-0.041c0.03-0.123,0.056-0.247,0.079-0.373
		c0.023-0.129,0.043-0.261,0.059-0.393c0.005-0.045,0.007-0.09,0.012-0.135c0.003-0.027,0.005-0.054,0.007-0.081
		c0.006-0.066,0.013-0.132,0.017-0.199c0.008-0.145,0.011-0.291,0.009-0.438C278.031,216.794,278.026,216.673,278.018,216.551z"/>
	
		<linearGradient id="SVGID_00000009573995843597390100000015733999971987352761_" gradientUnits="userSpaceOnUse" x1="184.011" y1="224.1553" x2="182.4678" y2="234.9574">
		<stop  offset="0.3342" style="stop-color:#FF7D89"/>
		<stop  offset="0.564" style="stop-color:#FF48C1"/>
		<stop  offset="0.8313" style="stop-color:#B600A0"/>
	</linearGradient>
	<path style="fill:url(#SVGID_00000009573995843597390100000015733999971987352761_);" d="M214.891,238.918
		c-0.004-0.001-0.01-0.033-0.017-0.088c-0.002-0.017-0.005-0.048-0.008-0.07c-0.006-0.049-0.012-0.101-0.018-0.174
		c-0.004-0.04-0.009-0.094-0.013-0.141c-0.007-0.076-0.014-0.155-0.022-0.249c-0.005-0.065-0.012-0.139-0.018-0.213
		c-0.008-0.094-0.015-0.192-0.024-0.299c-0.007-0.084-0.014-0.175-0.021-0.267c-0.01-0.127-0.02-0.261-0.03-0.403
		c-0.007-0.095-0.014-0.191-0.021-0.292c-0.011-0.146-0.022-0.3-0.033-0.457c-0.008-0.111-0.016-0.222-0.024-0.339
		c-0.013-0.181-0.026-0.373-0.039-0.566c-0.007-0.107-0.014-0.21-0.022-0.321c-0.02-0.3-0.041-0.608-0.062-0.932l-63.549-9.59
		c0.018,0.28,0.054,0.554,0.105,0.821c0.007,0.038,0.021,0.073,0.029,0.111c0.027,0.127,0.064,0.247,0.098,0.37
		c0.051,0.188,0.104,0.375,0.17,0.554c0.046,0.124,0.099,0.241,0.152,0.36c0.074,0.168,0.152,0.331,0.239,0.489
		c0.063,0.114,0.13,0.223,0.199,0.331c0.095,0.149,0.196,0.292,0.302,0.43c0.077,0.1,0.155,0.198,0.238,0.292
		c0.115,0.131,0.237,0.251,0.362,0.369c0.088,0.083,0.175,0.167,0.268,0.243c0.136,0.112,0.28,0.209,0.425,0.306
		c0.094,0.062,0.184,0.129,0.282,0.184c0.165,0.094,0.339,0.169,0.513,0.243c0.087,0.037,0.17,0.082,0.258,0.114
		c0.264,0.093,0.535,0.165,0.814,0.207c0.003,0,0.006,0.002,0.009,0.002c11.819,1.783,23.637,3.567,35.455,5.35l0.317,0.048
		l3.014,0.455l0.258,0.039c3.727,0.563,7.455,1.125,11.182,1.688l0.493,0.074l2.938,0.443l0.119,0.018
		C211.105,238.347,212.997,238.632,214.891,238.918z"/>
	<g>
		
			<linearGradient id="SVGID_00000173132444557002600240000009165049989188895144_" gradientUnits="userSpaceOnUse" x1="209.8308" y1="161.8327" x2="174.0808" y2="209.4137">
			<stop  offset="0.0363" style="stop-color:#FF7D89"/>
			<stop  offset="0.2402" style="stop-color:#FF48C1"/>
			<stop  offset="1" style="stop-color:#B600A0"/>
		</linearGradient>
		<polygon style="fill:url(#SVGID_00000173132444557002600240000009165049989188895144_);" points="210.726,176.295 
			214.519,234.109 150.97,224.519 147.177,166.705 		"/>
	</g>
	<g>
		
			<linearGradient id="SVGID_00000143590014362820378700000001239946121303816878_" gradientUnits="userSpaceOnUse" x1="265.9139" y1="159.8287" x2="204.4445" y2="264.2496">
			<stop  offset="0.0363" style="stop-color:#FF7D89"/>
			<stop  offset="0.4879" style="stop-color:#FF48C1"/>
			<stop  offset="1" style="stop-color:#B600A0"/>
		</linearGradient>
		<polygon style="fill:url(#SVGID_00000143590014362820378700000001239946121303816878_);" points="274.225,158.737 
			278.018,216.551 214.519,234.109 210.726,176.295 		"/>
	</g>
	
		<linearGradient id="SVGID_00000154394694258576562260000011859880578592180866_" gradientUnits="userSpaceOnUse" x1="239.1858" y1="155.8225" x2="245.0155" y2="176.0551">
		<stop  offset="0.1286" style="stop-color:#B600A0"/>
		<stop  offset="0.4405" style="stop-color:#FF7D89"/>
		<stop  offset="0.6156" style="stop-color:#FF48C1"/>
		<stop  offset="0.9106" style="stop-color:#B600A0"/>
	</linearGradient>
	<path style="fill:url(#SVGID_00000154394694258576562260000011859880578592180866_);" d="M274.217,158.638
		c-0.013-0.16-0.031-0.319-0.055-0.475c-0.025-0.164-0.056-0.325-0.092-0.483c-0.006-0.025-0.014-0.048-0.02-0.073
		c-0.007-0.027-0.015-0.052-0.021-0.079c-0.029-0.115-0.058-0.231-0.093-0.343c-0.055-0.175-0.117-0.347-0.186-0.514
		c-0.015-0.037-0.035-0.071-0.05-0.107c-0.02-0.046-0.042-0.089-0.063-0.134c-0.049-0.105-0.094-0.213-0.148-0.315
		c-0.059-0.11-0.134-0.206-0.199-0.311c-0.075-0.123-0.148-0.246-0.232-0.362c-0.034-0.047-0.059-0.102-0.094-0.148
		c-0.116-0.153-0.247-0.288-0.376-0.426c-0.046-0.049-0.086-0.104-0.133-0.151c-0.012-0.012-0.022-0.027-0.034-0.038
		c-0.191-0.187-0.394-0.359-0.607-0.513c-0.03-0.021-0.061-0.04-0.091-0.06c-0.022-0.015-0.044-0.029-0.066-0.044
		c-0.064-0.043-0.128-0.088-0.194-0.128c-0.093-0.056-0.187-0.109-0.283-0.158c-0.073-0.038-0.147-0.073-0.221-0.107
		c-0.046-0.021-0.094-0.04-0.141-0.06c-0.006-0.003-0.013-0.005-0.019-0.008c-0.016-0.007-0.032-0.014-0.048-0.021
		c-0.059-0.023-0.119-0.046-0.179-0.066c-0.058-0.02-0.116-0.039-0.174-0.057c-0.05-0.015-0.101-0.03-0.151-0.043
		s-0.102-0.026-0.153-0.038c-0.047-0.011-0.095-0.021-0.142-0.03c-0.035-0.007-0.07-0.013-0.105-0.019
		c-0.002,0-0.004-0.001-0.006-0.001c-0.009-0.001-0.017-0.003-0.026-0.005c-0.046-0.007-0.092-0.014-0.138-0.02
		c-0.044-0.006-0.089-0.011-0.134-0.015c-0.044-0.005-0.089-0.008-0.133-0.011c-0.045-0.003-0.089-0.006-0.134-0.007
		c-0.046-0.002-0.093-0.003-0.139-0.003c-0.047,0-0.094,0-0.142,0.001c-0.047,0.001-0.095,0.003-0.143,0.006
		c-0.009,0.001-0.019,0.001-0.029,0.002l-58.48,16.17c0,0.002,0,0.004,0,0.006c0,0.01,0,0.022,0,0.034c0,0.012,0,0.025,0.001,0.038
		c0,0.013,0.001,0.027,0.001,0.042c0,0.014,0.001,0.029,0.001,0.044c0,0.015,0.001,0.031,0.001,0.048
		c0.001,0.017,0.001,0.034,0.002,0.052c0.001,0.019,0.001,0.038,0.002,0.058c0,0.003,0,0.007,0,0.011c0,0.002,0,0.004,0,0.005
		c0.001,0.015,0.001,0.03,0.002,0.046c0.001,0.022,0.002,0.045,0.003,0.069c0.001,0.026,0.002,0.052,0.003,0.079
		c0.001,0.027,0.002,0.055,0.003,0.084c0.001,0.034,0.003,0.068,0.004,0.104c0.002,0.037,0.003,0.075,0.005,0.114
		c0,0.008,0.001,0.018,0.001,0.026c0.001,0.011,0.001,0.024,0.002,0.035c0.001,0.027,0.002,0.054,0.004,0.083
		c0.003,0.054,0.005,0.109,0.008,0.166c0.004,0.075,0.008,0.153,0.012,0.233c0.003,0.053,0.006,0.11,0.009,0.166
		c0.002,0.031,0.003,0.062,0.005,0.093c0.001,0.022,0.002,0.043,0.003,0.066c0.011,0.21,0.023,0.434,0.036,0.671
		c0.001,0.014,0.002,0.029,0.002,0.043c0.004,0.071,0.008,0.149,0.013,0.222c0.009,0.161,0.018,0.319,0.028,0.49
		c0.003,0.049,0.006,0.103,0.009,0.152c0.009,0.151,0.018,0.307,0.027,0.465c0.007,0.113,0.013,0.218,0.02,0.334
		c0.007,0.119,0.015,0.241,0.022,0.363c0.003,0.042,0.005,0.082,0.007,0.124c0.003,0.044,0.005,0.087,0.008,0.132
		c0.011,0.183,0.023,0.368,0.034,0.556c0.007,0.119,0.015,0.24,0.023,0.361c0.002,0.03,0.004,0.06,0.006,0.09
		c0.002,0.024,0.003,0.048,0.005,0.072c0.01,0.166,0.021,0.332,0.032,0.5c0.01,0.16,0.021,0.32,0.031,0.481
		c0.002,0.033,0.004,0.066,0.006,0.099l63.499-17.558C274.222,158.704,274.22,158.671,274.217,158.638z"/>
	
		<linearGradient id="SVGID_00000121269408350911736070000010256555873855494025_" gradientUnits="userSpaceOnUse" x1="180.0698" y1="163.5216" x2="177.8408" y2="178.4389">
		<stop  offset="0.0363" style="stop-color:#FF7D89"/>
		<stop  offset="0.2402" style="stop-color:#FF48C1"/>
		<stop  offset="1" style="stop-color:#B600A0"/>
	</linearGradient>
	<path style="fill:url(#SVGID_00000121269408350911736070000010256555873855494025_);" d="M210.662,175.301
		c-0.019-0.299-0.037-0.591-0.055-0.881c-0.008-0.133-0.017-0.27-0.025-0.401c-0.012-0.204-0.024-0.397-0.036-0.594
		c-0.01-0.162-0.02-0.33-0.029-0.486c-0.009-0.153-0.017-0.294-0.025-0.441c-0.01-0.174-0.02-0.352-0.03-0.516
		c-0.008-0.135-0.014-0.256-0.021-0.383c-0.008-0.152-0.017-0.304-0.024-0.444c-0.011-0.205-0.02-0.387-0.028-0.562
		c-0.004-0.073-0.008-0.157-0.011-0.225c-0.002-0.048-0.004-0.089-0.006-0.134c-0.007-0.147-0.012-0.279-0.016-0.392
		c-0.001-0.028-0.002-0.061-0.003-0.087c-0.005-0.135-0.007-0.245-0.008-0.314l-58.526-8.832c-0.04,0.003-0.079,0.005-0.119,0.009
		c-0.249,0.022-0.493,0.065-0.729,0.128c-0.034,0.009-0.065,0.024-0.098,0.034c-0.058,0.017-0.113,0.04-0.17,0.059
		c-0.244,0.081-0.478,0.182-0.703,0.302c-0.05,0.027-0.102,0.05-0.152,0.079c-0.027,0.016-0.056,0.027-0.083,0.043
		c-0.091,0.056-0.167,0.137-0.255,0.199c-0.183,0.129-0.364,0.259-0.529,0.414c-0.029,0.027-0.065,0.045-0.093,0.073
		c-0.11,0.108-0.203,0.237-0.304,0.356c-0.083,0.097-0.171,0.187-0.248,0.29c-0.018,0.024-0.04,0.043-0.058,0.068
		c-0.105,0.147-0.186,0.313-0.278,0.471c-0.065,0.112-0.139,0.216-0.197,0.334c-0.008,0.017-0.02,0.03-0.028,0.047
		c-0.062,0.128-0.098,0.272-0.151,0.406c-0.075,0.191-0.158,0.376-0.214,0.577c-0.006,0.022-0.017,0.041-0.023,0.063
		c-0.077,0.283-0.127,0.577-0.165,0.876c-0.008,0.064-0.015,0.127-0.021,0.192c-0.008,0.078-0.021,0.154-0.026,0.234
		c-0.017,0.276-0.016,0.557,0.003,0.842l63.549,9.59C210.704,175.96,210.683,175.629,210.662,175.301z"/>
	
		<radialGradient id="SVGID_00000011724892150588383400000016069791860561056411_" cx="204.7161" cy="138.6968" r="12.1643" gradientTransform="matrix(0.4947 -0.0265 0.284 5.2998 72.1684 -524.4181)" gradientUnits="userSpaceOnUse">
		<stop  offset="0.0675" style="stop-color:#FF7D89"/>
		<stop  offset="0.5163" style="stop-color:#FF48C1;stop-opacity:0"/>
		<stop  offset="1" style="stop-color:#B600A0;stop-opacity:0"/>
	</radialGradient>
	<path style="fill:url(#SVGID_00000011724892150588383400000016069791860561056411_);" d="M218.163,204.939
		c0.876,16.344-0.801,29.721-3.746,29.879c-2.945,0.158-6.042-12.964-6.918-29.308s0.801-29.721,3.746-29.879
		C214.19,175.474,217.287,188.595,218.163,204.939z"/>
	
		<radialGradient id="SVGID_00000065076853113778099960000006448487293009192070_" cx="-124.8011" cy="111.8195" r="12.1643" gradientTransform="matrix(-0.0617 -0.2404 3.2825 -0.8428 -114.8307 286.9295)" gradientUnits="userSpaceOnUse">
		<stop  offset="0.0675" style="stop-color:#FF7D89"/>
		<stop  offset="0.5163" style="stop-color:#FF48C1;stop-opacity:0"/>
		<stop  offset="1" style="stop-color:#B600A0;stop-opacity:0"/>
	</radialGradient>
	<path style="fill:url(#SVGID_00000065076853113778099960000006448487293009192070_);" d="M259.252,220.095
		c10.123-2.599,18.627-3.546,18.994-2.115c0.367,1.431-7.541,4.698-17.663,7.297c-10.123,2.599-18.627,3.546-18.994,2.115
		S249.129,222.694,259.252,220.095z"/>
</g>
<g>
	
		<linearGradient id="SVGID_00000060726073045135660190000010342600992443944607_" gradientUnits="userSpaceOnUse" x1="231.8591" y1="102.1103" x2="223.1145" y2="145.4904">
		<stop  offset="0.0363" style="stop-color:#FF7D89"/>
		<stop  offset="0.2402" style="stop-color:#FF48C1"/>
		<stop  offset="1" style="stop-color:#B600A0"/>
	</linearGradient>
	<path style="fill:url(#SVGID_00000060726073045135660190000010342600992443944607_);" d="M262.385,115.571
		c0.232-0.021,0.463-0.039,0.682-0.044c0.076-0.002,0.151-0.003,0.225-0.003c0.285,0,0.559,0.011,0.814,0.037
		c-0.004-0.001-0.008-0.002-0.012-0.003c0.009,0.001,0.018,0.002,0.027,0.003c-0.005,0-0.011,0-0.015-0.001
		c0.303,0.062,0.6,0.116,0.885,0.154c-0.235-0.064-0.499-0.11-0.78-0.143c0.086,0.01,0.174,0.019,0.255,0.031
		c0.127,0.02,0.248,0.044,0.364,0.071c0.055,0.013,0.108,0.026,0.16,0.04l-3.376-0.919l-3.384-0.921l-3.391-0.923l-0.004-0.001
		c-1.174-0.392-2.348-0.784-3.393-0.923l-3.402-0.926l-3.407-0.927l-3.41-0.928l-3.413-0.929l-3.414-0.929l-0.296-0.08
		c-1.376-0.374-2.751-0.749-4.127-1.123l-2.408-0.655l-3.414-0.929l-3.413-0.929l-3.41-0.928l-3.407-0.927l-1.7-0.463
		c-0.819-0.223-1.639-0.446-2.458-0.669l-2.64-0.718l-2.882-0.784c-2.423-0.659-4.845-1.318-7.268-1.978c0,0,0.007,0.029,0.016,0.07
		c0.002,0.008,0.003,0.014,0.005,0.023c0.01,0.046,0.025,0.113,0.042,0.193c0.006,0.027,0.012,0.055,0.019,0.086
		c0.011,0.05,0.025,0.113,0.038,0.173c0.016,0.072,0.031,0.144,0.05,0.231c0.03,0.138,0.062,0.286,0.099,0.46l63.711,17.336
		c0.356-0.076,0.703-0.129,1.043-0.172C262.129,115.591,262.256,115.583,262.385,115.571z"/>
	
		<linearGradient id="SVGID_00000038398807277827727890000015308764231157291677_" gradientUnits="userSpaceOnUse" x1="175.8231" y1="90.8146" x2="167.0785" y2="134.1947">
		<stop  offset="0.0363" style="stop-color:#FF7D89"/>
		<stop  offset="0.2402" style="stop-color:#FF48C1"/>
		<stop  offset="1" style="stop-color:#B600A0"/>
	</linearGradient>
	<path style="fill:url(#SVGID_00000038398807277827727890000015308764231157291677_);" d="M144.121,140.937
		c0.017-0.008,0.034-0.015,0.051-0.023c0.307-0.132,0.635-0.255,0.982-0.365c0.005-0.002,0.011-0.004,0.016-0.005
		c0.358-0.113,0.735-0.213,1.127-0.297l50.946-41.804c-0.007-0.032-0.014-0.064-0.02-0.094c-0.011-0.052-0.022-0.102-0.033-0.151
		c-0.011-0.049-0.021-0.097-0.031-0.143c-0.01-0.047-0.02-0.093-0.029-0.136c-0.01-0.045-0.019-0.088-0.028-0.128
		c-0.009-0.042-0.018-0.083-0.026-0.121c-0.009-0.04-0.017-0.078-0.024-0.113c-0.008-0.038-0.016-0.072-0.023-0.104
		c-0.008-0.035-0.015-0.067-0.021-0.095c-0.006-0.028-0.011-0.05-0.015-0.07c0-0.001-0.001-0.003-0.001-0.004
		c-0.001-0.003-0.002-0.007-0.002-0.01c-0.01-0.046-0.015-0.068-0.016-0.068c-1.141,0.936-2.545,2.089-3.845,3.155l-1.561,1.281
		c-0.269,0.221-0.57,0.468-0.879,0.721l-1.833,1.504c-1.079,0.886-2.39,1.961-3.63,2.979l-1.807,1.483
		c-1.064,0.873-2.353,1.931-3.578,2.936l-1.873,1.537l-1.365,1.12c-0.478,0.392-0.955,0.784-1.365,1.12l-2.73,2.24l-2.731,2.241
		l-5.462,4.481l-2.073,1.701c-1.859,1.526-3.719,3.052-5.578,4.577l-0.529,0.434l-2.721,2.232l-2.717,2.229l-2.712,2.225
		l-2.706,2.221l-2.7,2.215c0.196-0.161,0.427-0.319,0.684-0.47c0.015-0.009,0.031-0.017,0.047-0.026
		C143.557,141.202,143.828,141.065,144.121,140.937z"/>
	
		<linearGradient id="SVGID_00000092414198459094428760000016688556220612162998_" gradientUnits="userSpaceOnUse" x1="234.0396" y1="133.7956" x2="241.584" y2="142.8831">
		<stop  offset="0.1286" style="stop-color:#B600A0"/>
		<stop  offset="0.4405" style="stop-color:#FF7D89"/>
		<stop  offset="0.6156" style="stop-color:#FF48C1"/>
		<stop  offset="0.9106" style="stop-color:#B600A0"/>
	</linearGradient>
	<path style="fill:url(#SVGID_00000092414198459094428760000016688556220612162998_);" d="M266.297,116.716
		c-0.004-0.017-0.008-0.034-0.013-0.051c-0.005-0.019-0.011-0.037-0.017-0.055c-0.006-0.018-0.013-0.036-0.021-0.054
		c-0.008-0.019-0.017-0.038-0.027-0.057c-0.01-0.019-0.02-0.037-0.031-0.055c-0.011-0.019-0.024-0.037-0.036-0.055
		c-0.012-0.017-0.025-0.034-0.039-0.051c0-0.001-0.001-0.001-0.001-0.001c-0.001-0.001-0.002-0.002-0.003-0.003
		c-0.015-0.018-0.031-0.037-0.047-0.054c-0.017-0.019-0.035-0.037-0.054-0.055c-0.019-0.018-0.039-0.036-0.059-0.053
		c-0.022-0.019-0.045-0.037-0.07-0.055c-0.026-0.02-0.054-0.039-0.082-0.058c-0.014-0.009-0.03-0.018-0.044-0.027
		c-0.005-0.003-0.01-0.006-0.016-0.01c-0.019-0.012-0.037-0.024-0.057-0.035c-0.057-0.032-0.136-0.054-0.2-0.083
		c-0.105-0.048-0.206-0.097-0.327-0.136c-0.019-0.006-0.032-0.016-0.052-0.021c-0.062-0.019-0.125-0.036-0.191-0.053
		c-0.061-0.015-0.123-0.03-0.187-0.043c-0.052-0.011-0.105-0.021-0.159-0.03c-0.004-0.001-0.008-0.002-0.012-0.002
		c-0.006-0.001-0.012-0.002-0.019-0.004c-0.066-0.011-0.133-0.021-0.201-0.031c-0.071-0.01-0.143-0.018-0.216-0.026
		c-0.076-0.008-0.153-0.014-0.231-0.02c-0.03-0.002-0.061-0.003-0.091-0.005c-0.012-0.001-0.024-0.001-0.036-0.002
		c-0.04-0.002-0.08-0.005-0.121-0.007c-0.086-0.003-0.172-0.005-0.261-0.006c-0.089-0.001-0.178,0-0.27,0.002
		c-0.061,0.001-0.123,0.004-0.185,0.006c-0.011,0-0.022,0.001-0.033,0.001c-0.02,0.001-0.039,0.001-0.058,0.002
		c-0.093,0.004-0.187,0.01-0.282,0.017c-0.094,0.007-0.189,0.015-0.285,0.025c-0.096,0.01-0.192,0.021-0.29,0.033
		c-0.005,0.001-0.01,0.001-0.014,0.002c-0.004,0.001-0.008,0.001-0.012,0.002c-0.089,0.011-0.178,0.024-0.268,0.037
		c-0.099,0.015-0.198,0.031-0.298,0.049c-0.101,0.018-0.202,0.037-0.304,0.058c-0.041,0.008-0.082,0.017-0.123,0.026l-50.946,41.804
		c0.005,0.021,0.009,0.042,0.014,0.064c0.012,0.053,0.023,0.108,0.035,0.163c0.008,0.039,0.017,0.079,0.026,0.118
		c0.009,0.043,0.018,0.083,0.027,0.126c0.007,0.031,0.013,0.061,0.02,0.092c0.003,0.014,0.006,0.029,0.009,0.043
		c0.02,0.092,0.04,0.187,0.061,0.282c0.002,0.009,0.004,0.018,0.006,0.027c0.013,0.06,0.026,0.121,0.039,0.182
		c0.013,0.059,0.025,0.118,0.038,0.177c0.006,0.027,0.012,0.054,0.017,0.081c0.008,0.038,0.016,0.075,0.024,0.113
		c0.001,0.005,0.002,0.01,0.003,0.014c0.047,0.217,0.093,0.434,0.14,0.652c0.004,0.019,0.008,0.037,0.012,0.056
		c0.012,0.056,0.024,0.111,0.036,0.166c0.003,0.016,0.007,0.032,0.01,0.048c0.128,0.596,0.25,1.17,0.352,1.648
		c0.001,0.005,0.002,0.01,0.003,0.015c0.001,0.005,0.002,0.009,0.003,0.013c0.034,0.16,0.066,0.309,0.095,0.444L266.297,116.716z"/>
	<g>
		
			<linearGradient id="SVGID_00000121278290748362002820000010900528855638179261_" gradientUnits="userSpaceOnUse" x1="205.1833" y1="104.9805" x2="195.5814" y2="246.9518">
			<stop  offset="0.0363" style="stop-color:#FF7D89"/>
			<stop  offset="0.3019" style="stop-color:#FF48C1"/>
			<stop  offset="1" style="stop-color:#B600A0"/>
		</linearGradient>
		<path style="fill:url(#SVGID_00000121278290748362002820000010900528855638179261_);" d="M197.243,98.444
			c20.325,5.531,43.385,11.805,63.711,17.336c-16.253,13.337-34.693,28.467-50.946,41.804
			c-20.325-5.531-43.385-11.805-63.711-17.336C162.551,126.911,180.99,111.78,197.243,98.444z"/>
	</g>
	<g>
		
			<linearGradient id="SVGID_00000090994353167153257240000002595040340368099997_" gradientUnits="userSpaceOnUse" x1="186.4265" y1="137.3269" x2="179.7394" y2="158.674">
			<stop  offset="0.0363" style="stop-color:#FF7D89"/>
			<stop  offset="0.2402" style="stop-color:#FF48C1"/>
			<stop  offset="1" style="stop-color:#B600A0"/>
		</linearGradient>
		<polygon style="fill:url(#SVGID_00000090994353167153257240000002595040340368099997_);" points="210.978,162.108 215.2,181.981 
			146.02,163.157 141.799,143.284 		"/>
	</g>
	<g>
		
			<linearGradient id="SVGID_00000090281116358469263630000010563915161225361330_" gradientUnits="userSpaceOnUse" x1="259.3313" y1="122.6421" x2="212.2647" y2="190.2842">
			<stop  offset="0.0363" style="stop-color:#FF7D89"/>
			<stop  offset="0.2402" style="stop-color:#FF48C1"/>
			<stop  offset="1" style="stop-color:#B600A0"/>
		</linearGradient>
		<polygon style="fill:url(#SVGID_00000090281116358469263630000010563915161225361330_);" points="266.297,116.716 270.518,136.59 
			215.2,181.981 210.978,162.108 		"/>
	</g>
	
		<linearGradient id="SVGID_00000147911351922245073010000007830810932611722122_" gradientUnits="userSpaceOnUse" x1="177.8985" y1="147.0653" x2="175.9267" y2="154.181">
		<stop  offset="0.1286" style="stop-color:#B600A0"/>
		<stop  offset="0.4405" style="stop-color:#FF7D89"/>
		<stop  offset="0.6156" style="stop-color:#FF48C1"/>
		<stop  offset="0.9106" style="stop-color:#B600A0"/>
	</linearGradient>
	<path style="fill:url(#SVGID_00000147911351922245073010000007830810932611722122_);" d="M210.937,161.912
		c-0.015-0.069-0.03-0.14-0.046-0.214c-0.013-0.063-0.027-0.128-0.042-0.195c-0.013-0.063-0.027-0.127-0.041-0.192
		c-0.014-0.065-0.028-0.132-0.043-0.2c-0.015-0.071-0.031-0.144-0.046-0.217c-0.017-0.081-0.035-0.163-0.053-0.246
		c-0.02-0.096-0.041-0.193-0.062-0.291c-0.025-0.119-0.051-0.24-0.077-0.361c-0.003-0.012-0.005-0.024-0.008-0.036
		c-0.001-0.005-0.002-0.01-0.003-0.015c-0.033-0.152-0.066-0.306-0.099-0.459c-0.003-0.014-0.006-0.027-0.009-0.04
		c-0.141-0.655-0.281-1.307-0.401-1.863l-63.711-17.336c-0.312,0.067-0.612,0.146-0.904,0.232c-0.092,0.027-0.177,0.057-0.267,0.085
		c-0.198,0.063-0.39,0.129-0.574,0.2c-0.094,0.036-0.184,0.072-0.274,0.11c-0.175,0.073-0.341,0.149-0.501,0.227
		c-0.077,0.037-0.155,0.074-0.227,0.112c-0.032,0.017-0.07,0.033-0.102,0.05c-0.146,0.08-0.275,0.164-0.404,0.247
		c-0.038,0.024-0.081,0.047-0.117,0.072c-0.007,0.005-0.015,0.009-0.022,0.014c-0.119,0.082-0.23,0.165-0.333,0.25
		c-0.049,0.04-0.091,0.081-0.136,0.122c-0.016,0.015-0.033,0.029-0.049,0.044c-0.016,0.015-0.034,0.03-0.05,0.045
		c-0.062,0.061-0.12,0.123-0.173,0.185c-0.048,0.056-0.092,0.112-0.131,0.169c-0.003,0.005-0.005,0.009-0.009,0.014
		c-0.003,0.004-0.005,0.009-0.008,0.013c-0.03,0.045-0.059,0.089-0.084,0.134c-0.029,0.054-0.055,0.107-0.076,0.16
		c-0.015,0.039-0.026,0.078-0.036,0.116c-0.002,0.008-0.006,0.016-0.008,0.024c-0.002,0.009-0.007,0.019-0.009,0.028
		c-0.015,0.066-0.023,0.131-0.024,0.195c-0.001,0.064,0.005,0.127,0.018,0.189l69.18,18.824
		C210.965,162.046,210.951,161.98,210.937,161.912z"/>
</g>
</svg>
