<svg xmlns="http://www.w3.org/2000/svg" width="60" height="60" viewBox="0 0 128 128">
	<path fill="#0B7CBF"
		d="M42.114 98.011c-14.093-6.524-25.19-15.973-34.08-28.286C5 65.52 6.09 63.038 8.8 59.37 19.052 45.49 31.73 35.176 48.355 29.86c20.886-6.676 39.234-.97 55.624 11.931 6.893 5.426 12.536 12.525 18.283 19.26 1.304 1.527 1.83 5.524.776 6.985-12.585 17.433-28.066 30.562-50.335 34.127-10.706 1.714-20.455-.397-30.59-4.152M26.229 84.293c12.836 10.47 27.116 16.899 44.085 14.958 21.806-2.495 36.94-15.504 49.44-32.3.704-.946.392-3.701-.486-4.605-7.041-7.244-13.745-15.007-21.69-21.135C86.73 32.847 73.905 29.184 60.03 30.702c-22.033 2.412-37.326 15.403-49.86 32.431-.682.926-.24 3.586.643 4.604 4.784 5.519 9.871 10.775 15.415 16.556z" />
	<path fill="#0278BC"
		d="M66.992 108.431c.004 2.94.247 5.464-.111 7.9-.165 1.117-1.51 2.062-2.32 3.085l-1.287-.82v-13.223l1.084-.751c.876 1.119 1.752 2.238 2.634 3.81z" />
	<path fill="#0277BD"
		d="M63.387 24.39c-.294-3.533-.525-6.703-.283-9.836.09-1.165 1.288-2.245 1.981-3.364.637 1.176 1.68 2.304 1.825 3.537.289 2.46-.014 4.981.112 7.468.134 2.656-1.172 3.143-3.635 2.196zM51.97 24.892c-1.182 3.516-3.08 2.168-3.63.46-1.227-3.807-1.782-7.832-2.61-11.769l1.57-.952c.898 1.087 2.198 2.04 2.612 3.286.921 2.775 1.4 5.697 2.057 8.975z" />
	<path fill="#0277BA"
		d="M82.008 23.892c-.904 1.412-1.79 2.413-3.157 3.954-1.098-6.877 1.25-13.686 5.601-14.981-.894 3.912-1.66 7.263-2.444 11.027z" />
	<path fill="#0275BC"
		d="M94.728 24.598a2733.25 2733.25 0 003.972-7.819c1.663 5.565-.764 11.979-4.915 15.215-3.303-2.758.26-4.78.943-7.396z" />
	<path fill="#0277BB"
		d="M110.707 35.827c-1.327 1.377-2.39 2.485-4.029 4.188-.597-5.431 3.724-11.783 8.975-12.099-1.561 2.547-3.122 5.093-4.946 7.91z" />
	<path fill="#0276BD"
		d="M21.683 32.453c1.045 2.1 1.895 3.875 2.947 6.07-4.936-.235-9.628-6.743-8.894-12.688 2.326 2.544 4.039 4.418 5.947 6.618z" />
	<path fill="#0276BB"
		d="M30.605 106.866c1.268-2.367 2.19-4.481 3.365-6.444.386-.645 1.39-1.09 2.184-1.242.36-.07 1.143.725 1.312 1.26.64 2.028-4.386 10.388-7.418 11.673.116-1.857.212-3.397.557-5.247z" />
	<path fill="#0277BC"
		d="M99.93 110.721c-.97.438-2.545.81-2.719.47a110.962 110.962 0 01-4.34-9.704c-.227-.577.42-1.498.663-2.26.815.263 2.13.305 2.362.827 1.492 3.365 2.747 6.835 4.034 10.667z" />
	<path fill="#0277BD"
		d="M47.194 116.896c.134-4.291.649-8.525 1.306-12.736.063-.402 1.137-1.035 1.535-.909.684.216 1.78 1.055 1.707 1.445-.767 4.071-1.718 8.108-2.702 12.134-.036.15-.932.09-1.846.066z" />
	<path fill="#0277BC"
		d="M79.315 103.378c2.205 1.23 5.351 10.41 4.551 12.37-.2.488-.84 1.097-1.295 1.112-.737.024-2.095-.313-2.141-.645-.59-4.189-.993-8.404-1.115-12.837z" />
	<path fill="#0276BD"
		d="M33.726 20.393c1.44 3.89 2.683 7.455 3.925 11.02l-2.726 1.012-5.748-13.505 1.534-.995c.939.714 1.878 1.429 3.015 2.468zM16.79 102.93c-.83-.518-1.775-1.356-1.658-1.55 2.244-3.697 4.612-7.32 7.702-10.491 1.552 5.818-2.658 8.616-6.045 12.04zM108.71 98.221c-1.197-2.364-2.126-4.463-3.055-6.563l2.06-1.174 8.23 11.556c-4.965 1.962-5.24-1.946-7.234-3.819z" />
	<path fill="#FAFCFE"
		d="M25.948 84.075c-5.264-5.563-10.35-10.82-15.135-16.338-.882-1.018-1.325-3.678-.644-4.604 12.535-17.028 27.828-30.02 49.861-32.43 13.875-1.52 26.701 2.144 37.547 10.508 7.945 6.128 14.649 13.891 21.69 21.135.878.904 1.19 3.659.487 4.604-12.501 16.797-27.635 29.806-49.441 32.3-16.969 1.942-31.25-4.488-44.365-15.175m13.001-28.874c-.686.504-1.755.868-2 1.535-3.88 10.586.575 24.174 10.236 31.533 9.955 7.583 23.525 8.092 33.538 1.053-.925-.542-1.75-1.025-2.74-2.088-.376-.713-.752-1.425-1.123-2.96-.107-.816-.214-1.631-.038-3.095 2.017-1.813 4.034-3.625 6.691-5.225.442.061.884.123 1.86.582.847.207 1.694.415 2.659 1.301l1.587 2.343c7.151-10.373 5.884-25.127-2.767-34.767-8.491-9.46-22.787-12.515-33.45-6.808 1.696.574 3.063 1.037 4.521 2.147.916.9 1.831 1.798 2.848 3.243.115.356.229.71.385 1.83.254 2.04.508 4.081.412 6.667-.206.831-.412 1.662-1.123 2.916-1.83 1.889-3.661 3.777-6.12 5.66-.772.314-1.544.627-3.21.915-2.076-.177-4.151-.354-6.58-.763-.406-.152-.813-.303-1.596-.98-1.005-.784-2.01-1.568-3.053-2.721 0 0-.047-.368.04-.851-.05-.36-.248-.601-.977-1.467z" />
	<path fill="#86D5F9"
		d="M61.919 51.947c-.255-2.04-.509-4.082-.352-6.513 13.189-.45 21.048 4.896 22.84 16.165.718 4.519-.952 9.417-1.535 14.142a1688.378 1688.378 0 00-6.517 5.88c-5.434 1.242-10.634 3.388-15.32 2.573-11.122-1.933-15.579-9.01-16.147-22.742 2.076.177 4.151.354 6.632.977.377 1.441.27 2.44.335 3.43.483 7.34 6.202 12.513 13.582 12.323 7.245-.187 12.748-5.89 12.741-13.204-.008-8.54-6.107-13.427-16.26-13.03z" />
	<path fill="#445B67"
		d="M54.953 61.073c1.83-1.888 3.662-3.776 6.12-5.91 9.253-1.53 15.568 3.75 14.35 11.23-.987 6.065-6.273 9.968-12.128 8.953-6.594-1.142-9.765-6.568-8.342-14.273z" />
	<path fill="#82D2F7"
		d="M76.855 85.096c.376.713.752 1.425.919 2.673-1.726 1.198-3.191 2.036-4.766 2.497-10.533 3.082-19.909.83-27.327-7.193-6.579-7.114-9.358-15.53-5.756-25.185 1.005.784 2.01 1.568 2.988 2.978-3.639 14.238 10.72 29.042 24.866 26.646 3.074-.521 6.053-1.596 9.076-2.416z" />
	<path fill="#83D2F7"
		d="M60.67 43.449c-.916-.899-1.831-1.798-2.538-3.333 8.07-3.04 15.325-1.403 21.957 3.038 11.334 7.591 15.054 24.131 7.825 34.004-.847-.207-1.694-.415-2.633-1.169 4.694-12.72 2.874-21.26-7.137-29.185-4.968-3.933-10.862-6.375-17.474-3.355z" />
	<path fill="#1281C2"
		d="M87.973 77.498c7.17-10.213 3.45-26.753-7.884-34.344-6.632-4.441-13.887-6.078-22.003-3.362-1.621-.15-2.988-.613-4.683-1.187 10.662-5.707 24.958-2.652 33.449 6.808 8.651 9.64 9.918 24.394 2.767 34.767-.574-.847-1.08-1.595-1.646-2.682zM39.905 57.703c-3.582 9.84-.803 18.256 5.776 25.37 7.418 8.023 16.794 10.275 27.327 7.193 1.575-.46 3.04-1.299 4.85-2.207 1.116.238 1.94.721 2.865 1.263-10.013 7.04-23.583 6.53-33.538-1.053-9.661-7.36-14.115-20.947-10.236-31.533.245-.667 1.314-1.03 2.197-.935.258.918.424 1.168.693 1.35 0 0 .047.368.066.552z" />
	<path fill="#0C7ABC"
		d="M54.64 61.07c-1.11 7.708 2.06 13.134 8.655 14.276 5.855 1.015 11.141-2.888 12.129-8.954 1.217-7.479-5.098-12.759-14.1-11.441-.168-.797.038-1.628.42-2.731 10.327-.67 16.426 4.219 16.434 12.758.007 7.314-5.496 13.017-12.74 13.204-7.38.19-13.1-4.984-13.583-12.324-.066-.988.042-1.988.112-3.416.814-.747 1.586-1.06 2.672-1.371z" />
	<path fill="#B0E4FC"
		d="M76.857 84.685c-3.025 1.23-6.004 2.306-9.078 2.827-14.146 2.396-28.505-12.408-24.678-26.384.621-.211 1.028-.06 1.61.208.745 13.848 5.202 20.925 16.325 22.858 4.685.815 9.885-1.33 15.177-2.249.433.698.54 1.513.644 2.74zM60.72 43.722c6.562-3.293 12.456-.851 17.424 3.082 10.01 7.926 11.831 16.465 6.87 28.987-.617.286-1.059.224-1.821.057.262-4.832 1.932-9.73 1.214-14.249-1.792-11.27-9.651-16.616-22.861-16.546-.546-.347-.66-.702-.825-1.33z" />
	<path fill="#82D2F7" d="M39.883 56.91c-.313.06-.479-.19-.544-.737.34-.106.537.135.544.736z" />
</svg>