<svg xmlns="http://www.w3.org/2000/svg" width="60px" height="60px" viewBox="0 0 128 128">
    <path fill="#7DE2F8"
        d="M109.762 113.735c-9.374 9.273-23.039 11.817-34.855 6.703-11.483-4.97-19.447-16.335-17.507-29.192 1.246-8.257 5.623-16.353 9.912-23.76 5.168-8.925 11.79-17.003 17.656-25.534 1.883-2.738 3.237-2.695 5.073 0 7.006 10.286 14.795 20.108 21.005 30.848 8.58 14.838 10.82 25.49-1.284 40.935M88.448 93.948c4.104-4.116 8.32-8.13 12.225-12.428.848-.933.58-2.882.825-4.363-1.408.296-3.274.116-4.15.962-7.289 7.034-14.465 14.19-21.472 21.504-.93.97-.724 3.03-1.045 4.586 1.551-.438 3.467-.447 4.583-1.397 3.026-2.575 5.712-5.549 9.034-8.864m8.636 9.302c-1.862-1.038-3.719-2.839-5.587-2.85-1.289-.008-3.269 2.284-3.68 3.874-.344 1.326.762 3.57 1.937 4.58 1 .86 3.69 1.274 4.436.586 1.48-1.362 2.135-3.621 2.894-6.19m-9.985-26.57c-.742-3.235-3.08-4.63-5.873-3.488-1.508.617-3.212 3.163-3.084 4.692.126 1.507 2.253 3.666 3.86 4.053 3.053.735 4.936-1.195 5.097-5.258z" />
    <path fill="#7CE2F8"
        d="M64.49 29.997c1.098 7.368.967 13.997-6.227 18.283-4.857 2.894-13.936 2.37-18.864-1.506-3.834-3.016-6.283-11.914-3.805-16.72 4.12-7.989 8.856-15.66 13.332-23.466l1.869-.133c4.465 7.748 8.93 15.495 13.695 23.542zM31.753 74.368c1.942 4.298 3.572 8.326 5.44 12.24 2.452 5.137-.506 10.97-4.251 13.884-4.523 3.52-11.403 3.462-15.937-.04-3.495-2.698-6.728-8.847-4.147-13.909C16.565 79.27 20.055 71.886 24.3 63.19c3.062 4.587 5.155 7.723 7.452 11.18z" />
    <path fill="#F8F2F3"
        d="M88.198 94.198c-3.072 3.065-5.758 6.04-8.784 8.614-1.116.95-3.032.959-4.583 1.397.32-1.556.115-3.615 1.045-4.586 7.007-7.314 14.183-14.47 21.472-21.504.876-.846 2.742-.666 4.15-.962-.246 1.481.023 3.43-.825 4.363-3.905 4.297-8.12 8.312-12.475 12.678z" />
    <path fill="#F7F2F3"
        d="M97.202 103.59c-.877 2.229-1.532 4.488-3.012 5.85-.746.688-3.436.274-4.436-.585-1.175-1.01-2.281-3.255-1.938-4.58.412-1.591 2.392-3.883 3.681-3.875 1.868.011 3.725 1.812 5.705 3.19z" />
    <path fill="#FDF3F3"
        d="M87.128 77.089c-.19 3.653-2.073 5.583-5.126 4.848-1.607-.387-3.734-2.546-3.86-4.053-.128-1.529 1.576-4.075 3.084-4.692 2.793-1.141 5.131.253 5.902 3.897z" />
</svg>