<?xml version="1.0" encoding="utf-8"?>
<!-- Generator: Adobe Illustrator 27.5.0, SVG Export Plug-In . SVG Version: 6.00 Build 0)  -->
<svg version="1.1" id="Capa_1" xmlns="http://www.w3.org/2000/svg" xmlns:xlink="http://www.w3.org/1999/xlink" x="0px" y="0px"
	 viewBox="0 0 2122 2122" style="enable-background:new 0 0 2122 2122;" xml:space="preserve">
<g>
	<g>
		<rect x="659.55" y="903.027" style="fill:#BE8460;" width="937.941" height="127.424"/>
		<polygon style="fill:#AE7958;" points="1529.935,1572.439 727.116,1572.439 679.77,1030.452 1577.281,1030.452 		"/>
		<polygon style="fill:#9B6C4E;" points="727.594,1572.439 419.377,1572.439 370.5,1030.452 679.77,1030.452 		"/>
		<rect x="346.033" y="903.027" style="fill:#B57E5C;" width="313.517" height="127.424"/>
		<g>
			<rect x="659.55" y="884.172" style="fill:#65442E;" width="937.941" height="18.855"/>
			<rect x="346.033" y="884.172" style="fill:#65442E;" width="313.517" height="18.855"/>
		</g>
		<g>
			<path style="fill:#AE7958;" d="M659.55,884.172H346.033c0,0-32.263-0.312-32.263-35.147c0-34.845,32.263-34.679,32.263-34.679
				H659.55V884.172z"/>
			<path style="fill:#C9926F;" d="M1597.491,884.172H659.55c0,0-30.255-0.146-30.255-38.382c0-38.236,30.255-31.444,30.255-31.444
				h937.941c0,0,31.035,0.272,31.035,34.913C1628.526,883.89,1597.491,884.172,1597.491,884.172z"/>
		</g>
		<g>
			<rect x="739.14" y="454.447" style="fill:#C49577;" width="22.996" height="48.126"/>
			<g>
				<path style="fill:#BE8460;" d="M1181.953,454.447h-106.308v504.609h0.058c-0.361,2.514-0.614,5.067-0.614,7.688
					c0,29.505,23.922,53.427,53.427,53.427c29.515,0,53.437-23.922,53.437-53.427c0-2.621-0.253-5.174-0.614-7.688h0.614V454.447z"
					/>
				<path style="fill:#AE7958;" d="M1149.427,966.744c0,11.547-9.364,20.911-20.911,20.911c-11.547,0-20.911-9.364-20.911-20.911
					c0-11.557,9.364-20.92,20.911-20.92C1140.063,945.824,1149.427,955.188,1149.427,966.744z"/>
			</g>
			<path style="fill:#9B6C4E;" d="M1075.089,966.744c0-2.621,0.253-5.174,0.614-7.688h-0.058V454.447H739.14v359.9h22.996V484.342
				h290.511v474.714h0.068c-0.371,2.514-0.624,5.067-0.624,7.688c0,29.505,23.922,53.427,53.437,53.427h22.986
				C1099.011,1020.171,1075.089,996.249,1075.089,966.744z"/>
			<rect x="762.136" y="484.342" style="fill:#B57E5C;" width="106.299" height="330.004"/>
		</g>
	</g>
	<g>
		<path style="fill:#04000E;" d="M911.075,1406.652c0,0,506.675,46.518,629.052,74.28
			c125.982,28.579,246.731,55.804,246.731,122.854c0,85.31-36.345,81.061-111.356,5.535
			c-51.322-51.663-164.286-95.19-334.185-113.744c-169.899-18.563-423.548-47.424-423.548-47.424L911.075,1406.652z"/>
		<path style="fill:#1A1827;" d="M1786.858,1406.652c0,0-506.675,46.518-629.042,74.28
			c-125.992,28.579-246.741,55.804-246.741,122.854c0,85.31,36.346,81.061,111.356,5.535
			c51.312-51.663,164.285-95.19,334.184-113.744c169.899-18.563,423.548-47.424,423.548-47.424L1786.858,1406.652z"/>
		<path style="fill:#060113;" d="M1400.241,1463.334c0-33.978-6.558-44.151-6.558-44.151s-10.183,8.214-44.716,8.214
			s-44.706-8.214-44.706-8.214s-6.568,10.173-6.568,44.151c0,33.978-11.196,99.614,0,97.88
			c11.196-1.735,13.232-37.057,13.232-37.057c1.725-43.342,18.124-49.802,38.041-49.802c19.917,0,36.326,6.46,38.041,49.802
			c0,0,2.036,35.323,13.233,37.057C1411.436,1562.948,1400.241,1497.312,1400.241,1463.334z"/>
		<g>
			<path style="fill:#060113;" d="M924.912,1396.119H901.76c-6.285,0-11.371,5.096-11.371,11.381v39.805
				c0,6.285,5.086,11.381,11.371,11.381h23.152V1396.119z"/>
			<path style="fill:#060113;" d="M1796.173,1396.119h-27.362v62.567h27.362c6.285,0,11.371-5.096,11.371-11.381V1407.5
				C1807.545,1401.215,1802.459,1396.119,1796.173,1396.119z"/>
		</g>
		<g>
			<path style="fill:#4A465B;" d="M1285.932,1462.292c0,62.002-31.288,164.169-136.36,164.169h-16.088
				c-171.798,0-194.005-87.259-194.005-190.468l0,0c0-25.364,17.354-71.298,115.419-71.298h57.812
				C1237.825,1364.695,1285.932,1400.299,1285.932,1462.292z"/>
			<path style="opacity:0.11;fill:#FFFFFF;" d="M1207.696,1458.608c0,44.287-22.363,117.28-97.422,117.28h-11.489
				c-122.737,0-138.6-62.333-138.6-136.067l0,0c0-18.124,12.395-50.932,82.455-50.932h41.305
				C1173.329,1388.889,1207.696,1414.321,1207.696,1458.608z"/>
			<path style="fill:#BCB9BA;" d="M1112.711,1364.695h-57.812c-98.065,0-115.419,45.934-115.419,71.298
				c0,103.21,22.207,190.468,194.005,190.468h16.088c105.071,0,136.36-102.167,136.36-164.169
				C1285.932,1400.299,1237.825,1364.695,1112.711,1364.695z M1135.522,1605.393h-14.46c-154.386,0-174.342-78.401-174.342-171.155
				c0-22.792,15.591-64.068,103.716-64.068h51.956c112.428,0,155.663,31.99,155.663,87.697
				C1258.054,1513.584,1229.932,1605.393,1135.522,1605.393z"/>
			<path style="opacity:0.11;fill:#FFFFFF;" d="M1100.949,1434.764c1.52-3.859,2.154-7.844,1.15-11.907
				c-6.792-27.508-60.94-20.521-80.389-16.439c-48.029,10.105-62.158,70.606-32.818,108.014
				c19.722,25.15,54.937-4.648,68.569-20.073c10.952-12.385,20.648-24.916,29.817-38.665
				C1091.371,1449.556,1097.919,1442.423,1100.949,1434.764z"/>
			<path style="fill:#4A465B;" d="M1412.002,1462.292c0,62.002,31.298,164.169,136.359,164.169h16.097
				c171.798,0,193.995-87.259,193.995-190.468l0,0c0-25.364-17.354-71.298-115.409-71.298h-57.821
				C1460.109,1364.695,1412.002,1400.299,1412.002,1462.292z"/>
			<path style="opacity:0.11;fill:#FFFFFF;" d="M1436.557,1458.608c0,44.287,22.353,117.28,97.422,117.28h11.488
				c122.737,0,138.601-62.333,138.601-136.067l0,0c0-18.124-12.395-50.932-82.455-50.932h-41.305
				C1470.924,1388.889,1436.557,1414.321,1436.557,1458.608z"/>
			<path style="fill:#BCB9BA;" d="M1412.002,1462.292c0,62.002,31.298,164.169,136.359,164.169h16.097
				c171.798,0,193.995-87.259,193.995-190.468c0-25.364-17.354-71.298-115.409-71.298h-57.821
				C1460.109,1364.695,1412.002,1400.299,1412.002,1462.292z M1420.099,1457.867c0-55.707,43.225-87.697,155.663-87.697h51.946
				c88.126,0,103.717,41.276,103.717,64.068c0,92.754-19.947,171.155-174.332,171.155h-14.46
				C1448.211,1605.393,1420.099,1513.584,1420.099,1457.867z"/>
			<path style="opacity:0.11;fill:#FFFFFF;" d="M1571.503,1434.764c1.51-3.859,2.153-7.844,1.15-11.907
				c-6.792-27.508-60.94-20.521-80.389-16.439c-48.029,10.105-62.158,70.606-32.818,108.014
				c19.722,25.15,54.937-4.648,68.569-20.073c10.943-12.385,20.648-24.916,29.827-38.665
				C1561.925,1449.556,1568.473,1442.423,1571.503,1434.764z"/>
		</g>
		<g>
			<path style="fill:#1A1827;" d="M1112.711,1345.82h-66.163c-112.203,0-132.052,52.55-132.052,81.578
				c0,118.099,25.403,217.937,221.991,217.937h18.406c120.223,0,156.033-116.91,156.033-187.838
				C1310.926,1386.55,1255.872,1345.82,1112.711,1345.82z M1149.573,1626.461h-16.088c-171.798,0-194.005-87.259-194.005-190.468
				c0-25.364,17.354-71.298,115.419-71.298h57.812c125.114,0,173.221,35.605,173.221,97.597
				C1285.932,1524.293,1254.644,1626.461,1149.573,1626.461z"/>
			<path style="fill:#1A1827;" d="M1651.376,1345.82h-66.153c-143.161,0-198.215,40.73-198.215,111.677
				c0,70.928,35.81,187.838,156.033,187.838h18.416c196.578,0,221.981-99.838,221.981-217.937
				C1783.438,1398.37,1763.589,1345.82,1651.376,1345.82z M1564.458,1626.461h-16.097c-105.061,0-136.359-102.167-136.359-164.169
				c0-61.992,48.107-97.597,173.221-97.597h57.821c98.055,0,115.409,45.934,115.409,71.298
				C1758.454,1539.202,1736.257,1626.461,1564.458,1626.461z"/>
		</g>
		<g>
			<g>
				<path style="fill:#9C9B9C;" d="M939.48,1435.992c0-25.364,17.354-71.298,115.419-71.298h57.812
					c63.892,0,107.662,9.305,135.229,26.65c-26.806-20.794-72.76-32.01-142.975-32.01h-57.812
					c-98.065,0-115.419,45.934-115.419,71.298c0,66.854,9.344,126.995,62.586,161.08
					C947.899,1556.897,939.48,1499.465,939.48,1435.992z"/>
				<path style="fill:#9C9B9C;" d="M1267.934,1376.611c24.439,18.65,35.245,44.122,35.245,75.517
					c0,70.938-35.809,187.847-156.023,187.847h-18.417c-69.621,0-117.748-12.531-150.907-33.958
					c33.267,24.682,83.409,39.318,158.654,39.318h18.406c120.223,0,156.033-116.91,156.033-187.838
					C1310.926,1422.964,1297.829,1395.612,1267.934,1376.611z"/>
			</g>
			<g>
				<path style="fill:#9C9B9C;" d="M1412.002,1462.292c0-61.992,48.107-97.597,173.221-97.597h57.821
					c39.698,0,66.163,7.532,83.615,18.182c-17.014-13.389-45.271-23.542-91.361-23.542h-57.812
					c-125.114,0-173.231,35.595-173.231,97.588c0,45.719,17.023,113.266,68.082,145.597
					C1427.29,1568.532,1412.002,1505.604,1412.002,1462.292z"/>
				<path style="fill:#9C9B9C;" d="M1747.628,1366.964c22.383,17.345,28.073,39.561,28.073,55.074
					c0,118.099-25.403,217.937-221.991,217.937h-18.416c-31.854,0-57.783-8.214-78.684-21.603
					c22.148,16.526,50.514,26.962,86.43,26.962h18.416c196.578,0,221.981-99.838,221.981-217.937
					C1783.438,1410.239,1776.49,1384.855,1747.628,1366.964z"/>
			</g>
		</g>
		<g style="opacity:0.11;">
			<g>
				<path style="fill:#FFFFFF;" d="M1263.403,1403.485c15.532,15.444,22.529,35.206,22.529,58.806
					c0,62.002-31.288,164.169-136.36,164.169h-16.088c-67.585,0-112.009-13.515-141.046-36.18
					c28.59,27.206,75.03,43.751,149.845,43.751h16.088c105.071,0,136.359-102.167,136.359-164.159
					C1294.731,1442.209,1285.114,1419.826,1263.403,1403.485z"/>
				<path style="fill:#FFFFFF;" d="M923.285,1434.988c0-29.037,19.859-81.588,132.072-81.588h66.153
					c79.727,0,132.091,12.648,162.873,36.092c-29.115-28.288-83.751-43.673-171.672-43.673h-66.163
					c-112.203,0-132.052,52.55-132.052,81.578c0,71.337,9.286,135.989,59.946,176.028
					C931.48,1563.075,923.285,1501.97,923.285,1434.988z"/>
			</g>
			<g>
				<path style="fill:#FFFFFF;" d="M1573.247,1634.032c171.808,0,194.005-87.249,194.005-190.459
					c0-13.915-5.262-34.007-26.163-49.315c13.632,13.925,17.364,30.022,17.364,41.734c0,103.21-22.197,190.468-193.995,190.468
					h-16.097c-32.467,0-57.88-9.774-77.524-25.081c20.647,19.595,48.769,32.653,86.323,32.653H1573.247z"/>
				<path style="fill:#FFFFFF;" d="M1395.816,1465.068c0-70.937,55.045-111.668,198.206-111.668h66.153
					c51.332,0,83.293,11.001,102.908,25.705c-18.309-18.348-51.868-33.286-111.707-33.286h-66.153
					c-143.161,0-198.215,40.73-198.215,111.677c0,48.838,16.994,119.482,66.816,158.751
					C1410.774,1575.966,1395.816,1510.914,1395.816,1465.068z"/>
			</g>
		</g>
	</g>
</g>
</svg>
