<svg xmlns="http://www.w3.org/2000/svg" width="60" height="60" viewBox="0 0 128 128">
  <path fill="#F6CB43"
    d="M34.903 94.951c.735-12.441 6.793-21.123 18.972-25.792 6.364.731 12.32.483 17.737 2.07 10.435 3.058 18.138 13.318 18.531 23.722h-55.24z" />
  <path fill="#FAB13C"
    d="M34.441 94.973c18.87-.022 37.277-.022 55.702-.022-.393-10.404-8.096-20.664-18.531-23.721-5.418-1.588-11.373-1.34-17.373-2.127 18.178-7.165 38.921 3.182 41.169 25.774h18.998c.982 2.61 1.145 4.16-2.306 4.154-32.135-.056-64.27-.033-96.655-.033-.819-2.589-.8-4.125 2.543-4.035 5.327.144 10.66.034 16.453.01z" />
  <path fill="#FAB03C"
    d="M75 107H25.402c-.77-2.67-.634-4.056 2.645-4.045 25.439.084 50.878.046 76.553.046.766 2.665.64 4.098-2.645 4.046C93.139 106.907 84.319 107 75 107zM61 37.883v-6.71l-6.606-.379 10.49-14.76c3.66 4.975 6.928 9.417 10.695 14.54l-6.485.674v9.934c-2.948-1.517-6.843 2.687-8.093-3.3zM70 111h20.588c.807 2.72.612 4.074-2.657 4.05-15.294-.115-30.59 0-45.882-.152-1.193-.012-2.37-1.457-3.555-2.236L39.21 111H70z" />
  <path fill="#FAAF3B"
    d="M81.949 62.261c1.342-2.475 2.374-4.725 3.874-6.603 1.06-1.326 2.751-2.146 4.711-3.601.683 7.801-4.407 15.703-9.729 15.644.359-1.754.696-3.405 1.144-5.44zM99.811 73.737c2.924-1.306 5.555-2.352 8.342-3.46 1.064 5.504-6.95 10.982-13.798 10.365-1.858-4.99 3.257-4.585 5.456-6.905z" />
  <path fill="#FAB03C"
    d="M48.662 67.572c-1.787-.48-3.932-.89-4.732-2.151-2.252-3.556-3.95-7.462-6.044-11.577 5.719-.941 11.003 6.444 10.776 13.728z" />
  <path fill="#FAAF3B"
    d="M27.693 78.297c-3.058-1.767-6.9-2.263-6.758-6.73 6.178-1.006 14.585 4.03 15.068 10.184-3.035-1.222-5.516-2.221-8.31-3.454z" />
  <path fill="#FAB03C"
    d="M65.928 47.075c.665 4.641 1.014 9.23.938 13.81-.015.91-1.664 1.794-2.56 2.689-.432-.24-.865-.478-1.298-.717 0-4.592-.107-9.19.11-13.771.034-.725 1.528-1.38 2.81-2.011z" />
</svg>