<svg xmlns="http://www.w3.org/2000/svg" width="60px" height="60px" viewBox="0 0 128 128">
  <path fill="#FAB03C"
    d="M34.895 62.94c.604-12.106 6.658-20.522 18.095-25.575 6.533.632 12.647.211 18.22 1.75 10.725 2.959 18.637 13.382 18.902 23.825H34.895z" />
  <path fill="#F6CA43"
    d="M34.433 62.966c18.865-.026 37.268-.026 55.679-.026-.265-10.443-8.177-20.866-18.901-23.826-5.574-1.538-11.688-1.117-17.867-1.764 18.6-7.99 40.434 3.492 41.822 25.65 5.54 0 11.145-.134 16.735.104 1.24.053 2.425 1.42 3.636 2.183l-.672 1.373c-.956.113-1.913.325-2.869.325-30.963.018-61.927.017-92.89.013-2.289 0-5.183.663-3.669-4.006 5.977 0 12.256 0 18.996-.026z" />
  <path fill="#F6CB43"
    d="M35.039 71c22.298 0 44.104.003 65.91-.004 2.344 0 5.108-.526 3.7 3.731H25.318c-.69-2.413-.572-4.02 2.739-3.758 2.15.17 4.325.031 6.982.031zM58.738 105.245c-1.452-1.955-2.64-3.648-4.243-5.93l6.201-.488v-9.458h8.068v9.366l6.811.522-10.572 14.749c-2.329-3.298-4.164-5.898-6.265-8.76zM88.687 82.995C72.08 83 55.943 83 39.58 83c-1.238-2.907-.66-4.072 2.733-4.048 15.968.111 31.937.05 49.468.05-1.186 1.804-1.905 2.897-3.094 3.994zM30.769 53.026c1.189 1.408 1.95 2.794 2.873 4.477-9.098 1.006-11.312-.086-11.428-5.7 2.784.412 5.455.807 8.555 1.223zM107.268 56.21c-2.68.796-5.04 1.535-7.432 1.659-.896.046-1.865-1.34-2.801-2.074.74-.922 1.325-2.405 2.25-2.66 2.615-.723 5.368-.943 8.68-1.457-.167 1.808-.28 3.02-.697 4.533zM75.102 22.035c3.173 1.983 3.303 9.593.43 10.558-.85.285-3.419-1.479-3.33-1.966.524-2.912 1.597-5.725 2.9-8.592zM53.212 31.516c-.519-2.282-1.187-4.203-1.092-6.085.059-1.16 1.28-2.263 1.98-3.391.87.765 2.09 1.369 2.53 2.33.722 1.579 1.242 3.378 1.306 5.104.132 3.581-1.418 4.65-4.724 2.042zM33.034 34.024c3.183-.947 8.7 2.447 8.886 5.168.048.709-.333 1.788-.87 2.112-.726.438-2.302.743-2.631.356-1.946-2.292-3.636-4.801-5.385-7.636z" />
  <path fill="#F6CA43"
    d="M91.867 34.627c1.655-.838 3.055-1.384 4.797-2.063 1.125 5.33-2.929 6.788-5.275 9.183-.346.352-2.164-.029-2.536-.583-.52-.777-.756-2.28-.333-3.032.705-1.254 2.029-2.16 3.347-3.505z" />
</svg>