<svg xmlns="http://www.w3.org/2000/svg" width="24" height="24" viewBox="0 0 128 128">
	<path fill="#fff"
		d="M62.428 129c-.427-3.901-.635-7.82-.298-11.693.1-1.166 1.713-2.202 2.633-3.297 1.078 1.104 2.995 2.15 3.078 3.323.252 3.592-.201 7.234-.11 11.262-1.445.405-3.16.405-5.303.405zM129 67.572c-3.901.427-7.82.635-11.692.299-1.167-.102-2.203-1.714-3.298-2.634 1.104-1.078 2.15-2.995 3.323-3.078 3.592-.252 7.234.2 11.262.11.405 1.445.405 3.16.405 5.303zM1 62.428c3.901-.427 7.82-.635 11.693-.298 1.166.1 2.202 1.713 3.297 2.633-1.104 1.078-2.15 2.995-3.323 3.078-3.592.252-7.234-.2-11.262-.11C1 66.286 1 64.57 1 62.428zM67.572 1c.427 3.901.635 7.82.298 11.693-.1 1.166-1.713 2.202-2.633 3.297-1.078-1.104-2.995-2.15-3.078-3.323-.252-3.592.2-7.234.11-11.262C63.714 1 65.43 1 67.572 1z" />
	<path fill="#fff"
		d="M22.195 58.573c3.381-15.44 11.463-26.682 25.727-33.004 14.936-6.619 33.33-3.82 45.53 7.317 10.212 9.323 15.162 20.82 14.47 34.459-.999 19.714-15.518 35.988-34.587 39.76-20.634 4.08-40.453-7.41-48.048-25.485-3.033-7.22-3.69-14.864-3.092-23.047m16.768-20.117c-17.043 17.188-14.705 44.22 5.275 57.609 12.09 8.101 25.353 8.688 37.962 2.038 13.116-6.919 20.288-18.204 19.927-33.74-.346-14.896-8.722-28.732-22.367-33.733-14.586-5.345-28.503-4.12-40.797 7.826z" />
	<path fill="#fff"
		d="M38.726 13.323c1.464 3.135 2.706 5.95 4.003 8.89-4.232 1.58-6.273.52-7.597-2.593-.752-1.768-2.247-3.258-2.804-5.059-.491-1.589-.146-3.436-.17-5.17 1.837.621 3.708 1.157 5.483 1.92.447.192.584 1.108 1.085 2.012zM97.76 14.608c-1.367 2.27-2.27 4.462-3.795 6.063-1.294 1.359-3.305 2.034-5.61 3.365-1.026-6.938 2.821-10.41 5.574-14.22.515-.714 2.64-.265 4.021-.353.002 1.604.003 3.208-.19 5.145z" />
	<path fill="#fff"
		d="M20.245 41.997c-3.526-1.664-6.832-3.063-9.648-5.13-1.01-.742-.836-3.096-1.202-4.714 1.42-.067 3.033-.6 4.223-.11a46.892 46.892 0 018.09 4.31c2.352 1.566 1.731 4.325-1.463 5.644z" />
	<path fill="#fff"
		d="M109.568 35.78c2.595-1.455 4.76-2.924 7.127-3.901 1.074-.444 3.362-.329 3.667.266.542 1.06.53 3.413-.189 3.936-3.812 2.774-7.317 6.566-14.21 5.61 1.31-2.303 2.283-4.014 3.605-5.912z" />
	<path fill="#fff"
		d="M94.67 110.216c1.307 2.289 2.544 4.21 3.327 6.3.427 1.143.085 2.573.09 3.873-1.496-.11-3.822.345-4.346-.425-2.531-3.722-4.577-7.774-6.796-11.709l2.064-1.953c1.801 1.206 3.602 2.412 5.662 3.914z" />
	<path fill="#fff"
		d="M31.67 116.792c1.68-3.005 2.783-5.973 4.658-8.328.946-1.188 3.289-1.264 5.365-1.965 1.064 6.384-2.896 9.797-5.56 13.654-.491.712-2.786 1.043-3.49.523-.837-.62-.857-2.347-.973-3.884zM14.02 90.994c2.881-1.289 5.382-2.52 8.14-3.88 1.48 4.07 1.038 6.28-2.358 7.616-1.927.759-3.515 2.454-5.464 3.055-1.53.472-3.378-.087-5.085-.189.609-1.71 1.043-3.516 1.904-5.087.396-.723 1.63-.986 2.863-1.515zM118.008 92.003c1.113 2 1.844 3.941 2.575 5.883-1.879-.138-4.304.416-5.53-.551-3.055-2.412-9.362-2.164-7.857-8.843 4.47-1.983 7.081 1.902 10.812 3.51z" />
	<path fill="#fff"
		d="M62.022 54.454c.012 5.282.127 10.117-.021 14.945-.193 6.278-4.21 9.76-10.857 9.66-6.282-.094-10.093-3.689-10.182-9.74-.071-4.83-.17-9.672.1-14.49.071-1.253 1.479-2.432 2.272-3.645.862 1.229 2.377 2.411 2.468 3.695.32 4.477.184 8.99.152 13.487-.026 3.656 1.605 5.616 5.371 5.667 3.988.054 5.76-1.926 5.716-5.846-.05-4.498-.133-9.006.14-13.489.073-1.188 1.404-2.299 2.157-3.445.89.917 1.78 1.834 2.684 3.2z" />
	<path fill="#fff"
		d="M77.673 67.508c.726-.083 1.706-.315 1.894-.833 1.526-4.219 2.735-8.56 4.433-12.703.486-1.183 2.26-1.84 3.442-2.737.399 1.43 1.449 3.055 1.09 4.26-2.09 7.004-4.417 13.943-6.916 20.813-.405 1.115-2.076 2.463-3.146 2.449-1.079-.015-2.687-1.383-3.114-2.516a438.712 438.712 0 01-7.372-21.179c-.337-1.053.597-2.512.943-3.783 1.252.78 3.16 1.278 3.64 2.391 1.906 4.414 3.366 9.02 5.106 13.838z" />
</svg>