<?xml version="1.0" encoding="utf-8"?>
<!-- Generator: Adobe Illustrator 27.5.0, SVG Export Plug-In . SVG Version: 6.00 Build 0)  -->
<svg version="1.1" id="Capa_1" xmlns="http://www.w3.org/2000/svg" xmlns:xlink="http://www.w3.org/1999/xlink" x="0px" y="0px"
	 viewBox="0 0 2122 2122" style="enable-background:new 0 0 2122 2122;" xml:space="preserve">
<g>
	<path style="fill:#356133;" d="M1943.468,883.137c-0.279-0.554-0.651-1.065-0.96-1.604
		c-25.491-44.379-152.514-41.548-161.365-41.296c-39.999-81.228-97.008-149.803-168.021-208.707l-10.596-35.176
		c9.494-9.697,15.229-18.115,16.994-24.434c12.245-43.854,10.034-76.263,6.17-95.565c0.215-2.562,0.364-5.132,0.364-7.715
		c0-124.728-253.161-225.839-565.451-225.839c-301.487,0-547.834,94.241-564.519,212.987h-0.094c0,0-20.763,41.771,0,116.133
		c1.737,6.221,7.888,14.453,18.113,23.959c-2.036,10.552-4.067,20.184-6.002,28.801c-0.648,2.886-1.285,5.659-1.907,8.315
		c-0.008,0.033-0.015,0.063-0.023,0.096c-70.271,58.704-127.249,129.607-166.911,210.351l1.441-3.189
		c0,0-135.474-4.707-161.889,41.28c-0.309,0.539-0.68,1.051-0.96,1.604c-20.051,39.72,10.328,187.97,35.115,198.297
		c9.289,3.87,34.871,3.656,64.406,0.253c-0.693,12.331-1.051,24.787-1.051,37.368c0,9.935,0.2,19.809,0.511,29.646
		c1.731,54.616,8.276,107.657,19.728,158.48l-0.044,0.022c0.389,1.728,0.815,3.439,1.215,5.162c0.49,2.104,0.978,4.21,1.485,6.307
		c0.835,3.46,1.705,6.904,2.588,10.342c0.463,1.811,0.913,3.629,1.39,5.434c1.359,5.142,2.761,10.264,4.226,15.356
		c0.235,0.816,0.489,1.622,0.726,2.437c1.264,4.339,2.56,8.661,3.9,12.962c0.584,1.873,1.195,3.733,1.793,5.599
		c1.041,3.246,2.094,6.487,3.177,9.711c0.686,2.039,1.387,4.07,2.09,6.099c1.07,3.088,2.161,6.164,3.271,9.23
		c0.724,1.995,1.446,3.99,2.187,5.976c1.201,3.223,2.435,6.428,3.681,9.627c0.688,1.764,1.361,3.536,2.06,5.292
		c1.789,4.477,3.619,8.931,5.496,13.359c0.317,0.749,0.635,1.497,0.955,2.245c1.913,4.472,3.876,8.916,5.883,13.335
		c0.77,1.697,1.57,3.377,2.353,5.065c1.443,3.106,2.895,6.205,4.384,9.284c0.909,1.882,1.835,3.755,2.762,5.627
		c1.44,2.91,2.9,5.806,4.382,8.691c0.951,1.853,1.905,3.703,2.875,5.546c1.58,3.005,3.194,5.991,4.821,8.969
		c0.899,1.646,1.786,3.301,2.699,4.939c2.181,3.911,4.408,7.794,6.669,11.655c0.385,0.659,0.754,1.328,1.142,1.984
		c2.633,4.461,5.331,8.881,8.072,13.273c0.93,1.49,1.888,2.96,2.829,4.441c1.877,2.951,3.765,5.894,5.691,8.813
		c1.121,1.701,2.262,3.391,3.401,5.081c1.824,2.708,3.668,5.403,5.536,8.083c1.183,1.698,2.371,3.394,3.571,5.08
		c1.718,2.413,3.462,4.81,5.215,7.2c-0.01,0.004-0.021,0.005-0.031,0.009c0.374,0.51,0.771,1.003,1.147,1.512
		c0.997,1.349,1.983,2.703,2.99,4.043c2.16,2.875,4.361,5.72,6.572,8.559c0.585,0.749,1.155,1.508,1.743,2.256
		c0.436,0.554,0.858,1.116,1.296,1.668c3.228,4.078,6.521,8.113,9.859,12.114c1.069,1.281,2.167,2.541,3.247,3.815
		c2.334,2.751,4.682,5.493,7.068,8.206c0.959,1.091,1.921,2.18,2.889,3.264c0.651,0.729,1.312,1.45,1.967,2.177
		c1.951,2.166,3.92,4.32,5.906,6.462c1.405,1.517,2.818,3.031,4.241,4.536c0.501,0.53,1.018,1.051,1.522,1.579
		c0.688,0.722,1.385,1.435,2.076,2.154c1.176,1.218,2.339,2.445,3.525,3.656c1.341,1.372,2.673,2.75,4.029,4.11
		c1.31,1.315,2.636,2.618,3.961,3.922c0.956,0.942,1.923,1.874,2.887,2.81c0.679,0.659,1.352,1.323,2.034,1.979
		c0.855,0.825,1.691,1.664,2.553,2.484c2.157,2.055,4.362,4.073,6.555,6.102c0.855,0.791,1.7,1.59,2.56,2.377
		c0.853,0.779,1.696,1.565,2.554,2.34c1.186,1.072,2.401,2.121,3.596,3.185c2.561,2.279,5.125,4.555,7.732,6.799
		c0.376,0.324,0.756,0.645,1.134,0.968c1.426,1.222,2.877,2.426,4.317,3.637c2.632,2.214,5.283,4.412,7.962,6.59
		c0.3,0.245,0.606,0.487,0.908,0.731c1.159,0.939,2.321,1.877,3.49,2.809c0.174,0.139,0.346,0.28,0.52,0.419
		c2.732,2.176,5.495,4.328,8.274,6.467c1.578,1.214,3.148,2.435,4.74,3.636c0.132,0.099,0.26,0.202,0.392,0.301
		c0.265,0.2,0.522,0.405,0.787,0.604c2.894,2.172,5.836,4.306,8.778,6.438c1.109,0.804,2.198,1.624,3.314,2.422
		c1.064,0.76,2.149,1.503,3.218,2.258c1.173,0.827,2.362,1.642,3.543,2.464c2.245,1.562,4.476,3.134,6.75,4.673
		c1.251,0.846,2.529,1.668,3.788,2.507c0.76,0.507,1.524,1.01,2.287,1.514c0.952,0.63,1.885,1.275,2.843,1.9
		c-7.059,10.691-15.417,22.343-23.95,31.943c-22.033,24.787-63.344-2.754-93.64,24.787c-18.591,16.901-18.25,39.668-5.832,60.685
		c-0.003,0.004-0.008,0.006-0.012,0.01c0.062,0.104,0.137,0.206,0.199,0.31c0.897,1.5,1.846,2.992,2.863,4.471
		c0.111,0.162,0.231,0.322,0.345,0.484c0.95,1.364,1.955,2.716,3.004,4.057c0.177,0.225,0.346,0.451,0.524,0.674
		c1.14,1.431,2.337,2.847,3.586,4.245c0.206,0.231,0.42,0.459,0.629,0.689c1.157,1.272,2.354,2.53,3.595,3.77
		c0.18,0.179,0.351,0.36,0.533,0.538c1.355,1.337,2.766,2.649,4.217,3.942c0.307,0.273,0.619,0.543,0.93,0.814
		c1.364,1.19,2.76,2.363,4.2,3.51c0.153,0.122,0.299,0.247,0.452,0.368c1.551,1.223,3.154,2.414,4.787,3.583
		c0.385,0.275,0.773,0.547,1.162,0.82c1.67,1.168,3.365,2.317,5.114,3.423c8.717,5.514,25.807,10.185,46.165,12.309
		c4.699,0.49,9.57,0.845,14.554,1.043c3.323,0.132,6.696,0.195,10.098,0.182c5.104-0.019,10.279-0.209,15.46-0.591
		c1.632-0.12,3.264-0.294,4.897-0.453c-0.013,0.011-0.024,0.022-0.035,0.034c0.266-0.026,0.529-0.077,0.797-0.104
		c3.292-0.333,6.581-0.717,9.843-1.216c0.642-0.098,1.277-0.216,1.916-0.321c0.271-0.044,0.54-0.09,0.811-0.136
		c0.795-0.134,1.593-0.255,2.385-0.4c3.334-0.609,6.636-1.314,9.888-2.117c0.006-0.002,0.014-0.003,0.021-0.005
		c0.048-0.012,0.097-0.022,0.147-0.034c3.942-0.978,7.795-2.124,11.557-3.407c0.307-0.105,0.612-0.211,0.917-0.317
		c3.798-1.328,7.499-2.8,11.041-4.467c27.675-13.023,62.08-52.985,85.593-83.493c1.331,0.499,2.647,1.011,3.984,1.503
		c4.104,1.511,8.256,2.975,12.419,4.43c1.027,0.358,2.036,0.731,3.066,1.087c0.601,0.207,1.197,0.419,1.799,0.625
		c1.16,0.397,2.345,0.77,3.51,1.163c4.703,1.584,9.434,3.142,14.211,4.654c0.13,0.041,0.262,0.08,0.393,0.121
		c1.234,0.39,2.478,0.767,3.72,1.148c0.71,0.217,1.416,0.437,2.124,0.655c3.958,1.218,7.933,2.42,11.942,3.589
		c1.709,0.498,3.414,1.002,5.132,1.491c1.174,0.334,2.357,0.661,3.535,0.991c3.364,0.942,6.756,1.857,10.156,2.765
		c2.273,0.607,4.545,1.218,6.835,1.81c1.311,0.339,2.61,0.693,3.927,1.026c0.647,0.164,1.307,0.314,1.955,0.476
		c2.466,0.619,4.956,1.212,7.44,1.813c1.873,0.453,3.726,0.924,5.609,1.367c2.134,0.502,4.294,0.978,6.443,1.467
		c2.015,0.458,4.039,0.907,6.066,1.354c2.231,0.491,4.437,1.005,6.682,1.483c0.998,0.212,2.015,0.402,3.015,0.612
		c2.763,0.578,5.547,1.135,8.332,1.692c1.416,0.283,2.814,0.583,4.236,0.86c1.337,0.26,2.679,0.514,4.019,0.769
		c2.236,0.426,4.496,0.825,6.745,1.237c3.813,0.698,7.627,1.395,11.48,2.053c1.09,0.186,2.181,0.373,3.274,0.555
		c2.046,0.343,4.114,0.664,6.17,0.995c4.348,0.699,8.72,1.372,13.116,2.021c1.571,0.232,3.112,0.495,4.69,0.72
		c0.034,0.005,0.071,0.009,0.105,0.014c0.931,0.133,1.884,0.241,2.816,0.371c4.773,0.668,9.585,1.294,14.414,1.901
		c2.148,0.27,4.279,0.559,6.439,0.817c0.72,0.086,1.43,0.182,2.151,0.266c0.439,0.052,0.888,0.094,1.328,0.145
		c5.84,0.679,11.711,1.326,17.635,1.917c0.662,0.066,1.337,0.117,2,0.182c0.968,0.095,1.951,0.174,2.924,0.267
		c2.271,0.216,4.555,0.42,6.839,0.624c3.245,0.29,6.482,0.586,9.751,0.849c2.388,0.192,4.806,0.355,7.207,0.533
		c0.876,0.065,1.75,0.131,2.627,0.194c1.775,0.128,3.532,0.273,5.312,0.393c2.273,0.153,4.566,0.286,6.852,0.427
		c2.738,0.168,5.492,0.32,8.246,0.47c3.185,0.173,6.365,0.353,9.573,0.502c1.749,0.081,3.517,0.142,5.273,0.216
		c2.621,0.11,5.245,0.219,7.88,0.313c4.242,0.152,8.511,0.271,12.79,0.38c2.003,0.051,3.994,0.118,6.006,0.16
		c1.338,0.028,2.675,0.057,4.017,0.081c7.634,0.135,15.313,0.218,23.067,0.218c7.869,0,15.665-0.083,23.41-0.221
		c1.432-0.026,2.853-0.065,4.28-0.095c2.214-0.047,4.407-0.119,6.611-0.177c4.078-0.108,8.157-0.216,12.2-0.363
		c2.86-0.104,5.693-0.234,8.533-0.358c2.055-0.088,4.125-0.162,6.17-0.26c2.711-0.131,5.404-0.282,8.098-0.43
		c3.011-0.166,6.007-0.348,8.998-0.535c2.819-0.176,5.649-0.338,8.45-0.534c1.68-0.118,3.333-0.263,5.007-0.387
		c0.034-0.003,0.068-0.005,0.102-0.008c2.954-0.219,5.905-0.441,8.839-0.682c3.89-0.319,7.756-0.665,11.612-1.022
		c1.858-0.172,3.728-0.329,5.578-0.51c1.575-0.153,3.144-0.312,4.712-0.471c5.01-0.51,9.972-1.071,14.923-1.645
		c1.935-0.225,3.9-0.417,5.826-0.651c0.317-0.038,0.629-0.081,0.946-0.12c6.986-0.855,13.92-1.766,20.787-2.745
		c0.94-0.134,1.86-0.289,2.798-0.426c0.15-0.022,0.298-0.047,0.448-0.068c2.084-0.304,4.146-0.63,6.219-0.946
		c3.75-0.571,7.509-1.134,11.224-1.742c2.357-0.386,4.681-0.806,7.024-1.207l0.133-0.023c2.07-0.355,4.149-0.701,6.209-1.067
		c2.335-0.416,4.667-0.836,6.988-1.267c2.645-0.49,5.264-1.006,7.89-1.516c2.715-0.527,5.45-1.032,8.143-1.58
		c0.755-0.154,1.494-0.323,2.247-0.478c0.59-0.122,1.169-0.252,1.758-0.374c2.698-0.561,5.382-1.135,8.059-1.716
		c3.549-0.77,7.079-1.557,10.593-2.363c1.369-0.314,2.752-0.615,4.115-0.935c1.641-0.385,3.266-0.783,4.9-1.176
		c4.007-0.963,7.979-1.962,11.941-2.972c1.998-0.51,4.023-0.993,6.009-1.515c0.531-0.139,1.051-0.287,1.582-0.427
		c4.333-1.146,8.617-2.341,12.892-3.544c1.821-0.512,3.667-1.001,5.478-1.524c1.028-0.296,2.044-0.605,3.069-0.905
		c1.541-0.451,3.059-0.924,4.592-1.383c3.543-1.058,7.1-2.104,10.602-3.201c1.354-0.424,2.679-0.876,4.027-1.307
		c0.77-0.246,1.533-0.499,2.301-0.747c1.852-0.596,3.703-1.191,5.542-1.799c2.038-0.673,4.087-1.338,6.112-2.024
		c2.191-0.743,4.35-1.517,6.525-2.275c2.489-0.868,4.998-1.715,7.466-2.603c0.106-0.038,0.214-0.073,0.321-0.112
		c1.121-0.404,2.222-0.83,3.338-1.238c1.89-0.691,3.77-1.391,5.647-2.094c23.516,30.508,57.92,70.47,85.594,83.493
		c3.54,1.666,7.241,3.138,11.039,4.466c0.305,0.107,0.611,0.214,0.92,0.319c3.76,1.284,7.614,2.429,11.556,3.406
		c0.048,0.012,0.097,0.021,0.145,0.033c0.007,0.002,0.016,0.005,0.025,0.007c3.251,0.803,6.551,1.508,9.884,2.116
		c0.792,0.145,1.591,0.266,2.386,0.4c0.27,0.045,0.539,0.091,0.809,0.136c0.641,0.105,1.276,0.223,1.917,0.321
		c3.261,0.499,6.548,0.883,9.839,1.216c0.268,0.028,0.532,0.079,0.799,0.105c-0.011-0.011-0.022-0.023-0.035-0.034
		c1.633,0.159,3.265,0.332,4.898,0.453c5.181,0.382,10.356,0.572,15.46,0.591c3.404,0.014,6.775-0.049,10.098-0.182
		c4.984-0.198,9.857-0.553,14.554-1.043c20.359-2.125,37.448-6.795,46.166-12.309c1.748-1.106,3.443-2.255,5.113-3.422
		c0.39-0.273,0.78-0.547,1.167-0.824c1.629-1.167,3.231-2.356,4.779-3.577c0.159-0.126,0.311-0.257,0.47-0.383
		c1.432-1.141,2.819-2.306,4.174-3.489c0.317-0.276,0.635-0.551,0.947-0.829c1.444-1.287,2.85-2.594,4.2-3.925
		c0.195-0.191,0.379-0.386,0.571-0.578c1.225-1.225,2.408-2.469,3.552-3.726c0.217-0.238,0.439-0.474,0.654-0.714
		c1.243-1.392,2.434-2.802,3.569-4.228c0.185-0.232,0.36-0.464,0.542-0.697c1.04-1.331,2.038-2.672,2.981-4.025
		c0.119-0.17,0.245-0.339,0.363-0.51c1.013-1.474,1.96-2.96,2.853-4.455c0.063-0.107,0.14-0.211,0.203-0.317
		c-0.004-0.004-0.009-0.007-0.013-0.011c12.42-21.016,12.76-43.784-5.83-60.685c-30.295-27.541-71.607,0-93.641-24.787
		c-8.532-9.598-16.887-21.247-23.946-31.937c1.473-0.961,2.909-1.953,4.37-2.924c2.019-1.343,4.043-2.683,6.041-4.043
		c0.346-0.236,0.683-0.479,1.028-0.715c0.616-0.422,1.222-0.853,1.837-1.277c1.799-1.247,3.606-2.492,5.392-3.75
		c1.846-1.3,3.708-2.586,5.536-3.902c1.594-1.148,3.163-2.316,4.743-3.476c1.217-0.894,2.426-1.796,3.635-2.697
		c0.375-0.279,0.753-0.556,1.127-0.836c1.3-0.973,2.626-1.924,3.915-2.905c2.732-2.078,5.41-4.199,8.096-6.312
		c0.815-0.64,1.642-1.269,2.45-1.913c0.733-0.582,1.477-1.156,2.206-1.741c1.595-1.279,3.153-2.589,4.731-3.881
		c2.67-2.185,5.34-4.372,7.966-6.593c1.805-1.528,3.58-3.08,5.364-4.625c2.347-2.032,4.687-4.069,6.996-6.13
		c1.252-1.116,2.505-2.23,3.744-3.355c0.615-0.558,1.212-1.129,1.825-1.689c2.179-1.993,4.342-3.998,6.488-6.018
		c1.798-1.693,3.589-3.392,5.363-5.103c0.531-0.513,1.052-1.035,1.58-1.55c0.452-0.438,0.898-0.882,1.349-1.322
		c1.157-1.135,2.324-2.265,3.474-3.407c1.723-1.712,3.45-3.42,5.152-5.15c1.347-1.371,2.682-2.754,4.015-4.136
		c0.859-0.889,1.704-1.787,2.556-2.681c1.536-1.611,3.09-3.211,4.606-4.837c2.154-2.309,4.262-4.653,6.376-6.992
		c0.729-0.806,1.47-1.604,2.194-2.414c1.28-1.43,2.553-2.864,3.817-4.304c2.88-3.281,5.734-6.579,8.538-9.914
		c0.12-0.142,0.235-0.288,0.354-0.43c0.179-0.214,0.352-0.433,0.532-0.647c1.164-1.391,2.302-2.801,3.454-4.202
		c1.932-2.352,3.867-4.703,5.762-7.08c0.976-1.224,1.945-2.453,2.911-3.684c0.529-0.674,1.039-1.359,1.565-2.035
		c0.037-0.048,0.073-0.097,0.111-0.145c1.744-2.244,3.483-4.49,5.195-6.756c1.531-2.027,3.043-4.067,4.547-6.111
		c0.198-0.269,0.4-0.535,0.599-0.804c0.309-0.421,0.628-0.836,0.936-1.258c1.139-1.56,2.253-3.134,3.377-4.703
		c1.486-2.078,2.966-4.16,4.426-6.255c1.086-1.559,2.168-3.121,3.238-4.69c0.177-0.257,0.364-0.506,0.539-0.763
		c-0.013,0.009-0.029,0.018-0.043,0.026c0.332-0.489,0.658-0.982,0.99-1.472c1.418-2.095,2.842-4.187,4.235-6.299
		c1.589-2.41,3.142-4.844,4.698-7.276c1.304-2.038,2.627-4.066,3.908-6.12c1.876-3.006,3.698-6.044,5.523-9.082
		c1.805-3.004,3.582-6.025,5.337-9.059c1.661-2.872,3.325-5.739,4.942-8.638c1.225-2.197,2.409-4.419,3.609-6.632
		c1.329-2.45,2.663-4.897,3.96-7.365c1.226-2.332,2.421-4.682,3.62-7.03c1.216-2.384,2.429-4.771,3.618-7.172
		c1.188-2.402,2.358-4.814,3.518-7.232c1.149-2.396,2.283-4.8,3.405-7.212c1.131-2.431,2.255-4.866,3.358-7.314
		c1.098-2.437,2.169-4.889,3.24-7.341c1.071-2.458,2.149-4.912,3.193-7.385c1.056-2.503,2.075-5.026,3.103-7.545
		c0.997-2.443,2.012-4.876,2.983-7.333c1.215-3.08,2.379-6.187,3.552-9.29c1.531-4.05,3.023-8.12,4.481-12.207
		c0.937-2.625,1.887-5.242,2.794-7.883c0.9-2.616,1.758-5.254,2.627-7.886c0.826-2.498,1.657-4.994,2.455-7.505
		c0.852-2.671,1.672-5.357,2.494-8.042c0.765-2.502,1.523-5.006,2.264-7.52c0.798-2.717,1.578-5.442,2.348-8.173
		c0.705-2.505,1.393-5.017,2.072-7.534c0.744-2.754,1.483-5.509,2.197-8.278c0.653-2.533,1.279-5.079,1.908-7.625
		c0.683-2.771,1.375-5.54,2.028-8.325c0.609-2.594,1.182-5.205,1.765-7.811c0.619-2.762,1.255-5.516,1.845-8.29
		c0.665-3.131,1.28-6.284,1.907-9.431c0.952-4.773,1.862-9.563,2.731-14.372c0.404-2.242,0.835-4.474,1.221-6.724
		c-0.007,0.009-0.016,0.017-0.021,0.026c6.638-38.651,10.556-78.443,11.824-119.099c0.303-9.693,0.499-19.42,0.499-29.208
		c0-12.585-0.357-25.045-1.052-37.381c29.584,3.415,55.221,3.635,64.522-0.24C1933.14,1071.106,1963.519,922.857,1943.468,883.137z
		 M288.199,995.143c-17.18,4.277-29.789,7.798-29.789,7.798s-18.679-49.81-19.606-76.201c-0.132-3.757,0.095-7.039,0.787-9.636
		c3.671-13.771,80.787-31.902,80.787-31.902l2.758-6.097C307.874,915.995,296.114,954.741,288.199,995.143z M1862.91,1002.942
		c0,0-12.666-3.538-29.909-7.828c-8.111-41.396-32.058-109.911-32.058-109.911s77.115,18.131,80.787,31.902
		c0.692,2.597,0.919,5.88,0.787,9.636C1881.589,953.132,1862.91,1002.942,1862.91,1002.942z"/>
	<path style="fill:#488445;" d="M1943.468,883.137c-0.279-0.554-0.651-1.065-0.96-1.604c-26.414-45.987-161.888-41.28-161.888-41.28
		l2.458,5.437l8.471,18.736l5.391,11.926l4.003,8.852c0,0,77.115,18.131,80.787,31.902c0.692,2.597,0.919,5.88,0.787,9.636
		c-0.927,26.391-19.606,76.201-19.606,76.201s-12.666-3.538-29.909-7.828c-34.102-8.485-86.174-19.924-94.027-12.828
		c0,0-9.368,10.381-16.084,23.401v0c-6.154,11.93-10.079,26.076-2.508,36.501c13.985,19.254,74.19,33.799,123.449,39.486
		c29.584,3.415,55.221,3.635,64.522-0.24C1933.14,1071.106,1963.519,922.857,1943.468,883.137z"/>
	<path style="fill:#488445;" d="M398.43,1005.687L398.43,1005.687c-6.714-13.021-16.084-23.402-16.084-23.402
		c-7.864-7.104-60.046,4.37-94.147,12.858c-17.18,4.277-29.789,7.798-29.789,7.798s-18.679-49.81-19.606-76.201
		c-0.132-3.757,0.095-7.039,0.787-9.636c3.671-13.771,80.787-31.902,80.787-31.902l2.758-6.097l6.636-14.68l9.488-20.983
		l1.441-3.189c0,0-135.474-4.707-161.889,41.28c-0.309,0.539-0.68,1.051-0.96,1.604c-20.051,39.72,10.328,187.97,35.115,198.297
		c9.289,3.87,34.871,3.656,64.406,0.253c49.281-5.678,109.568-20.231,123.563-39.499c1.859-2.559,3.003-5.347,3.613-8.267
		C406.428,1024.944,403.073,1014.689,398.43,1005.687z"/>
	<g>
		<g>
			<path style="fill:#2A4F28;" d="M1674.057,1829.276c-3.445-3.315-7.189-6.323-11.002-9.036
				c-10.127-7.204-21.509-12.953-33.437-16.49c-5.721-1.696-11.473-2.479-17.379-3.212c-7.264-0.902-14.524-1.848-21.76-2.949
				c-12.281-1.87-24.552-4.17-36.411-7.928c-10.751-3.407-21.069-8.097-30.531-14.252c-10.672-6.942-20.171-15.536-28.834-24.832
				c-1.244-1.336-2.424-2.731-3.637-4.095c-0.277,0.143-0.556,0.282-0.834,0.425c-1.545,0.794-3.095,1.584-4.651,2.369
				c-1.827,0.923-3.634,1.865-5.476,2.775c-1.496,0.739-3.025,1.447-4.531,2.177c-2.026,0.983-4.055,1.963-6.099,2.931
				c-0.838,0.397-1.659,0.807-2.499,1.201c-0.975,0.457-1.954,0.909-2.933,1.362c-0.422,0.196-0.831,0.403-1.254,0.598
				c-1.67,0.77-3.382,1.501-5.061,2.26c-3.237,1.463-6.479,2.921-9.758,4.345c-0.637,0.276-1.263,0.563-1.902,0.838
				c-1.779,0.766-3.588,1.504-5.378,2.259c-3.307,1.394-6.629,2.773-9.976,4.128c-1.662,0.673-3.311,1.358-4.983,2.021
				c-0.906,0.36-1.827,0.703-2.737,1.06c-3.207,1.258-6.44,2.489-9.685,3.711c-0.48,0.181-0.951,0.37-1.431,0.549
				c23.516,30.508,57.92,70.47,85.594,83.493c3.54,1.666,7.241,3.138,11.039,4.466c0.305,0.107,0.611,0.214,0.92,0.319
				c3.806,1.298,7.709,2.455,11.701,3.44c0.007,0.002,0.016,0.005,0.025,0.007c4.021,0.992,8.126,1.818,12.271,2.516
				c0.27,0.045,0.539,0.091,0.809,0.136c3.891,0.637,7.82,1.137,11.757,1.536c0.268,0.028,0.532,0.079,0.799,0.105
				c-0.011-0.011-0.022-0.023-0.035-0.034c1.633,0.159,3.265,0.332,4.898,0.453c5.181,0.382,10.356,0.572,15.46,0.591
				c3.404,0.014,6.775-0.049,10.098-0.182c4.984-0.198,9.857-0.553,14.554-1.043c20.359-2.125,37.448-6.795,46.166-12.309
				c1.748-1.106,3.443-2.255,5.113-3.422c0.39-0.273,0.78-0.547,1.167-0.824c1.629-1.167,3.231-2.356,4.779-3.577
				c0.159-0.126,0.311-0.257,0.47-0.383c1.432-1.141,2.819-2.306,4.174-3.489c0.317-0.276,0.635-0.551,0.947-0.829
				c1.444-1.287,2.85-2.594,4.2-3.925c0.195-0.191,0.379-0.386,0.571-0.578c1.225-1.225,2.408-2.469,3.552-3.726
				c0.217-0.238,0.439-0.474,0.654-0.714c1.243-1.392,2.434-2.802,3.569-4.228c0.185-0.232,0.36-0.464,0.542-0.697
				c1.04-1.331,2.038-2.672,2.981-4.025c0.119-0.17,0.245-0.339,0.363-0.51c1.013-1.474,1.96-2.96,2.853-4.455
				c0.063-0.107,0.14-0.211,0.203-0.317C1674.066,1829.283,1674.061,1829.28,1674.057,1829.276z"/>
			<path style="fill:#2A4F28;" d="M703.907,1779.435c-2.548-0.976-5.093-1.953-7.616-2.95c-2.054-0.812-4.086-1.643-6.125-2.469
				c-1.074-0.436-2.159-0.863-3.228-1.302c-0.691-0.283-1.396-0.554-2.084-0.84c-1.808-0.749-3.586-1.523-5.381-2.283
				c-2.089-0.885-4.172-1.775-6.243-2.676c-2.318-1.006-4.629-2.017-6.925-3.042c-1.362-0.608-2.711-1.228-4.065-1.843
				c-1.268-0.576-2.561-1.129-3.822-1.71c-0.504-0.232-0.991-0.478-1.494-0.711c-3.206-1.486-6.373-3.007-9.537-4.532
				c-1.306-0.629-2.625-1.246-3.922-1.881c-0.787-0.385-1.586-0.761-2.371-1.148c-3.688-1.821-7.327-3.687-10.957-5.56
				c-1.212,1.362-2.391,2.755-3.634,4.089c-8.662,9.296-18.161,17.89-28.834,24.832c-9.463,6.155-19.779,10.846-30.531,14.252
				c-11.857,3.758-24.13,6.059-36.41,7.928c-7.237,1.101-14.497,2.047-21.761,2.949c-5.906,0.733-11.658,1.516-17.378,3.212
				c-11.929,3.537-23.309,9.286-33.438,16.49c-3.814,2.713-7.555,5.722-11.002,9.037c-0.003,0.004-0.008,0.006-0.012,0.01
				c0.062,0.104,0.137,0.206,0.199,0.31c0.897,1.5,1.846,2.992,2.863,4.471c0.111,0.162,0.231,0.322,0.345,0.484
				c0.95,1.364,1.955,2.716,3.004,4.057c0.177,0.225,0.346,0.451,0.524,0.674c1.14,1.431,2.337,2.847,3.586,4.245
				c0.206,0.231,0.42,0.459,0.629,0.689c1.157,1.272,2.354,2.53,3.595,3.77c0.18,0.179,0.351,0.36,0.533,0.538
				c1.355,1.337,2.766,2.649,4.217,3.942c0.307,0.273,0.619,0.543,0.93,0.814c1.364,1.19,2.76,2.363,4.2,3.51
				c0.153,0.122,0.299,0.247,0.452,0.368c1.551,1.223,3.154,2.414,4.787,3.583c0.385,0.275,0.773,0.547,1.162,0.82
				c1.67,1.168,3.365,2.317,5.114,3.423c8.717,5.514,25.807,10.185,46.165,12.309c4.699,0.49,9.57,0.845,14.554,1.043
				c3.323,0.132,6.696,0.195,10.098,0.182c5.104-0.019,10.279-0.209,15.46-0.591c1.632-0.12,3.264-0.294,4.897-0.453
				c-0.013,0.011-0.024,0.022-0.035,0.034c0.266-0.026,0.529-0.077,0.797-0.104c3.937-0.4,7.868-0.9,11.759-1.537
				c0.271-0.044,0.54-0.09,0.811-0.136c4.144-0.698,8.249-1.524,12.272-2.517c0,0,0,0,0.001,0c0.006-0.002,0.014-0.003,0.021-0.005
				c3.993-0.986,7.897-2.142,11.703-3.441c0.307-0.105,0.612-0.211,0.917-0.317c3.798-1.328,7.499-2.8,11.041-4.467
				c27.675-13.023,62.08-52.985,85.593-83.493c-0.131-0.049-0.26-0.102-0.393-0.151
				C707.255,1780.71,705.578,1780.075,703.907,1779.435z"/>
		</g>
	</g>
	<path style="fill:#30592E;" d="M1832.56,1267.362c-31.668,38.582-71.547,71.015-111.114,100.335
		c-61.916,45.879-126.753,88.436-196.536,121.401c-73.889,34.904-155.349,62.284-237.153,69.469
		c-79.929,7.02-158.619-12.578-230.766-46.189c-37.046-17.258-72.43-37.905-106.73-60.07c-35.091-22.677-69.22-46.467-105.693-66.96
		c-74.397-41.801-154.299-74.461-237.409-94.175c-42.598-10.105-86.049-16.755-129.778-19.13
		c-35.978-1.955-71.628-0.669-106.825,7.56c-25.792,6.03-50.665,15.352-73.994,27.578l-0.044,0.022
		c0.389,1.728,0.815,3.439,1.215,5.162c0.49,2.104,0.978,4.21,1.485,6.307c0.835,3.46,1.705,6.904,2.588,10.342
		c0.463,1.811,0.913,3.629,1.39,5.434c1.359,5.142,2.761,10.264,4.226,15.356c0.235,0.816,0.489,1.622,0.726,2.437
		c1.264,4.339,2.56,8.661,3.9,12.962c0.584,1.873,1.195,3.733,1.793,5.599c1.041,3.246,2.094,6.487,3.177,9.711
		c0.686,2.039,1.387,4.07,2.09,6.099c1.07,3.088,2.161,6.164,3.271,9.23c0.724,1.995,1.446,3.99,2.187,5.976
		c1.201,3.223,2.435,6.428,3.681,9.627c0.688,1.764,1.361,3.536,2.06,5.292c1.789,4.477,3.619,8.931,5.496,13.359
		c0.317,0.749,0.635,1.497,0.955,2.245c1.913,4.472,3.876,8.916,5.883,13.335c0.77,1.697,1.57,3.377,2.353,5.065
		c1.443,3.106,2.895,6.205,4.384,9.284c0.909,1.882,1.835,3.755,2.762,5.627c1.44,2.91,2.9,5.806,4.382,8.691
		c0.951,1.853,1.905,3.703,2.875,5.546c1.58,3.005,3.194,5.991,4.821,8.969c0.899,1.646,1.786,3.301,2.699,4.939
		c2.181,3.911,4.408,7.794,6.669,11.655c0.385,0.659,0.754,1.328,1.142,1.984c2.633,4.461,5.331,8.881,8.072,13.273
		c0.93,1.49,1.888,2.96,2.829,4.441c1.877,2.951,3.765,5.894,5.691,8.813c1.121,1.701,2.262,3.391,3.401,5.081
		c1.824,2.708,3.668,5.403,5.536,8.083c1.183,1.698,2.371,3.394,3.571,5.08c1.718,2.413,3.462,4.81,5.215,7.2
		c-0.01,0.004-0.021,0.005-0.031,0.009c0.374,0.51,0.771,1.003,1.147,1.512c0.077,0.103,0.157,0.203,0.234,0.307
		c3.056,4.134,6.165,8.233,9.328,12.295c0.585,0.749,1.155,1.508,1.743,2.256c0.027,0.035,0.058,0.069,0.086,0.105
		c3.764,4.785,7.601,9.52,11.515,14.201c0.539,0.646,1.095,1.281,1.638,1.925c3.384,4.012,6.827,7.982,10.322,11.916
		c0.27,0.304,0.528,0.618,0.798,0.922c0.651,0.729,1.312,1.45,1.967,2.177c3.821,4.242,7.719,8.429,11.669,12.576
		c0.688,0.722,1.385,1.435,2.076,2.154c3.787,3.935,7.61,7.842,11.515,11.688c0.956,0.942,1.923,1.874,2.887,2.81
		c3.661,3.56,7.375,7.082,11.142,10.565c0.855,0.791,1.7,1.59,2.56,2.377c4.555,4.164,9.177,8.276,13.883,12.324
		c0.376,0.324,0.756,0.645,1.134,0.968c0.232,0.199,0.475,0.39,0.707,0.588c4.101,3.503,8.265,6.957,12.48,10.37
		c1.159,0.939,2.321,1.877,3.49,2.809c4.581,3.656,9.214,7.273,13.926,10.823c0.265,0.2,0.522,0.405,0.787,0.604
		c5.023,3.771,10.139,7.469,15.311,11.118c1.173,0.827,2.362,1.642,3.543,2.464c4.225,2.939,8.5,5.837,12.825,8.694
		c0.952,0.63,1.885,1.275,2.843,1.9c11.839,7.731,24.049,15.149,36.622,22.251c0.391,0.222,0.798,0.43,1.189,0.651
		c5.036,2.83,10.122,5.616,15.275,8.344c0.013,0.006,0.023,0.013,0.036,0.019c0.632,0.334,1.25,0.681,1.884,1.013
		c0.004,0.002,0.008,0.004,0.012,0.006c5.789,3.04,11.665,6.003,17.603,8.911c0.092,0.045,0.182,0.093,0.274,0.139
		c1.297,0.635,2.616,1.252,3.922,1.881c4.792,2.31,9.633,4.575,14.522,6.798c0.111,0.05,0.22,0.105,0.331,0.156
		c1.354,0.615,2.703,1.234,4.065,1.843c6.113,2.731,12.287,5.407,18.549,8.001c0.688,0.285,1.393,0.556,2.084,0.84
		c5.594,2.298,11.256,4.533,16.969,6.722c1.671,0.64,3.348,1.275,5.029,1.906c0.05,0.018,0.102,0.036,0.153,0.055
		c5.494,2.059,11.04,4.071,16.643,6.029c1.027,0.358,2.036,0.731,3.066,1.087c6.56,2.261,13.204,4.443,19.912,6.563
		c1.234,0.39,2.478,0.767,3.72,1.148c0.376,0.115,0.751,0.231,1.127,0.347c5.373,1.661,10.794,3.277,16.261,4.847
		c0.609,0.175,1.201,0.366,1.811,0.54c1.174,0.334,2.357,0.661,3.535,0.991c6.905,1.934,13.865,3.814,20.918,5.601
		c0.647,0.164,1.307,0.314,1.955,0.476c6.431,1.615,12.936,3.156,19.492,4.647c2.015,0.458,4.039,0.907,6.066,1.354
		c5.959,1.313,11.969,2.576,18.029,3.786c1.416,0.283,2.814,0.583,4.236,0.86c7.338,1.431,14.758,2.78,22.244,4.06
		c1.09,0.186,2.181,0.373,3.274,0.555c0.713,0.12,1.446,0.219,2.161,0.337c5.976,0.987,12.001,1.926,18.071,2.816
		c1.258,0.184,2.482,0.403,3.743,0.583c0.034,0.005,0.071,0.009,0.105,0.014c0.816,0.116,1.654,0.207,2.471,0.321
		c7.716,1.082,15.484,2.11,23.349,3.034c0.439,0.052,0.888,0.094,1.328,0.145c7.447,0.866,14.977,1.643,22.558,2.366
		c2.271,0.216,4.555,0.42,6.839,0.624c6.48,0.578,13.008,1.104,19.585,1.576c1.775,0.128,3.532,0.273,5.312,0.393
		c8.148,0.548,16.374,1.013,24.671,1.399c1.749,0.081,3.517,0.142,5.273,0.216c0.184,0.007,0.369,0.011,0.552,0.018
		c6.657,0.277,13.364,0.503,20.118,0.675c2.003,0.051,3.994,0.118,6.006,0.16c0.398,0.008,0.805,0.005,1.204,0.013
		c8.56,0.17,17.168,0.285,25.88,0.285c9.023,0,17.937-0.124,26.798-0.306c0.294-0.006,0.598-0.004,0.891-0.01
		c2.214-0.047,4.407-0.119,6.611-0.177c6.901-0.183,13.753-0.421,20.555-0.714c0.059-0.003,0.119-0.004,0.178-0.006
		c2.055-0.088,4.125-0.162,6.17-0.26c8.593-0.415,17.112-0.91,25.545-1.499c1.68-0.118,3.333-0.263,5.007-0.387
		c6.905-0.512,13.756-1.084,20.554-1.713c1.858-0.172,3.728-0.329,5.578-0.51c0.557-0.054,1.098-0.124,1.652-0.18
		c7.188-0.712,14.321-1.483,21.387-2.324c0.801-0.095,1.625-0.166,2.423-0.263c0.317-0.038,0.629-0.081,0.946-0.12
		c8.096-0.99,16.098-2.081,24.034-3.239c2.084-0.304,4.146-0.63,6.219-0.946c6.175-0.94,12.302-1.931,18.38-2.972
		c2.07-0.355,4.149-0.701,6.209-1.067c7.748-1.378,15.434-2.82,23.021-4.362c0.755-0.154,1.494-0.323,2.247-0.478
		c6.872-1.415,13.67-2.906,20.411-4.453c1.369-0.314,2.752-0.615,4.115-0.935c0.707-0.166,1.393-0.353,2.098-0.52
		c6.039-1.43,12.023-2.913,17.955-4.449c0.924-0.24,1.875-0.451,2.797-0.693c0.531-0.139,1.051-0.287,1.582-0.427
		c7.226-1.912,14.371-3.904,21.439-5.972c1.541-0.451,3.059-0.924,4.592-1.383c5.695-1.701,11.34-3.453,16.93-5.255
		c1.852-0.596,3.703-1.191,5.542-1.799c6.77-2.236,13.487-4.521,20.103-6.903c0.106-0.038,0.214-0.073,0.321-0.112
		c6.789-2.447,13.474-4.994,20.101-7.593c0.909-0.357,1.831-0.7,2.737-1.06c0.762-0.302,1.497-0.628,2.256-0.932
		c5.264-2.107,10.475-4.262,15.637-6.465c0.807-0.344,1.64-0.665,2.445-1.011c0.639-0.275,1.266-0.562,1.902-0.838
		c6.412-2.785,12.754-5.634,19.006-8.565c0.84-0.394,1.661-0.804,2.499-1.201c5.431-2.572,10.796-5.203,16.106-7.883
		c1.556-0.785,3.106-1.575,4.651-2.369c12.7-6.53,25.074-13.35,37.072-20.493c0.7-0.416,1.37-0.857,2.067-1.276
		c4.698-2.819,9.34-5.684,13.929-8.596c0.618-0.391,1.258-0.762,1.873-1.156c5.725-3.659,11.354-7.399,16.907-11.202
		c0.616-0.422,1.222-0.853,1.837-1.277c5.293-3.652,10.527-7.353,15.67-11.128c1.217-0.894,2.426-1.796,3.635-2.697
		c4.436-3.305,8.819-6.655,13.138-10.053c0.815-0.64,1.642-1.269,2.45-1.913c5.108-4.058,10.135-8.18,15.078-12.366
		c0.712-0.604,1.408-1.221,2.118-1.827c4.224-3.61,8.384-7.268,12.488-10.97c0.434-0.392,0.889-0.768,1.323-1.161
		c0.615-0.558,1.212-1.129,1.825-1.689c4.554-4.165,9.026-8.394,13.431-12.671c0.452-0.438,0.898-0.882,1.349-1.322
		c4.279-4.181,8.503-8.405,12.641-12.693c0.859-0.889,1.704-1.787,2.556-2.681c0.017-0.017,0.033-0.035,0.049-0.053
		c3.701-3.883,7.346-7.808,10.933-11.775c0.729-0.806,1.47-1.604,2.194-2.414c0.038-0.041,0.072-0.083,0.109-0.124
		c4.278-4.785,8.486-9.621,12.6-14.523c0.179-0.214,0.352-0.433,0.532-0.647c3.838-4.588,7.589-9.238,11.285-13.926
		c0.275-0.35,0.567-0.689,0.843-1.04c0.529-0.674,1.039-1.359,1.565-2.035c0.019-0.025,0.037-0.05,0.057-0.075
		c3.528-4.537,7-9.113,10.395-13.741c0.309-0.421,0.628-0.836,0.936-1.258c3.765-5.16,7.442-10.38,11.041-15.649
		c0.177-0.257,0.364-0.506,0.539-0.763c-0.013,0.009-0.029,0.018-0.043,0.026c0.332-0.489,0.658-0.982,0.99-1.472
		c1.418-2.095,2.842-4.187,4.235-6.299c1.589-2.41,3.142-4.844,4.698-7.276c1.304-2.038,2.627-4.066,3.908-6.12
		c1.876-3.006,3.698-6.044,5.523-9.082c1.805-3.004,3.582-6.025,5.337-9.059c1.661-2.872,3.325-5.739,4.942-8.638
		c1.225-2.197,2.409-4.419,3.609-6.632c1.329-2.45,2.663-4.897,3.96-7.365c1.226-2.332,2.421-4.682,3.62-7.03
		c1.216-2.384,2.429-4.771,3.618-7.172c1.188-2.402,2.358-4.814,3.518-7.232c1.149-2.396,2.283-4.8,3.405-7.212
		c1.131-2.431,2.255-4.866,3.358-7.314c1.098-2.437,2.169-4.889,3.24-7.341c1.071-2.458,2.149-4.912,3.193-7.385
		c1.056-2.503,2.075-5.026,3.103-7.545c0.997-2.443,2.012-4.876,2.983-7.333c1.215-3.08,2.379-6.187,3.552-9.29
		c1.531-4.05,3.023-8.12,4.481-12.207c0.937-2.625,1.887-5.242,2.794-7.883c0.9-2.616,1.758-5.254,2.627-7.886
		c0.826-2.498,1.657-4.994,2.455-7.505c0.852-2.671,1.672-5.357,2.494-8.042c0.765-2.502,1.523-5.006,2.264-7.52
		c0.798-2.717,1.578-5.442,2.348-8.173c0.705-2.505,1.393-5.017,2.072-7.534c0.744-2.754,1.483-5.509,2.197-8.278
		c0.653-2.533,1.279-5.079,1.908-7.625c0.683-2.771,1.375-5.54,2.028-8.325c0.609-2.594,1.182-5.205,1.765-7.811
		c0.619-2.762,1.255-5.516,1.845-8.29c0.665-3.131,1.28-6.284,1.907-9.431c0.952-4.773,1.862-9.563,2.731-14.372
		c0.404-2.242,0.835-4.474,1.221-6.724C1832.574,1267.345,1832.566,1267.353,1832.56,1267.362z"/>
	<path style="fill:#4E7F4B;" d="M1618.68,932.319c0,0-112.508,10.309-155.068,113.268
		c-42.561,102.959-11.448,364.753,53.069,376.091c64.517,11.337,97.899-22.025,128.554-97.695
		C1703.564,1180.002,1719.327,919.51,1618.68,932.319z"/>
	<path style="fill:#31542E;" d="M1619.678,708.46c-41.049,108.599-275.717,191.846-559.075,191.846
		c-14.728,0-29.324-0.227-43.77-0.668c-7.184-1.529-14.351-3.145-21.496-4.883c-40.323-9.809-80.474-23.406-117.113-43.138
		c-31.254-16.83-62.537-41.195-67.542-78.672c-2.155-16.137,0.04-32.212,0.957-48.323
		c-152.223-33.382-257.058-91.113-297.536-128.744c-2.036,10.552-4.067,20.184-6.002,28.801c-0.648,2.886-1.285,5.659-1.907,8.315
		c-6.229,26.563-11.04,41.472-11.04,41.472v0c0,0,0.591-1.849,1.582-5.216c-99.489,96.267-118.888,455.445,423.176,449.365
		c626.879-7.032,702.136-410.055,702.136-410.055L1619.678,708.46z"/>
	<path style="fill:#488445;" d="M1625.69,476.354c0.215-2.562,0.364-5.132,0.364-7.715c0-124.728-253.161-225.839-565.451-225.839
		c-301.487,0-547.834,94.241-564.519,212.987h-0.094c0,0-20.763,41.771,0,116.133c1.737,6.221,7.888,14.453,18.113,23.959
		c40.478,37.63,145.314,95.362,297.536,128.744c72.784,15.961,156.375,26.362,248.964,26.316
		c305.681,0.141,487.382-98.876,541.923-154.585c9.494-9.697,15.229-18.115,16.994-24.434
		C1631.765,528.065,1629.554,495.656,1625.69,476.354z"/>
	<path style="fill:#356432;" d="M1060.603,263.915c-280.313,0-507.55,85.904-507.55,191.871c0,21.175,9.096,41.544,25.853,60.591
		c18.702,21.257,46.956,40.864,82.866,58.086c92.94,44.575,237.042,73.194,398.831,73.194c160.158,0,302.962-28.052,395.984-71.857
		c37.255-17.544,66.525-37.612,85.714-59.423c16.757-19.047,25.854-39.416,25.854-60.591
		C1568.155,349.819,1340.916,263.915,1060.603,263.915z"/>
	<path style="fill:#254723;" d="M1060.603,385.097c-224.301,0-414.594,55.007-481.697,131.28
		c18.702,21.257,46.956,40.864,82.866,58.086c92.94,44.575,237.042,73.194,398.831,73.194c160.158,0,302.962-28.052,395.984-71.857
		c37.255-17.544,66.525-37.612,85.714-59.423C1475.198,440.104,1284.904,385.097,1060.603,385.097z"/>
	<path style="fill:#41753D;" d="M1060.603,750.938c305.681,0.141,487.382-98.876,541.923-154.585
		c9.494-9.697,15.229-18.115,16.994-24.434c12.245-43.854,10.034-76.263,6.17-95.565
		c-10.189,121.153-259.266,218.124-565.087,218.124c-312.29,0-565.45-101.112-565.45-225.839c0-4.315,0.333-8.598,0.93-12.853
		h-0.094c0,0-20.763,41.771,0,116.133c1.737,6.221,7.888,14.453,18.113,23.959c40.478,37.63,145.314,95.362,297.536,128.744
		C884.423,740.583,968.014,750.984,1060.603,750.938z"/>
	<path style="fill:#70AA6B;" d="M1556.704,528.106c-17.687,8.29-96.166,75.716-215.544,96.718c0,0-25.424,10.296-25.424,22.834
		c0,12.537,29.293,8.116,39.793,5.905c10.501-2.211,220.518-71.295,219.965-122.694
		C1575.494,530.869,1574.389,519.815,1556.704,528.106z"/>
	<path style="fill:#254924;" d="M404.566,1033.919l-0.017,0.002c-0.61,2.92-1.754,5.708-3.613,8.267
		c-13.994,19.268-74.282,33.822-123.563,39.499c-0.693,12.331-1.051,24.787-1.051,37.368c0,9.935,0.2,19.809,0.511,29.646
		c23.748-9.257,64.766-26.425,92.645-44.546C410.792,1077.303,404.566,1033.919,404.566,1033.919z"/>
	<path style="fill:#254924;" d="M1720.382,1042.188c0,0-14.526,10.328-4.164,30.984c7.249,14.45,83.172,53.135,128.167,75.091
		c0.303-9.693,0.499-19.42,0.499-29.208c0-12.585-0.357-25.045-1.052-37.381C1794.572,1075.987,1734.367,1061.442,1720.382,1042.188
		z"/>
	<path style="fill:#1A2D1A;" d="M661.772,574.464c92.94,44.575,237.042,73.194,398.831,73.194
		c160.158,0,302.962-28.052,395.984-71.857c-92.94-44.575-237.042-73.194-398.833-73.194
		C897.596,502.607,754.793,530.658,661.772,574.464z"/>
	<path style="fill:#264725;" d="M1003.084,899.149c-1.963-0.079-3.913-0.178-5.871-0.265c-2.658-0.118-5.321-0.231-7.97-0.364
		c-2.175-0.109-4.337-0.237-6.505-0.357c-2.431-0.134-4.866-0.261-7.286-0.407c-2.208-0.133-4.4-0.283-6.599-0.427
		c-2.349-0.153-4.702-0.301-7.043-0.466c-2.225-0.156-4.436-0.328-6.651-0.495c-2.307-0.174-4.619-0.344-6.916-0.529
		c-2.217-0.179-4.421-0.371-6.627-0.56c-2.27-0.194-4.541-0.386-6.8-0.591c-2.202-0.2-4.389-0.411-6.581-0.621
		c-2.254-0.216-4.506-0.431-6.747-0.658c-2.202-0.222-4.39-0.455-6.58-0.688c-2.194-0.233-4.385-0.467-6.568-0.71
		c-2.208-0.246-4.406-0.501-6.603-0.757c-2.163-0.252-4.325-0.507-6.478-0.77c-2.165-0.264-4.32-0.535-6.474-0.809
		c-2.164-0.275-4.323-0.555-6.476-0.84c-2.147-0.285-4.287-0.575-6.422-0.87c-2.118-0.292-4.23-0.589-6.338-0.891
		c-2.134-0.306-4.264-0.616-6.387-0.932c-2.104-0.313-4.202-0.633-6.295-0.955c-2.097-0.324-4.191-0.65-6.275-0.983
		c-2.095-0.335-4.181-0.677-6.265-1.023c-2.057-0.34-4.112-0.682-6.157-1.031c-2.074-0.355-4.134-0.718-6.195-1.083
		c-2.04-0.361-4.081-0.721-6.108-1.091c-2.04-0.372-4.065-0.754-6.091-1.135c-2.017-0.38-4.035-0.758-6.038-1.147
		c-2.035-0.395-4.055-0.802-6.077-1.206c-1.96-0.393-3.926-0.782-5.873-1.183c-2.035-0.419-4.051-0.851-6.07-1.279
		c-1.915-0.406-3.835-0.808-5.737-1.222c-2.012-0.439-4.003-0.892-6-1.34c-1.888-0.424-3.785-0.842-5.66-1.274
		c-2.039-0.47-4.055-0.955-6.079-1.435c-1.783-0.423-3.579-0.84-5.351-1.271c-2.279-0.554-4.528-1.126-6.785-1.692
		c-1.499-0.376-3.012-0.744-4.501-1.125c-3.678-0.943-7.328-1.902-10.946-2.878c-1.499-0.404-2.972-0.822-4.461-1.232
		c-2.169-0.596-4.344-1.188-6.49-1.797c-1.608-0.456-3.188-0.925-4.783-1.387c-1.988-0.576-3.986-1.149-5.954-1.735
		c-1.648-0.491-3.271-0.994-4.905-1.492c-1.887-0.575-3.781-1.146-5.649-1.73c-1.637-0.512-3.251-1.035-4.874-1.554
		c-1.833-0.586-3.669-1.169-5.483-1.764c-1.619-0.531-3.216-1.072-4.82-1.609c-1.783-0.598-3.57-1.194-5.334-1.801
		c-1.601-0.551-3.183-1.11-4.768-1.668c-1.732-0.609-3.463-1.217-5.176-1.835c-1.584-0.57-3.148-1.148-4.714-1.725
		c-1.681-0.62-3.361-1.24-5.023-1.868c-1.545-0.583-3.073-1.172-4.601-1.763c-1.655-0.639-3.306-1.28-4.941-1.927
		c-1.511-0.598-3.008-1.201-4.504-1.806c-1.606-0.651-3.208-1.304-4.796-1.962c-1.48-0.613-2.949-1.231-4.41-1.85
		c-1.573-0.667-3.135-1.337-4.687-2.011c-1.437-0.625-2.867-1.252-4.288-1.883c-1.544-0.686-3.074-1.375-4.596-2.069
		c-1.394-0.635-2.782-1.271-4.159-1.912c-1.506-0.701-2.995-1.407-4.48-2.116c-1.35-0.644-2.698-1.29-4.032-1.941
		c-1.478-0.721-2.936-1.448-4.39-2.177c-1.305-0.653-2.61-1.306-3.896-1.965c-1.451-0.743-2.881-1.494-4.308-2.245
		c-1.248-0.656-2.498-1.31-3.727-1.97c-1.419-0.763-2.813-1.534-4.207-2.304c-1.205-0.665-2.417-1.328-3.603-1.998
		c-1.393-0.787-2.757-1.583-4.126-2.377c-1.142-0.663-2.292-1.322-3.417-1.989c-1.396-0.829-2.757-1.666-4.124-2.503
		c-1.059-0.646-2.13-1.289-3.17-1.94c-1.408-0.88-2.778-1.77-4.156-2.659c-0.962-0.621-1.944-1.236-2.893-1.861
		c-1.524-1.004-3.005-2.021-4.491-3.035c-0.757-0.517-1.536-1.028-2.282-1.547c-2.21-1.536-4.378-3.084-6.498-4.642
		c-0.38-0.28-0.741-0.565-1.119-0.846c-1.733-1.287-3.452-2.577-5.124-3.878c-0.735-0.572-1.435-1.152-2.159-1.727
		c-1.281-1.019-2.569-2.036-3.813-3.064c-0.798-0.66-1.563-1.327-2.345-1.991c-1.123-0.951-2.252-1.9-3.342-2.859
		c-0.801-0.703-1.568-1.413-2.35-2.12c-1.031-0.932-2.067-1.862-3.067-2.8c-0.781-0.732-1.531-1.47-2.291-2.206
		c-0.952-0.919-1.906-1.839-2.828-2.764c-0.756-0.76-1.487-1.526-2.223-2.29c-0.88-0.912-1.759-1.824-2.611-2.742
		c-0.72-0.777-1.414-1.558-2.114-2.34c-0.821-0.917-1.639-1.834-2.43-2.756c-0.68-0.791-1.338-1.586-1.996-2.381
		c-0.761-0.919-1.515-1.839-2.247-2.764c-0.634-0.802-1.252-1.607-1.864-2.413c-0.708-0.932-1.408-1.866-2.088-2.803
		c-0.583-0.805-1.153-1.613-1.715-2.422c-0.654-0.942-1.295-1.885-1.918-2.831c-0.539-0.818-1.068-1.637-1.584-2.458
		c-0.598-0.949-1.178-1.902-1.746-2.857c-0.489-0.821-0.969-1.643-1.433-2.467c-0.546-0.963-1.067-1.931-1.581-2.899
		c-0.437-0.824-0.87-1.649-1.285-2.477c-0.488-0.977-0.953-1.959-1.41-2.94c-0.386-0.827-0.772-1.654-1.135-2.485
		c-0.432-0.987-0.834-1.978-1.233-2.969c-0.335-0.833-0.676-1.666-0.987-2.503c-0.374-1.001-0.715-2.006-1.056-3.012
		c-0.281-0.831-0.573-1.661-0.832-2.495c-0.32-1.027-0.6-2.059-0.885-3.09c-0.225-0.818-0.465-1.634-0.668-2.454
		c-0.266-1.072-0.489-2.148-0.717-3.224c-0.167-0.787-0.352-1.571-0.499-2.359c-0.211-1.133-0.373-2.272-0.542-3.41
		c-0.11-0.74-0.242-1.477-0.335-2.219c-0.157-1.263-0.258-2.532-0.361-3.801c-0.052-0.621-0.131-1.239-0.169-1.861
		c-0.118-1.893-0.181-3.792-0.181-5.697v0c0,0,0.591-1.849,1.582-5.216c-99.489,96.267-118.888,455.445,423.176,449.365
		c626.879-7.032,702.136-410.055,702.136-410.055l-2.37-0.1c-41.049,108.599-275.717,191.846-559.075,191.846
		c-14.728,0-29.324-0.227-43.77-0.668c0.001,0,0.002,0,0.002,0C1012.236,899.497,1007.652,899.334,1003.084,899.149z"/>
	<path style="fill:#8FC18B;" d="M1542.886,1289.141c4.422,26.528,35.371,42.003,54.162,33.16
		c18.792-8.843,58.584-143.696,66.321-229.913c7.738-86.217-6.237-127.116-34.62-135.958c0,0-6.278-2.827-23.964,5.771
		c-17.685,8.599-58.583,39.549-79.585,49.497c-21.002,9.948-26.529,21.001-25.424,44.214
		C1500.884,1079.124,1538.465,1262.612,1542.886,1289.141z"/>
	<path style="fill:#254924;" d="M1651.637,1583.603c-57.014,33.067-116.469,61.653-179.412,81.579
		c-62.704,19.85-127.641,29.179-193.194,32.661c-134.891,7.163-270.216-10.99-401.422-41.511
		c-65.617-15.264-130.458-33.765-194.556-54.469c-57.979-18.726-115.332-44.141-176.321-51.184
		c-33.27-3.843-66.376-1.261-97.685,8.728c-0.01,0.004-0.021,0.005-0.031,0.009c0.374,0.51,0.771,1.003,1.147,1.512
		c0.077,0.103,0.157,0.203,0.234,0.307c3.056,4.134,6.165,8.233,9.328,12.295c0.585,0.749,1.155,1.508,1.743,2.256
		c0.027,0.035,0.058,0.069,0.086,0.105c3.764,4.785,7.601,9.52,11.515,14.201c0.539,0.646,1.095,1.281,1.638,1.925
		c3.384,4.012,6.827,7.982,10.322,11.916c0.27,0.304,0.528,0.618,0.798,0.922c0.651,0.729,1.312,1.45,1.967,2.177
		c3.821,4.242,7.719,8.429,11.669,12.576c0.688,0.722,1.385,1.435,2.076,2.154c3.787,3.935,7.61,7.842,11.515,11.688
		c0.956,0.942,1.923,1.874,2.887,2.81c3.661,3.56,7.375,7.082,11.142,10.565c0.855,0.791,1.7,1.59,2.56,2.377
		c4.555,4.164,9.177,8.276,13.883,12.324c0.376,0.324,0.756,0.645,1.134,0.968c0.232,0.199,0.475,0.39,0.707,0.588
		c4.101,3.503,8.265,6.957,12.48,10.37c1.159,0.939,2.321,1.877,3.49,2.809c4.581,3.656,9.214,7.273,13.926,10.823
		c0.265,0.2,0.522,0.405,0.787,0.604c5.023,3.771,10.139,7.469,15.311,11.118c1.173,0.827,2.362,1.642,3.543,2.464
		c4.225,2.939,8.5,5.837,12.825,8.694c0.952,0.63,1.885,1.275,2.843,1.9c11.839,7.731,24.049,15.149,36.622,22.251
		c0.391,0.222,0.798,0.43,1.189,0.651c5.036,2.83,10.122,5.616,15.275,8.344c0.013,0.006,0.023,0.013,0.036,0.019
		c0.632,0.334,1.25,0.681,1.884,1.013c0.004,0.002,0.008,0.004,0.012,0.006c5.789,3.04,11.665,6.003,17.603,8.911
		c0.092,0.045,0.182,0.093,0.274,0.139c1.297,0.635,2.616,1.252,3.922,1.881c4.792,2.31,9.633,4.575,14.522,6.798
		c0.111,0.05,0.22,0.105,0.331,0.156c1.354,0.615,2.703,1.234,4.065,1.843c6.113,2.731,12.287,5.407,18.549,8.001
		c0.688,0.285,1.393,0.556,2.084,0.84c5.594,2.298,11.256,4.533,16.969,6.722c1.671,0.64,3.348,1.275,5.029,1.906
		c0.05,0.018,0.102,0.036,0.153,0.055c5.494,2.059,11.04,4.071,16.643,6.029c1.027,0.358,2.036,0.731,3.066,1.087
		c6.56,2.261,13.204,4.443,19.912,6.563c1.234,0.39,2.478,0.767,3.72,1.148c0.376,0.115,0.751,0.231,1.127,0.347
		c5.373,1.661,10.794,3.277,16.261,4.847c0.609,0.175,1.201,0.366,1.811,0.54c1.174,0.334,2.357,0.661,3.535,0.991
		c6.905,1.934,13.865,3.814,20.918,5.601c0.647,0.164,1.307,0.314,1.955,0.476c6.431,1.615,12.936,3.156,19.492,4.647
		c2.015,0.458,4.039,0.907,6.066,1.354c5.959,1.313,11.969,2.576,18.029,3.786c1.416,0.283,2.814,0.583,4.236,0.86
		c7.338,1.431,14.758,2.78,22.244,4.06c1.09,0.186,2.181,0.373,3.274,0.555c0.713,0.12,1.446,0.219,2.161,0.337
		c5.976,0.987,12.001,1.926,18.071,2.816c1.258,0.184,2.482,0.403,3.743,0.583c0.034,0.005,0.071,0.009,0.105,0.014
		c0.816,0.116,1.654,0.207,2.471,0.321c7.716,1.082,15.484,2.11,23.349,3.034c0.439,0.052,0.888,0.094,1.328,0.145
		c7.447,0.866,14.977,1.643,22.558,2.366c2.271,0.216,4.555,0.42,6.839,0.624c6.48,0.578,13.008,1.104,19.585,1.576
		c1.775,0.128,3.532,0.273,5.312,0.393c8.148,0.548,16.374,1.013,24.671,1.399c1.749,0.081,3.517,0.142,5.273,0.216
		c0.184,0.007,0.369,0.011,0.552,0.018c6.657,0.277,13.364,0.503,20.118,0.675c2.003,0.051,3.994,0.118,6.006,0.16
		c0.398,0.008,0.805,0.005,1.204,0.013c8.56,0.17,17.168,0.285,25.88,0.285c9.023,0,17.937-0.124,26.798-0.306
		c0.294-0.006,0.598-0.004,0.891-0.01c2.214-0.047,4.407-0.119,6.611-0.177c6.901-0.183,13.753-0.421,20.555-0.714
		c0.059-0.003,0.119-0.004,0.178-0.006c2.055-0.088,4.125-0.162,6.17-0.26c8.593-0.415,17.112-0.91,25.545-1.499
		c1.68-0.118,3.333-0.263,5.007-0.387c6.905-0.512,13.756-1.084,20.554-1.713c1.858-0.172,3.728-0.329,5.578-0.51
		c0.557-0.054,1.098-0.124,1.652-0.18c7.188-0.712,14.321-1.483,21.387-2.324c0.801-0.095,1.625-0.166,2.423-0.263
		c0.317-0.038,0.629-0.081,0.946-0.12c8.096-0.99,16.098-2.081,24.034-3.239c2.084-0.304,4.146-0.63,6.219-0.946
		c6.175-0.94,12.302-1.931,18.38-2.972c2.07-0.355,4.149-0.701,6.209-1.067c7.748-1.378,15.434-2.82,23.021-4.362
		c0.755-0.154,1.494-0.323,2.247-0.478c6.872-1.415,13.67-2.906,20.411-4.453c1.369-0.314,2.752-0.615,4.115-0.935
		c0.707-0.166,1.393-0.353,2.098-0.52c6.039-1.43,12.023-2.913,17.955-4.449c0.924-0.24,1.875-0.451,2.797-0.693
		c0.531-0.139,1.051-0.287,1.582-0.427c7.226-1.912,14.371-3.904,21.439-5.972c1.541-0.451,3.059-0.924,4.592-1.383
		c5.695-1.701,11.34-3.453,16.93-5.255c1.852-0.596,3.703-1.191,5.542-1.799c6.77-2.236,13.487-4.521,20.103-6.903
		c0.106-0.038,0.214-0.073,0.321-0.112c6.789-2.447,13.474-4.994,20.101-7.593c0.909-0.357,1.831-0.7,2.737-1.06
		c0.762-0.302,1.497-0.628,2.256-0.932c5.264-2.107,10.475-4.262,15.637-6.465c0.807-0.344,1.64-0.665,2.445-1.011
		c0.639-0.275,1.266-0.562,1.902-0.838c6.412-2.785,12.754-5.634,19.006-8.565c0.84-0.394,1.661-0.804,2.499-1.201
		c5.431-2.572,10.796-5.203,16.106-7.883c1.556-0.785,3.106-1.575,4.651-2.369c12.7-6.53,25.074-13.35,37.072-20.493
		c0.7-0.416,1.37-0.857,2.067-1.276c4.698-2.819,9.34-5.684,13.929-8.596c0.618-0.391,1.258-0.762,1.873-1.156
		c5.725-3.659,11.354-7.399,16.907-11.202c0.616-0.422,1.222-0.853,1.837-1.277c5.293-3.652,10.527-7.353,15.67-11.128
		c1.217-0.894,2.426-1.796,3.635-2.697c4.436-3.305,8.819-6.655,13.138-10.053c0.815-0.64,1.642-1.269,2.45-1.913
		c5.108-4.058,10.135-8.18,15.078-12.366c0.712-0.604,1.408-1.221,2.118-1.827c4.224-3.61,8.384-7.268,12.488-10.97
		c0.434-0.392,0.889-0.768,1.323-1.161c0.615-0.558,1.212-1.129,1.825-1.689c4.554-4.165,9.026-8.394,13.431-12.671
		c0.452-0.438,0.898-0.882,1.349-1.322c4.279-4.181,8.503-8.405,12.641-12.693c0.859-0.889,1.704-1.787,2.556-2.681
		c0.017-0.017,0.033-0.035,0.049-0.053c3.701-3.883,7.346-7.808,10.933-11.775c0.729-0.806,1.47-1.604,2.194-2.414
		c0.038-0.041,0.072-0.083,0.109-0.124c4.278-4.785,8.486-9.621,12.6-14.523c0.179-0.214,0.352-0.433,0.532-0.647
		c3.838-4.588,7.589-9.238,11.285-13.926c0.275-0.35,0.567-0.689,0.843-1.04c0.529-0.674,1.039-1.359,1.565-2.035
		c0.019-0.025,0.037-0.05,0.057-0.075c3.528-4.537,7-9.113,10.395-13.741c0.309-0.421,0.628-0.836,0.936-1.258
		c3.765-5.16,7.442-10.38,11.041-15.649c0.177-0.257,0.364-0.506,0.539-0.763c-0.013,0.009-0.029,0.018-0.043,0.026
		c-7.794,4.964-15.665,9.806-23.605,14.526C1684.848,1565.896,1667.911,1574.164,1651.637,1583.603z"/>
	<path style="fill:#223F20;" d="M1530.401,1861.138c-15.116-16.25-28.612-33.989-40.644-52.629
		c-9.988-15.476-18.921-31.62-26.968-48.189c-1.67,0.77-3.382,1.501-5.061,2.26c-3.237,1.463-6.479,2.921-9.758,4.345
		c-0.637,0.276-1.263,0.563-1.902,0.838c-1.779,0.766-3.588,1.504-5.378,2.259c-3.307,1.394-6.629,2.773-9.976,4.128
		c-1.662,0.673-3.311,1.358-4.983,2.021c-0.906,0.36-1.827,0.703-2.737,1.06c-3.207,1.258-6.44,2.489-9.685,3.711
		c-0.48,0.181-0.951,0.37-1.431,0.549c23.516,30.508,57.92,70.47,85.594,83.493c3.54,1.666,7.241,3.138,11.039,4.466
		c0.305,0.107,0.611,0.214,0.92,0.319c3.806,1.298,7.709,2.455,11.701,3.44c0.007,0.002,0.016,0.005,0.025,0.007
		c4.021,0.992,8.126,1.818,12.271,2.516c0.27,0.045,0.539,0.091,0.809,0.136c3.891,0.637,7.82,1.137,11.757,1.536
		c0.268,0.028,0.532,0.079,0.799,0.105c-0.011-0.011-0.022-0.023-0.035-0.034C1541.109,1872.23,1535.649,1866.78,1530.401,1861.138z
		"/>
	<path style="fill:#223F20;" d="M703.907,1779.435c-2.548-0.976-5.093-1.953-7.616-2.95c-2.054-0.812-4.086-1.643-6.125-2.469
		c-1.074-0.436-2.159-0.863-3.228-1.302c-0.691-0.283-1.396-0.554-2.084-0.84c-1.808-0.749-3.586-1.523-5.381-2.283
		c-2.089-0.885-4.172-1.775-6.243-2.676c-2.318-1.006-4.629-2.017-6.925-3.042c-1.362-0.608-2.711-1.228-4.065-1.843
		c-1.268-0.576-2.561-1.129-3.822-1.71c-8.048,16.569-16.98,32.713-26.97,48.189c-12.03,18.64-25.527,36.379-40.644,52.629
		c-5.247,5.642-10.708,11.092-16.355,16.338c-0.013,0.011-0.024,0.022-0.035,0.034c0.266-0.026,0.529-0.077,0.797-0.104
		c3.937-0.4,7.868-0.9,11.759-1.537c0.271-0.044,0.54-0.09,0.811-0.136c4.144-0.698,8.249-1.524,12.272-2.517c0,0,0,0,0.001,0
		c0.006-0.002,0.014-0.003,0.021-0.005c3.993-0.986,7.897-2.142,11.703-3.441c0.307-0.105,0.612-0.211,0.917-0.317
		c3.798-1.328,7.499-2.8,11.041-4.467c27.675-13.023,62.08-52.985,85.593-83.493c-0.131-0.049-0.26-0.102-0.393-0.151
		C707.255,1780.71,705.578,1780.075,703.907,1779.435z"/>
	<path style="fill:#3F723B;" d="M212.967,1081.434c9.289,3.87,34.871,3.656,64.406,0.253
		c49.281-5.678,109.568-20.231,123.563-39.499c1.859-2.559,3.003-5.347,3.613-8.267c1.878-8.977-1.476-19.232-6.119-28.234v0l0,0
		c-13.295-7.353-170.316,49.584-182.25,36.272c-11.935-13.312-27.542-130.362-32.591-149.182c-1.354-5.045-3.039-8.637-4.778-11.244
		c-0.309,0.539-0.68,1.051-0.96,1.604C157.8,922.857,188.179,1071.106,212.967,1081.434z"/>
	<path style="fill:#3F723B;" d="M320.378,885.202l2.758-6.097l6.636-14.68c-22.564,2.775-80.755,11.225-90.969,25.597
		c-12.722,17.902,0,36.719,0,36.719l0.001-0.001c-0.132-3.757,0.095-7.039,0.787-9.636
		C243.262,903.333,320.378,885.202,320.378,885.202z"/>
	<path style="fill:#3F723B;" d="M1905.139,1041.958c-11.934,13.311-168.954-43.625-182.25-36.272l0,0v0
		c-6.154,11.93-10.079,26.076-2.508,36.501c13.985,19.254,74.19,33.799,123.449,39.486c29.584,3.415,55.221,3.635,64.522-0.24
		c24.788-10.328,55.166-158.577,35.115-198.297c-0.279-0.554-0.651-1.065-0.96-1.604c-1.739,2.606-3.424,6.199-4.778,11.244
		C1932.68,911.596,1917.074,1028.647,1905.139,1041.958z"/>
	<path style="fill:#3F723B;" d="M1881.729,917.104c0.692,2.597,0.919,5.88,0.787,9.636l0.001,0.001c0,0,12.722-18.817,0-36.719
		c-10.214-14.372-68.404-22.822-90.969-25.597l5.391,11.926l4.003,8.852C1800.942,885.202,1878.057,903.333,1881.729,917.104z"/>
	<path style="fill:#70AA6B;" d="M1877.808,1009.487c6.079,3.869,12.67,7.185,21.534,0c8.863-7.185,29.313-122.157,24.338-127.953
		c0,0-7.738-8.021-13.263,0c-5.527,8.022-23.766,88.16-28.739,103.082C1876.703,999.539,1871.728,1005.618,1877.808,1009.487z"/>
</g>
</svg>
