<?xml version="1.0" encoding="utf-8"?>
<!-- Generator: Adobe Illustrator 27.5.0, SVG Export Plug-In . SVG Version: 6.00 Build 0)  -->
<svg version="1.1" id="Capa_1" xmlns="http://www.w3.org/2000/svg" xmlns:xlink="http://www.w3.org/1999/xlink" x="0px" y="0px"
	 viewBox="0 0 2193 2053" style="enable-background:new 0 0 2193 2053;" xml:space="preserve">
<path style="fill:#5DAD5B;" d="M2141.296,148.196l-1.139-0.56l-0.412-0.202c-0.505-0.246-1.012-0.492-1.522-0.737l-0.012-0.006
	c-0.493-0.237-0.989-0.473-1.487-0.709l-0.493-0.233l-1.136-0.533l-0.409-0.191c-0.523-0.243-1.047-0.486-1.573-0.727l-0.074-0.033
	c-0.486-0.222-0.974-0.444-1.464-0.666l-0.535-0.241l-1.032-0.462l-0.651-0.289c-0.495-0.22-0.992-0.439-1.492-0.657l-0.248-0.108
	l-1.302-0.564l-0.68-0.292l-1.003-0.427l-0.59-0.25l-1.183-0.496l-1.077-0.448l-0.873-0.36l-0.795-0.324l-0.852-0.345l-0.861-0.347
	l-1.018-0.406l-1.172-0.463l-0.877-0.344l-0.859-0.334l-0.86-0.332l-0.881-0.338l-0.485-0.184c-0.681-0.258-1.364-0.516-2.052-0.772
	l-0.563-0.21l-1.039-0.384l-0.615-0.225l-1.101-0.401l-0.182-0.066c-0.904-0.326-1.813-0.651-2.726-0.973l-0.083-0.029l-1.333-0.467
	l-0.333-0.115c-1.389-0.483-2.791-0.96-4.204-1.432l-0.181-0.061l-1.38-0.457l-0.205-0.068c-0.56-0.184-1.122-0.367-1.686-0.55
	l-0.417-0.135l-1.276-0.409l-0.484-0.154c-0.527-0.168-1.055-0.334-1.585-0.499l-0.649-0.202l-0.9-0.278l-0.891-0.274l-0.807-0.245
	c-0.462-0.14-0.925-0.28-1.39-0.419l-0.844-0.253l-1.049-0.309l-0.498-0.146l-1.069-0.311l-0.469-0.135
	c-0.713-0.206-1.429-0.41-2.146-0.613l-0.325-0.092l-1.317-0.369l-0.005-0.001c-161.115-44.811-445.601-18.909-733.166,321.342
	c-281.14,332.649-357.888,609-377.324,706.037c8.159-89.66-20.69-211.036-34.959-263.971c7.222-9.022,11.077-18.461,11.137-28.191
	c0.414-66.94-178.845-122.319-400.388-123.69c-221.542-1.372-401.473,51.783-401.888,118.723
	c-0.051,8.187,2.589,16.202,7.663,23.966c-42.296,84.247-208.269,461.687,8.454,821.994
	c96.736,160.826,293.942,236.428,476.719,243.705l0.113,0.004c1.434,0.057,2.866,0.11,4.298,0.158l0.112,0.004
	c2.889,0.098,5.775,0.179,8.655,0.242l1.107,0.021c1.1,0.022,2.199,0.045,3.298,0.062l1.332,0.018
	c1.021,0.014,2.044,0.029,3.064,0.04c1.465,0.014,2.929,0.025,4.391,0.031l0.138,0c1.492,0.006,2.983,0.007,4.472,0.004l0.071,0
	c1.494-0.004,2.987-0.011,4.478-0.024l0.156-0.002c1.465-0.013,2.93-0.03,4.392-0.052l0.218-0.004
	c1.444-0.022,2.889-0.048,4.33-0.078l0.25-0.006c1.456-0.031,2.91-0.067,4.363-0.107l0.017-0.001c1.51-0.042,3.017-0.088,4.523-0.14
	c10.704-0.365,21.338-0.821,31.897-1.381c2.112-0.111,4.222-0.227,6.327-0.348c1.053-0.06,2.106-0.121,3.157-0.183
	c2.103-0.124,4.203-0.253,6.299-0.386c2.097-0.133,4.191-0.27,6.282-0.412c3.136-0.212,6.265-0.435,9.388-0.667
	c3.122-0.233,6.237-0.475,9.345-0.728c2.072-0.169,4.14-0.342,6.207-0.521c2.065-0.178,4.128-0.361,6.187-0.55
	c3.089-0.281,6.171-0.574,9.245-0.879c2.049-0.203,4.095-0.41,6.138-0.622c2.042-0.212,4.083-0.43,6.118-0.654
	c2.036-0.223,4.069-0.451,6.098-0.684c3.044-0.35,6.081-0.711,9.109-1.085c2.019-0.25,4.034-0.504,6.046-0.764
	c1.006-0.13,2.012-0.261,3.015-0.394c2.008-0.266,4.013-0.536,6.015-0.813c2.002-0.277,4-0.559,5.994-0.847s3.985-0.581,5.973-0.881
	c6.955-1.048,13.867-2.166,20.732-3.359c1.962-0.341,3.92-0.688,5.874-1.041c4.886-0.882,9.748-1.803,14.585-2.764
	c1.936-0.384,3.867-0.775,5.794-1.172c0.964-0.198,1.927-0.399,2.888-0.601c5.771-1.211,11.506-2.481,17.207-3.811
	c1.9-0.443,3.796-0.893,5.688-1.351c3.784-0.915,7.552-1.857,11.303-2.826c2.814-0.728,5.618-1.471,8.414-2.23
	c1.863-0.506,3.722-1.02,5.578-1.541c1.855-0.521,3.706-1.049,5.552-1.584c3.693-1.07,7.37-2.171,11.03-3.301
	c2.744-0.848,5.48-1.712,8.204-2.594c2.725-0.882,5.441-1.781,8.148-2.697c0.902-0.306,1.802-0.613,2.702-0.922
	c2.699-0.928,5.388-1.874,8.067-2.838c1.786-0.643,3.568-1.293,5.345-1.951c2.666-0.988,5.322-1.993,7.967-3.018
	c0.882-0.341,1.763-0.685,2.643-1.03c1.759-0.691,3.514-1.39,5.264-2.098c0.875-0.354,1.748-0.71,2.622-1.068
	c130.041-53.327,234.591-153.003,299.751-335.243c47.397-132.561,62.565-281.438,76.645-430.764l0.07-0.743
	c0.382-4.052,0.764-8.105,1.145-12.157l0.073-0.776c0.799-8.499,1.599-16.998,2.403-25.494c0.408-4.31,0.817-8.619,1.228-12.927
	c0.262-2.746,0.526-5.492,0.79-8.237l0.076-0.793c0.39-4.04,0.781-8.079,1.175-12.116c0.153-1.562,0.305-3.123,0.458-4.684
	c0.55-5.591,1.106-11.179,1.669-16.763l0.083-0.828c0.407-4.017,0.816-8.031,1.231-12.043l0.087-0.846
	c1.022-9.876,2.073-19.738,3.162-29.58c0.157-1.425,0.316-2.85,0.475-4.274c0.459-4.109,0.926-8.215,1.399-12.316l0.114-0.986
	c0.29-2.51,0.584-5.019,0.881-7.526l0.12-1.009c0.296-2.498,0.595-4.996,0.897-7.492l0.118-0.975
	c0.326-2.681,0.655-5.36,0.988-8.037c0.176-1.416,0.354-2.83,0.533-4.245c1.404-11.141,2.877-22.247,4.432-33.312
	c0.221-1.577,0.444-3.153,0.669-4.728c0.401-2.807,0.806-5.61,1.218-8.41c1.235-8.401,2.52-16.776,3.862-25.122
	c1.341-8.346,2.739-16.662,4.199-24.947c0.487-2.762,0.981-5.52,1.482-8.274c0.751-4.131,1.519-8.254,2.304-12.369
	c0.522-2.743,1.052-5.482,1.59-8.217c0.807-4.103,1.632-8.196,2.474-12.281c0.281-1.362,0.564-2.722,0.848-4.082
	c0.855-4.078,1.728-8.147,2.62-12.206c0.297-1.353,0.597-2.705,0.898-4.055c0.604-2.702,1.215-5.399,1.836-8.091
	c1.105-4.796,2.239-9.578,3.402-14.345c0.775-3.178,1.563-6.349,2.364-9.513c0.402-1.582,0.806-3.163,1.213-4.741
	c3.667-14.208,7.609-28.276,11.86-42.185c0.472-1.545,0.947-3.089,1.427-4.631c0.405-1.298,0.811-2.595,1.22-3.89
	c1.229-3.886,2.483-7.759,3.763-11.619c1.278-3.86,2.584-7.707,3.916-11.54c4.881-14.056,10.116-27.93,15.742-41.604
	c1.534-3.729,3.099-7.443,4.691-11.142c0.962-2.235,1.936-4.464,2.921-6.688c0.984-2.224,1.981-4.442,2.988-6.654
	c1.51-3.319,3.046-6.624,4.607-9.916c1.561-3.292,3.148-6.571,4.761-9.837c2.152-4.354,4.35-8.683,6.597-12.989
	c10.109-19.373,21.193-38.246,33.374-56.558l0.349-0.523c0.641-0.962,1.282-1.921,1.923-2.877l0.719-1.071
	c0.633-0.942,1.266-1.882,1.899-2.819l0.443-0.656c0.779-1.149,1.557-2.293,2.337-3.433l0.426-0.624
	c25.312-37.016,50.967-69.746,76.607-98.615l-0.112,0.077c9.77-11.005,19.538-21.444,29.285-31.335l0.009,0.034
	c106.571-108.147,210.535-150.903,286.071-153.598l0.121-0.005c1.213-0.042,2.419-0.074,3.617-0.096l0.364-0.006
	c1.15-0.019,2.293-0.029,3.429-0.029l0.386,0.001c0.517,0.001,1.033,0.003,1.548,0.008l0.143,0.001
	c0.543,0.005,1.083,0.013,1.621,0.023l0.461,0.009c0.495,0.01,0.99,0.022,1.483,0.035l0.158,0.004
	c0.531,0.015,1.061,0.033,1.589,0.052l0.47,0.018l1.365,0.057l0.361,0.017c0.485,0.023,0.968,0.048,1.45,0.075l0.445,0.026
	c0.465,0.027,0.929,0.055,1.391,0.085l0.182,0.011c6.521,0.432,13.032,0.624,19.522,0.577c2.163-0.016,4.324-0.057,6.481-0.126
	c1.078-0.034,2.156-0.075,3.234-0.122c4.308-0.19,8.604-0.485,12.881-0.886c1.07-0.1,2.139-0.207,3.205-0.32
	c7.47-0.794,14.883-1.91,22.215-3.346c2.095-0.41,4.184-0.846,6.265-1.309c3.122-0.694,6.228-1.447,9.316-2.258
	c5.147-1.352,10.246-2.867,15.287-4.542c3.025-1.006,6.029-2.07,9.01-3.192c0.994-0.374,1.985-0.755,2.974-1.142
	c3.702-1.449,7.369-2.99,10.995-4.62c3.626-1.631,7.213-3.352,10.758-5.161c0.983-0.502,1.963-1.01,2.939-1.526
	c0.801-0.423,1.6-0.851,2.397-1.283c3.982-2.162,7.907-4.44,11.769-6.833c1.545-0.958,3.079-1.933,4.603-2.928
	c1.19-0.776,2.374-1.564,3.551-2.363c0.675-0.458,1.348-0.921,2.019-1.386c1.024-0.711,2.042-1.43,3.057-2.158
	c0.656-0.471,1.311-0.946,1.963-1.424c1.145-0.84,2.283-1.691,3.414-2.553c0.513-0.391,1.024-0.784,1.534-1.179
	c1.251-0.97,2.494-1.954,3.729-2.952l1.144-0.931c1.344-1.101,2.678-2.218,4.001-3.353c1.624-1.393,3.23-2.811,4.821-4.252
	c0.971-0.88,1.937-1.767,2.895-2.666c0.785-0.735,1.565-1.476,2.341-2.224l2.569-2.478c-0.496-0.25-0.994-0.498-1.495-0.747
	L2141.296,148.196z"/>
<path style="fill:#459B4D;" d="M542.241,978.478c-30.673-0.19-60.533-1.416-89.221-3.563c-14.713-0.138-28.133-0.268-39.907-0.268
	c116.657,61.106,386.053,52.226,508.266,7.785c10.986-3.661,21.11-8.735,30.369-14.902c-6.54-32.336-13.604-60.441-18.759-79.581
	C890.519,940.997,731.576,979.649,542.241,978.478z"/>
<path style="fill:#459B4D;" d="M1302.813,866.274c-19.731,172.247-49.647,345.47-119.308,495.862l3.952,26.013
	c0.512,3.366,3.154,6.009,6.521,6.52l40.573,6.165c1.119,0.17,1.119,1.783,0,1.953l-40.573,6.164
	c-3.367,0.511-6.009,3.153-6.521,6.52l-6.164,40.573c-0.171,1.12-1.783,1.12-1.953,0l-6.164-40.573
	c-0.511-3.367-3.154-6.009-6.52-6.52l-6.067-0.922c-54.117,100.638-128.734,189.163-233.654,257.682
	c-224.211,141.78-528.658,154.392-763.501,43.651c103.375,162.481,311.067,234.925,497.626,235.668l0.138,0
	c1.492,0.006,2.983,0.007,4.472,0.004l0.071,0c1.494-0.004,2.987-0.011,4.478-0.024l0.156-0.002c1.465-0.013,2.93-0.03,4.392-0.052
	l0.218-0.004c1.444-0.022,2.889-0.048,4.33-0.078l0.25-0.006c1.456-0.031,2.91-0.067,4.363-0.107l0.017-0.001
	c1.51-0.042,3.017-0.088,4.523-0.14c10.704-0.365,21.338-0.821,31.897-1.381c2.112-0.111,4.222-0.227,6.327-0.348
	c1.053-0.06,2.106-0.121,3.157-0.183c2.103-0.124,4.203-0.253,6.299-0.386c2.097-0.133,4.191-0.27,6.282-0.412
	c3.136-0.212,6.265-0.435,9.388-0.667c3.122-0.233,6.237-0.475,9.345-0.728c2.072-0.169,4.14-0.342,6.207-0.521
	c2.065-0.178,4.128-0.361,6.187-0.55c3.089-0.281,6.171-0.574,9.245-0.879c2.049-0.203,4.095-0.41,6.138-0.622
	c2.042-0.212,4.083-0.43,6.118-0.654c2.036-0.223,4.069-0.451,6.098-0.684c3.044-0.35,6.08-0.711,9.109-1.085
	c2.019-0.25,4.034-0.504,6.046-0.764c1.006-0.13,2.012-0.261,3.015-0.394c2.008-0.266,4.013-0.536,6.015-0.813
	c2.002-0.277,4-0.559,5.994-0.847s3.985-0.581,5.973-0.881c6.955-1.048,13.867-2.166,20.732-3.359
	c1.962-0.341,3.92-0.688,5.874-1.041c4.886-0.882,9.748-1.803,14.585-2.764c1.936-0.384,3.867-0.775,5.794-1.172
	c0.964-0.198,1.927-0.399,2.888-0.601c5.771-1.211,11.506-2.481,17.207-3.811c1.9-0.443,3.796-0.893,5.688-1.351
	c3.784-0.915,7.552-1.857,11.303-2.826c2.814-0.728,5.618-1.471,8.414-2.23c1.863-0.506,3.722-1.02,5.578-1.541
	c1.855-0.521,3.706-1.049,5.552-1.584c3.693-1.07,7.37-2.171,11.03-3.301c2.744-0.848,5.48-1.712,8.204-2.594
	c2.725-0.882,5.441-1.781,8.148-2.697c0.902-0.306,1.802-0.613,2.702-0.922c2.699-0.928,5.388-1.874,8.067-2.838
	c1.786-0.643,3.568-1.293,5.345-1.951c2.666-0.988,5.322-1.993,7.967-3.018c0.882-0.341,1.763-0.685,2.643-1.03
	c1.759-0.691,3.514-1.39,5.264-2.098c0.875-0.354,1.748-0.71,2.622-1.068c130.041-53.327,234.591-153.003,299.751-335.243
	c47.397-132.561,62.565-281.438,76.645-430.764l0.07-0.743c0.382-4.052,0.764-8.105,1.145-12.157l0.073-0.776
	c0.799-8.499,1.599-16.998,2.403-25.494c0.408-4.31,0.817-8.619,1.228-12.927c0.262-2.746,0.526-5.492,0.79-8.237l0.076-0.793
	c0.39-4.04,0.781-8.079,1.175-12.116c0.153-1.562,0.305-3.123,0.458-4.684c0.55-5.591,1.106-11.179,1.669-16.763l0.083-0.828
	c0.407-4.017,0.816-8.031,1.231-12.043l0.087-0.846c1.022-9.876,2.073-19.738,3.162-29.58c0.157-1.425,0.316-2.85,0.475-4.274
	c0.459-4.109,0.926-8.215,1.399-12.316l0.114-0.986c0.29-2.51,0.584-5.019,0.881-7.526l0.12-1.009
	c0.296-2.498,0.595-4.996,0.897-7.492l0.118-0.975c0.326-2.681,0.655-5.36,0.988-8.037c0.176-1.416,0.354-2.83,0.533-4.245
	c1.404-11.141,2.877-22.247,4.432-33.312c0.221-1.577,0.444-3.153,0.669-4.728c0.401-2.807,0.806-5.61,1.218-8.41
	c1.235-8.401,2.52-16.776,3.862-25.122c1.341-8.346,2.739-16.662,4.199-24.947c0.487-2.762,0.981-5.52,1.482-8.274
	c0.751-4.131,1.519-8.254,2.304-12.369c0.522-2.743,1.052-5.482,1.59-8.217c1.076-5.47,2.183-10.925,3.322-16.362
	c0.855-4.078,1.728-8.147,2.62-12.206c0.297-1.353,0.597-2.705,0.898-4.055c0.604-2.702,1.215-5.399,1.836-8.091
	c5.896-25.58,12.588-50.751,20.266-75.415c0.405-1.298,0.811-2.595,1.22-3.89c2.458-7.772,5.015-15.493,7.678-23.159
	c4.881-14.056,10.116-27.93,15.742-41.604c1.534-3.729,3.099-7.443,4.691-11.142c15.403-35.757,33.593-70.086,55.248-102.641
	l0.349-0.522c0.641-0.962,1.282-1.921,1.923-2.877l0.719-1.071c0.633-0.942,1.266-1.882,1.899-2.819l0.443-0.656
	c0.779-1.149,1.557-2.293,2.337-3.433l0.426-0.624c25.312-37.016,50.967-69.746,76.607-98.615l-0.112,0.077
	C1460.32,508.807,1318.649,728.03,1302.813,866.274z"/>
<path style="fill:#01241E;" d="M2106.149,179.057c1.19-0.776,2.374-1.564,3.551-2.363c0.675-0.458,1.348-0.921,2.019-1.386
	c1.024-0.711,2.042-1.43,3.057-2.158c0.656-0.471,1.311-0.946,1.963-1.424c1.145-0.84,2.283-1.691,3.414-2.553
	c0.513-0.391,1.024-0.784,1.534-1.179c1.251-0.97,2.494-1.954,3.729-2.952l1.144-0.931c1.344-1.101,2.678-2.218,4.001-3.353
	c3.427-2.939,6.782-5.985,10.057-9.142l2.569-2.478c-0.496-0.25-0.994-0.498-1.495-0.747l-0.395-0.195l-1.139-0.56l-0.412-0.202
	c-0.505-0.246-1.012-0.492-1.522-0.737l-0.012-0.006c-0.493-0.237-0.989-0.473-1.487-0.709l-0.493-0.233l-1.136-0.533l-0.409-0.191
	c-0.523-0.243-1.047-0.486-1.573-0.727l-0.074-0.033c-0.486-0.222-0.974-0.444-1.464-0.666l-0.535-0.241l-1.032-0.462l-0.651-0.289
	c-0.495-0.22-0.992-0.439-1.492-0.657l-0.248-0.108l-1.302-0.564l-0.68-0.292l-1.003-0.427l-0.59-0.25l-1.183-0.496l-1.077-0.448
	l-0.873-0.36l-0.795-0.324l-0.852-0.345l-0.861-0.347l-1.018-0.406l-1.172-0.463l-0.877-0.344l-0.859-0.334l-0.86-0.332
	l-0.881-0.338l-0.485-0.184c-0.681-0.258-1.364-0.516-2.052-0.772l-0.563-0.21l-1.039-0.384l-0.615-0.225l-1.101-0.401l-0.182-0.066
	c-0.904-0.326-1.813-0.651-2.726-0.973l-0.083-0.029l-1.333-0.467l-0.333-0.115c-1.389-0.483-2.791-0.96-4.204-1.432l-0.181-0.061
	l-1.38-0.457l-0.205-0.068c-113.276-37.231-298.003-40.117-503.969,92.979c3.685,7.961,7.215,15.981,10.611,24.053l19.122-2.906
	c2.231-0.339,3.982-2.089,4.32-4.32l4.085-26.883c0.112-0.742,1.181-0.742,1.294,0l4.084,26.883c0.339,2.23,2.09,3.981,4.32,4.32
	l26.883,4.085c0.741,0.112,0.741,1.181,0,1.294l-26.883,4.084c-2.23,0.339-3.981,2.089-4.32,4.32l-4.084,26.883
	c-0.113,0.742-1.182,0.742-1.294,0l-4.085-26.883c-0.338-2.231-2.089-3.981-4.32-4.32l-17.492-2.658
	c16.262,39.23,29.372,79.653,41.115,120.492l0.009,0.034c106.571-108.147,210.535-150.903,286.071-153.598l0.121-0.005
	c1.213-0.042,2.419-0.074,3.617-0.096l0.364-0.006c1.15-0.019,2.293-0.029,3.429-0.029l0.386,0.001
	c0.517,0.001,1.033,0.003,1.548,0.008l0.143,0.001c0.543,0.005,1.083,0.013,1.621,0.023l0.461,0.009
	c0.495,0.01,0.99,0.022,1.483,0.035l0.158,0.004c0.531,0.015,1.061,0.033,1.589,0.052l0.47,0.018l1.365,0.057l0.361,0.017
	c0.485,0.023,0.968,0.048,1.45,0.075l0.445,0.026c0.465,0.027,0.929,0.055,1.391,0.085l0.182,0.011
	c8.694,0.576,17.373,0.725,26.004,0.452c1.078-0.034,2.156-0.075,3.234-0.122c4.308-0.19,8.604-0.485,12.881-0.886
	c1.07-0.1,2.139-0.207,3.205-0.32c7.47-0.794,14.883-1.91,22.215-3.346c2.095-0.41,4.184-0.846,6.265-1.309
	c3.122-0.694,6.228-1.447,9.316-2.258c5.147-1.352,10.246-2.867,15.287-4.542c4.032-1.341,8.029-2.786,11.983-4.334
	c7.405-2.898,14.663-6.162,21.752-9.781c0.983-0.502,1.963-1.01,2.939-1.526C2093.789,186.716,2100.052,183.034,2106.149,179.057z"
	/>
<ellipse transform="matrix(0.0062 -1 1 0.0062 -317.649 1394.9196)" style="fill:#01241E;" cx="542.967" cy="857.271" rx="77.309" ry="307.988"/>
<path style="fill:#69B867;" d="M370.307,1245.26l11.347-1.724c-14.011-63.808-34.445-122.483-61.178-166.322l-2.786,0.423
	c-14.964,2.273-26.708,14.018-28.981,28.981l-7.658,50.406c-0.278,1.829-2.915,1.829-3.193,0l-7.658-50.406
	c-2.274-14.964-14.018-26.708-28.981-28.981l-50.405-7.658c-1.83-0.278-1.83-2.915,0-3.193l50.406-7.658
	c14.963-2.274,26.706-14.017,28.98-28.98l1.439-9.474c-2.576-1.92-5.189-3.723-7.839-5.401
	c-42.163-26.702-98.63,0.486-113.663,48.076c-18.915,59.878-34.143,119.871-35.379,185.103c-0.307,24.974,0.485,49.738,2.471,74.209
	l31.728-4.82c4.681-0.711,8.355-4.385,9.066-9.066l8.571-56.415c0.236-1.557,2.478-1.557,2.716,0l8.571,56.415
	c0.712,4.681,4.386,8.355,9.067,9.066l56.415,8.572c1.556,0.237,1.556,2.479,0,2.716l-56.415,8.571
	c-4.681,0.712-8.355,4.385-9.067,9.066l-8.571,56.415c-0.238,1.557-2.48,1.557-2.716,0l-8.571-56.415
	c-0.711-4.682-4.385-8.355-9.066-9.066l-30.814-4.682c10.703,112.203,47.005,217.952,118.347,309.119
	c41.634,58.736,80.904,57.281,97.564,51.215c73.546-26.78,88.784-256.339,48.807-444.23l-12.554-1.907
	C369.187,1247.044,369.187,1245.431,370.307,1245.26z"/>
<path style="fill:#69B867;" d="M305.082,1054.586c-4.612-6.041-9.382-11.664-14.309-16.828
	C293.587,1044.819,298.646,1050.718,305.082,1054.586z"/>
<path style="fill:#FFFFFF;" d="M241.219,1059.129l-50.406,7.658c-1.83,0.278-1.83,2.915,0,3.193l50.405,7.658
	c14.964,2.273,26.708,14.017,28.981,28.981l7.658,50.406c0.278,1.829,2.914,1.829,3.193,0l7.658-50.406
	c2.273-14.963,14.017-26.708,28.981-28.981l2.786-0.423l47.62-7.235c1.829-0.278,1.829-2.915,0-3.193l-50.406-7.658
	c-4.561-0.693-8.822-2.267-12.607-4.543c-6.436-3.869-11.495-9.767-14.309-16.828c-0.962-2.413-1.663-4.961-2.065-7.61
	l-7.658-50.405c-0.278-1.829-2.915-1.829-3.193,0l-6.219,40.932l-1.439,9.474C267.925,1045.111,256.182,1056.855,241.219,1059.129z"
	/>
<path style="fill:#FFFFFF;" d="M158.023,1346.765l8.571,56.415c0.236,1.557,2.478,1.557,2.716,0l8.571-56.415
	c0.712-4.682,4.386-8.355,9.067-9.066l56.415-8.571c1.556-0.237,1.556-2.479,0-2.716l-56.415-8.572
	c-4.681-0.711-8.355-4.385-9.067-9.066l-8.571-56.415c-0.238-1.557-2.48-1.557-2.716,0l-8.571,56.415
	c-0.711,4.681-4.385,8.355-9.066,9.066l-31.728,4.82l-24.688,3.751c-1.557,0.237-1.557,2.479,0,2.716l25.602,3.889l30.814,4.682
	C153.637,1338.411,157.312,1342.084,158.023,1346.765z"/>
<path style="fill:#FFFFFF;" d="M478.773,1245.26l-40.573-6.164c-3.366-0.511-6.009-3.154-6.52-6.52l-6.164-40.573
	c-0.17-1.119-1.783-1.119-1.953,0l-6.164,40.573c-0.511,3.366-3.154,6.009-6.52,6.52l-29.225,4.44l-11.347,1.724
	c-1.12,0.17-1.12,1.783,0,1.953l12.554,1.907l28.018,4.256c3.366,0.512,6.009,3.154,6.52,6.521l6.164,40.573
	c0.17,1.119,1.783,1.119,1.953,0l6.164-40.573c0.511-3.367,3.154-6.009,6.52-6.521l40.573-6.163
	C479.893,1247.044,479.893,1245.431,478.773,1245.26z"/>
<path style="fill:#FFFFFF;" d="M1173.176,1415.472l6.164,40.573c0.17,1.12,1.782,1.12,1.953,0l6.164-40.573
	c0.512-3.367,3.154-6.009,6.521-6.52l40.573-6.164c1.119-0.17,1.119-1.783,0-1.953l-40.573-6.165
	c-3.367-0.511-6.009-3.153-6.521-6.52l-3.952-26.013l-2.212-14.559c-0.171-1.12-1.783-1.12-1.953,0l-5.183,34.115l-0.982,6.458
	c-0.455,2.993-2.595,5.412-5.429,6.272l-1.091,0.248l-40.572,6.165c-1.119,0.17-1.119,1.783,0,1.953l34.505,5.242l6.067,0.922
	C1170.022,1409.463,1172.664,1412.105,1173.176,1415.472z"/>
<path style="fill:#FFFFFF;" d="M1595.129,249.435l9.391,1.426l17.492,2.658c2.231,0.339,3.982,2.089,4.32,4.32l4.085,26.883
	c0.112,0.742,1.181,0.742,1.294,0l4.084-26.883c0.339-2.231,2.09-3.981,4.32-4.32l26.883-4.084c0.741-0.113,0.741-1.182,0-1.294
	l-26.883-4.085c-2.23-0.339-3.981-2.089-4.32-4.32l-4.084-26.883c-0.113-0.742-1.182-0.742-1.294,0l-4.085,26.883
	c-0.338,2.23-2.089,3.981-4.32,4.32l-19.122,2.906l-7.76,1.179C1594.388,248.254,1594.388,249.322,1595.129,249.435z"/>
<path style="fill:#FFFFFF;" d="M1589.179,311.414c-1.632-0.248-2.914-1.53-3.162-3.162l-2.99-19.677
	c-0.082-0.543-0.866-0.543-0.947,0l-2.99,19.677c-0.248,1.633-1.529,2.914-3.162,3.162l-19.677,2.99
	c-0.543,0.082-0.543,0.865,0,0.947l19.677,2.99c1.633,0.249,2.914,1.53,3.162,3.162l2.99,19.678c0.081,0.543,0.865,0.543,0.947,0
	l2.99-19.678c0.248-1.633,1.53-2.914,3.162-3.162l19.678-2.99c0.542-0.083,0.542-0.865,0-0.947L1589.179,311.414z"/>
</svg>
