<?xml version="1.0" encoding="utf-8"?>
<!-- Generator: Adobe Illustrator 27.5.0, SVG Export Plug-In . SVG Version: 6.00 Build 0)  -->
<svg version="1.1" id="Capa_1" xmlns="http://www.w3.org/2000/svg" xmlns:xlink="http://www.w3.org/1999/xlink" x="0px" y="0px"
	 viewBox="0 0 2122 2122" style="enable-background:new 0 0 2122 2122;" xml:space="preserve">
<path style="fill:#A7DBF1;" d="M1520.74,1830.062c-2.562,1.943-5.175,3.837-7.77,5.747
	C1515.566,1833.899,1518.177,1832.003,1520.74,1830.062z"/>
<path style="fill:#A7DBF1;" d="M1489.335,1852.467c-2.372,1.598-4.758,3.18-7.154,4.751
	C1484.577,1855.647,1486.961,1854.064,1489.335,1852.467z"/>
<path style="fill:#A7DBF1;" d="M1455.203,1874.028c-1.875,1.112-3.733,2.244-5.622,3.34
	C1451.47,1876.272,1453.328,1875.139,1455.203,1874.028z"/>
<path style="fill:#A7DBF1;" d="M1472.787,1863.259c-2.228,1.41-4.453,2.824-6.701,4.212
	C1468.334,1866.082,1470.558,1864.669,1472.787,1863.259z"/>
<path style="fill:#A7DBF1;" d="M1351.566,724.191c42.523,119.755,110.222,231.32,200.383,327.688
	c31.483,33.651,57.562,69.771,78.215,107.731l0.345,0.619c2.67,4.924,5.216,9.888,7.699,14.874c0.604,1.212,1.215,2.42,1.808,3.635
	c2.245,4.605,4.408,9.235,6.494,13.89c0.722,1.609,1.423,3.223,2.126,4.838c1.95,4.485,3.857,8.981,5.659,13.51
	c0.699,1.754,1.349,3.522,2.026,5.282c1.733,4.513,3.458,9.027,5.044,13.581c0.457,1.309,0.853,2.632,1.298,3.944
	c2.873,8.496,5.476,17.061,7.838,25.689c0.701,2.558,1.459,5.103,2.116,7.673c0.867,3.399,1.619,6.825,2.406,10.244
	c0.777,3.366,1.564,6.729,2.264,10.112c0.663,3.214,1.254,6.442,1.847,9.672c0.677,3.673,1.323,7.35,1.908,11.042
	c0.483,3.055,0.935,6.116,1.356,9.184c0.548,3.987,1.029,7.987,1.471,11.994c0.313,2.84,0.636,5.679,0.896,8.529
	c0.414,4.531,0.719,9.078,0.998,13.632c0.145,2.369,0.338,4.73,0.446,7.105c0.315,6.922,0.504,13.864,0.506,20.834l0.002,0.088
	c0,112.465-41.799,219.411-116.829,307.835c23.564,8.678,47.612,16.401,72.025,22.962
	c72.961-94.835,115.514-208.521,115.514-330.798c0-142.373-57.608-273.148-153.844-376.01
	c-94.675-101.194-163.708-222.184-201.225-352.925c-2.946,7.081-5.689,14.263-8.526,21.206
	C1385.178,693.036,1371.547,715.429,1351.566,724.191z"/>
<path style="fill:#A7DBF1;" d="M1505.276,1841.424c-2.45,1.752-4.932,3.472-7.41,5.195
	C1500.344,1844.896,1502.825,1843.176,1505.276,1841.424z"/>
<path style="fill:#90C7E0;" d="M817.934,776.027c3.848,16.98,7.969,33.897,12.371,50.745c0.125,0.476,0.253,0.951,0.379,1.427
	c1.983,7.558,4.031,15.1,6.129,22.629c0.324,1.163,0.647,2.326,0.974,3.489c2.224,7.904,4.501,15.794,6.854,23.664l0.074,0.252
	c2.456,8.206,4.99,16.392,7.591,24.56c0.29,0.91,0.592,1.817,0.883,2.726c2.179,6.795,4.414,13.575,6.696,20.342
	c0.646,1.913,1.296,3.826,1.95,5.736c2.138,6.255,4.326,12.497,6.554,18.727c0.559,1.564,1.106,3.131,1.671,4.693
	c2.784,7.695,5.63,15.373,8.554,23.029c0.384,1.005,0.786,2.004,1.172,3.008c2.498,6.494,5.05,12.972,7.652,19.436
	c0.919,2.285,1.854,4.566,2.787,6.847c2.228,5.45,4.496,10.889,6.799,16.317c0.936,2.206,1.863,4.414,2.812,6.617
	c3.191,7.41,6.43,14.805,9.764,22.171c6.33,13.986,12.978,27.824,19.817,41.567h658.083c16.141,21.127,30.373,43.034,42.663,65.599
	c-20.654-37.959-46.733-74.079-78.215-107.731c-90.161-96.368-157.859-207.933-200.383-327.688
	c-4.285,1.879-8.847,3.165-13.731,3.64c-21.17,2.06-40.508-11.487-56.383-25.643c-15.876-14.155-31.678-30.245-52.369-35.177
	c-30.231-7.206-60.049,11.513-84.929,30.136c-24.88,18.624-52.648,49.635-83.494,49.436c-31.927,0.001-58.614-30.812-83.494-49.436
	c-24.88-18.624-54.697-37.342-84.929-30.136c-20.69,4.931-36.493,21.021-52.368,35.177c-9.761,8.703-20.834,17.16-32.833,21.918
	c3.33,17.208,6.925,34.36,10.792,51.449L817.934,776.027z"/>
<path style="fill:#FCC461;" d="M1686.714,1379.493c-0.001-6.97-0.191-13.912-0.506-20.834c-0.108-2.375-0.301-4.736-0.446-7.105
	c-0.278-4.554-0.584-9.102-0.998-13.632c-0.26-2.85-0.581-5.689-0.896-8.529c-0.443-4.008-0.923-8.007-1.471-11.994
	c-0.422-3.067-0.872-6.129-1.356-9.184c-0.586-3.692-1.231-7.369-1.908-11.042c-0.594-3.228-1.182-6.458-1.847-9.672
	c-0.7-3.383-1.486-6.746-2.264-10.112c-0.789-3.418-1.537-6.845-2.406-10.244c-0.656-2.57-1.414-5.114-2.116-7.673
	c-2.366-8.626-4.96-17.195-7.838-25.689c-0.444-1.312-0.841-2.635-1.298-3.944c-1.589-4.552-3.309-9.069-5.044-13.581
	c-0.677-1.761-1.327-3.528-2.026-5.282c-1.804-4.527-3.707-9.026-5.659-13.51c-0.703-1.615-1.404-3.229-2.126-4.838
	c-2.089-4.654-4.247-9.286-6.494-13.89c-0.593-1.215-1.204-2.423-1.808-3.635c-2.486-4.984-5.027-9.951-7.699-14.874l-0.345-0.619
	c-12.29-22.565-26.522-44.473-42.663-65.599H929.418c3.783,7.6,7.648,15.158,11.583,22.679l0.456,0.877
	c3.836,7.315,7.747,14.589,11.725,21.828c0.264,0.48,0.526,0.961,0.791,1.441c3.917,7.106,7.906,14.172,11.96,21.2
	c0.335,0.58,0.669,1.16,1.004,1.74c4.024,6.952,8.115,13.865,12.271,20.737c0.381,0.629,0.763,1.258,1.145,1.886
	c4.149,6.835,8.361,13.633,12.639,20.388c0.397,0.627,0.798,1.251,1.196,1.877c4.302,6.767,8.664,13.496,13.094,20.18
	c0.368,0.555,0.741,1.107,1.11,1.66c4.497,6.761,9.051,13.483,13.677,20.155l0.819,1.17c4.747,6.829,9.553,13.617,14.433,20.351
	l0.283,0.387c40.102,55.292,84.694,107.285,133.229,155.243c0.921,0.909,1.825,1.834,2.748,2.741
	c4.758,4.671,9.579,9.275,14.412,13.868c1.659,1.577,3.301,3.172,4.97,4.74c4.431,4.164,8.918,8.269,13.41,12.366
	c2.127,1.94,4.241,3.894,6.382,5.819c4.23,3.804,8.506,7.553,12.788,11.297c2.465,2.154,4.922,4.318,7.404,6.451
	c4.092,3.519,8.222,6.991,12.36,10.455c2.741,2.294,5.48,4.59,8.242,6.859c3.996,3.285,8.024,6.531,12.063,9.764
	c2.963,2.371,5.93,4.738,8.915,7.081c3.928,3.084,7.881,6.136,11.848,9.171c3.166,2.421,6.341,4.829,9.531,7.219
	c3.87,2.9,7.759,5.775,11.665,8.628c3.352,2.448,6.719,4.875,10.097,7.287c3.822,2.729,7.654,5.443,11.508,8.127
	c3.529,2.457,7.078,4.884,10.633,7.302c3.782,2.572,7.569,5.136,11.381,7.665c3.695,2.45,7.416,4.863,11.14,7.272
	c3.736,2.416,7.472,4.833,11.235,7.207c3.883,2.449,7.797,4.851,11.709,7.254c3.672,2.255,7.339,4.52,11.037,6.735
	c4.074,2.44,8.183,4.824,12.289,7.214c3.604,2.098,7.196,4.213,10.823,6.272c4.307,2.445,8.654,4.824,12.994,7.214
	c3.482,1.918,6.949,3.862,10.452,5.743c4.63,2.486,9.304,4.896,13.97,7.319c3.275,1.701,6.53,3.438,9.823,5.107
	c5.234,2.653,10.517,5.218,15.796,7.791c2.777,1.354,5.531,2.752,8.321,4.084c8.09,3.861,16.227,7.635,24.417,11.305
	c8.245,3.694,16.594,7.24,24.998,10.693c1.063,0.437,2.119,0.885,3.185,1.318c8.073,3.279,16.22,6.429,24.422,9.474
	c0.693,0.257,1.388,0.512,2.082,0.768c75.03-88.425,116.829-195.37,116.829-307.835L1686.714,1379.493z M1492.081,1487.873
	c-66.27-11.648-113.673-57.051-105.876-101.409c5.751-32.722,39.968-55.675,84.107-60.822
	c-10.626-11.523-15.972-25.079-13.61-38.516c5.166-29.394,44.955-46.966,88.869-39.247c43.914,7.719,75.325,37.805,70.159,67.199
	c-2.819,16.039-15.989,28.514-34.471,35.325c31.635,20.159,50.004,49.391,44.932,78.243
	C1618.395,1473.004,1558.351,1499.521,1492.081,1487.873z"/>
<path style="fill:#FDE8E1;" d="M1060.66,502.817c-108.816,0-208.134-5.992-283.969-15.857c0.554,7.969,1.102,15.937,1.741,23.896
	c0.067,0.829,0.133,1.658,0.2,2.487c0.935,11.475,1.95,22.941,3.069,34.393l0.005,0.048c3.394,34.74,7.671,69.359,12.887,103.806
	c0.315,2.086,0.649,4.168,0.971,6.253c1.431,9.239,2.93,18.465,4.502,27.677c0.321,1.887,0.636,3.774,0.964,5.66
	c1.912,10.992,3.907,21.967,6.027,32.917l-0.021,0.007l0.001,0.002c11.999-4.758,23.072-13.215,32.833-21.918
	c15.875-14.155,31.678-30.245,52.368-35.177c30.232-7.206,60.049,11.513,84.929,30.136c24.88,18.624,51.567,49.437,83.494,49.436
	c30.846,0.199,58.614-30.812,83.494-49.436c24.88-18.624,54.698-37.342,84.929-30.136c20.691,4.931,36.493,21.021,52.369,35.177
	c15.875,14.155,35.213,27.702,56.383,25.643c4.884-0.475,9.446-1.761,13.731-3.64c19.982-8.762,33.613-31.155,42.266-52.339
	c2.836-6.943,5.58-14.125,8.526-21.206c7.97-19.156,17.469-37.558,34.648-48.354c17.965-11.289,40.735-11.592,61.719-8.454
	c20.984,3.138,41.603,9.348,62.814,9.837c25.766,0.594,51.656-7.602,72.386-22.916c11.86-8.762,22.855-22.37,19.845-36.806
	c-2.096-10.052-10.753-17.714-20.315-21.455c-9.562-3.741-20.038-4.228-30.295-4.702c-32.845-1.517-66.235-3.458-97.142-14.675
	c-20.973-7.611-40.865-20.19-55.068-37.114C1382.226,487.751,1233.345,502.817,1060.66,502.817z M1351.058,645.735
	c-26.035,23.378-59.826,28.203-75.475,10.776c-11.544-12.855-9.954-34.222,2.105-53.935c-8.125,0.65-15.388-1.514-20.128-6.793
	c-10.37-11.548-4.79-33.468,12.462-48.959c17.252-15.492,39.644-18.689,50.013-7.141c5.659,6.301,6.537,15.693,3.392,25.441
	c18.401-6.475,36.259-4.609,46.436,6.725C1385.513,589.277,1377.093,622.357,1351.058,645.735z"/>
<path style="fill:#9C5523;" d="M1060.66,401.057c-111.14,0-212.436-6.241-288.855-16.484c0.564,20.746,1.344,41.484,2.424,62.202
	c0.186,3.564,0.41,7.123,0.612,10.686c0.488,8.627,1.001,17.252,1.586,25.87c0.082,1.211,0.18,2.42,0.264,3.63
	c75.834,9.864,175.152,15.857,283.969,15.857c172.685,0,321.565-15.066,390.289-36.809c25.975-8.219,40.566-17.385,40.566-27.061
	v-101.76C1491.516,372.461,1298.615,401.057,1060.66,401.057z"/>
<path style="fill:#CB8251;" d="M770.87,337.187h0.018c0.035,3.661,0.13,7.322,0.18,10.983c0.132,9.986,0.295,19.972,0.541,29.957
	c0.053,2.149,0.139,4.297,0.198,6.446c76.419,10.243,177.714,16.484,288.855,16.484c237.955,0,430.856-28.596,430.856-63.871
	c0-35.275-192.9-63.871-430.856-63.871c-111.628,0-213.337,6.293-289.871,16.616l0.029-0.004
	C770.711,305.677,770.724,321.431,770.87,337.187z"/>
<path style="fill:#8FD2EB;" d="M363.894,1379.581c0,213.533,129.588,400.984,324.722,507.301h744.088
	c5.686-3.098,11.305-6.279,16.877-9.514c1.889-1.096,3.746-2.229,5.622-3.34c3.648-2.163,7.285-4.337,10.883-6.557
	c2.248-1.388,4.473-2.801,6.701-4.212c3.15-1.994,6.284-4.003,9.393-6.041c2.396-1.571,4.782-3.153,7.154-4.751
	c2.864-1.928,5.703-3.882,8.531-5.848c2.479-1.723,4.96-3.443,7.41-5.195c2.588-1.849,5.139-3.734,7.695-5.616
	c2.595-1.91,5.209-3.804,7.77-5.747c1.89-1.433,3.737-2.906,5.609-4.356c6.495-5.032,12.891-10.156,19.161-15.393
	c0.964-0.805,1.948-1.592,2.907-2.402c3.345-2.826,6.632-5.704,9.911-8.587c1.261-1.108,2.532-2.206,3.782-3.322
	c3.276-2.926,6.507-5.888,9.714-8.871c1.134-1.055,2.267-2.108,3.393-3.169c3.319-3.131,6.604-6.287,9.846-9.478
	c0.823-0.81,1.638-1.627,2.457-2.442c3.511-3.492,6.994-7.006,10.412-10.568l0.204-0.216c15.59-16.264,30.209-33.244,43.775-50.878
	l0.003-0.002c-24.413-6.561-48.461-14.284-72.025-22.962h0c-0.694-0.255-1.388-0.51-2.082-0.768
	c0.691,0.256,1.365,0.543,2.057,0.798c-41.98,49.467-94.319,93.16-155.657,128.724h0H707.116h0
	c-170.991-99.143-272.511-261.193-272.511-436.589c0-7.006,0.191-13.982,0.508-20.939c0.107-2.351,0.298-4.687,0.441-7.033
	c0.279-4.579,0.587-9.153,1.003-13.708c0.258-2.833,0.579-5.653,0.89-8.477c0.444-4.027,0.927-8.045,1.478-12.052
	c0.419-3.051,0.869-6.095,1.349-9.133c0.589-3.715,1.239-7.417,1.92-11.113c0.589-3.206,1.176-6.41,1.834-9.601
	c0.706-3.413,1.499-6.807,2.283-10.203c0.782-3.392,1.528-6.792,2.388-10.166c0.671-2.626,1.444-5.226,2.163-7.841
	c2.338-8.532,4.914-17.003,7.753-25.406c0.46-1.358,0.87-2.73,1.343-4.084c1.581-4.539,3.301-9.038,5.027-13.536
	c0.683-1.775,1.337-3.557,2.043-5.326c1.798-4.517,3.7-9.003,5.646-13.477c0.708-1.628,1.415-3.254,2.143-4.876
	c2.082-4.645,4.241-9.265,6.481-13.861c0.598-1.226,1.214-2.445,1.823-3.667c2.478-4.974,5.017-9.926,7.681-14.839l0.38-0.682
	c12.272-22.549,26.499-44.429,42.626-65.538l0.01-0.013l0,0c11.006-14.404,22.79-28.489,35.553-42.131
	c90.162-96.369,157.831-207.943,200.349-327.701c-19.963-8.773-33.585-31.153-42.232-52.326c-2.836-6.943-5.58-14.125-8.526-21.206
	c-37.517,130.741-106.551,251.731-201.226,352.925C421.502,1106.433,363.894,1237.208,363.894,1379.581z"/>
<path style="fill:#5AAECC;" d="M929.418,1094.011L929.418,1094.011c-6.84-13.743-13.487-27.581-19.817-41.567
	c-3.334-7.366-6.574-14.761-9.764-22.171c-0.948-2.203-1.876-4.411-2.812-6.617c-2.303-5.428-4.571-10.867-6.799-16.317
	c-0.933-2.281-1.868-4.562-2.787-6.847c-2.601-6.464-5.154-12.942-7.652-19.436c-0.386-1.004-0.788-2.003-1.172-3.008
	c-2.924-7.656-5.77-15.334-8.554-23.029c-0.565-1.562-1.112-3.129-1.671-4.693c-2.228-6.23-4.415-12.472-6.554-18.727
	c-0.654-1.911-1.305-3.823-1.95-5.736c-2.281-6.767-4.517-13.547-6.696-20.342c-0.291-0.909-0.594-1.816-0.883-2.726
	c-2.601-8.168-5.135-16.354-7.591-24.56l-0.074-0.252c-2.354-7.87-4.631-15.761-6.854-23.664c-0.327-1.162-0.65-2.326-0.974-3.489
	c-2.098-7.529-4.146-15.071-6.129-22.629c-0.125-0.476-0.254-0.951-0.379-1.427c-4.403-16.848-8.524-33.765-12.371-50.745
	l-0.106-0.471c-3.867-17.089-7.462-34.242-10.792-51.449l-0.001-0.002c-7.518,2.98-15.396,4.52-23.55,3.727
	c-4.897-0.476-9.47-1.766-13.764-3.653c-42.519,119.758-110.188,231.333-200.349,327.701
	c-12.763,13.642-24.547,27.727-35.553,42.131H929.418z"/>
<path style="fill:#F39C1F;" d="M1569.861,1687.447c-18.556-6.835-36.804-14.28-54.661-22.281
	c-8.191-3.67-16.328-7.444-24.417-11.305c-2.79-1.332-5.543-2.73-8.321-4.084c-5.278-2.573-10.562-5.138-15.796-7.791
	c-3.293-1.669-6.548-3.406-9.823-5.107c-4.666-2.423-9.34-4.832-13.97-7.319c-3.503-1.882-6.97-3.826-10.452-5.743
	c-4.34-2.39-8.687-4.769-12.994-7.214c-3.627-2.059-7.219-4.174-10.823-6.272c-4.105-2.39-8.215-4.773-12.289-7.214
	c-3.698-2.215-7.365-4.479-11.037-6.735c-3.912-2.403-7.826-4.805-11.709-7.254c-3.764-2.374-7.5-4.791-11.235-7.207
	c-3.724-2.409-7.445-4.821-11.14-7.272c-3.812-2.528-7.6-5.092-11.381-7.665c-3.556-2.419-7.104-4.845-10.633-7.302
	c-3.854-2.684-7.687-5.397-11.508-8.127c-3.378-2.413-6.746-4.839-10.097-7.287c-3.906-2.853-7.795-5.728-11.665-8.628
	c-3.19-2.39-6.365-4.797-9.531-7.219c-3.967-3.035-7.92-6.087-11.848-9.171c-2.986-2.344-5.953-4.709-8.915-7.081
	c-4.038-3.233-8.066-6.479-12.063-9.764c-2.761-2.27-5.501-4.565-8.242-6.859c-4.138-3.464-8.269-6.936-12.36-10.455
	c-2.482-2.134-4.939-4.297-7.404-6.451c-4.282-3.744-8.559-7.494-12.788-11.297c-2.14-1.925-4.254-3.879-6.382-5.819
	c-4.492-4.097-8.979-8.202-13.41-12.366c-1.668-1.568-3.31-3.163-4.97-4.74c-4.832-4.593-9.654-9.196-14.412-13.868
	c-0.923-0.906-1.827-1.832-2.748-2.741c-48.535-47.958-93.127-99.951-133.229-155.243l-0.283-0.387
	c-4.88-6.734-9.687-13.522-14.433-20.351l-0.819-1.17c-4.626-6.672-9.18-13.394-13.677-20.155c-0.369-0.554-0.742-1.106-1.11-1.66
	c-4.43-6.683-8.792-13.413-13.094-20.18c-0.398-0.626-0.799-1.25-1.196-1.877c-4.278-6.755-8.49-13.553-12.639-20.388
	c-0.382-0.629-0.764-1.257-1.145-1.886c-4.156-6.873-8.246-13.786-12.271-20.737c-0.335-0.579-0.669-1.159-1.004-1.74
	c-4.054-7.029-8.043-14.095-11.96-21.2c-0.265-0.48-0.527-0.961-0.791-1.441c-3.978-7.238-7.889-14.513-11.725-21.828l-0.456-0.877
	c-3.935-7.521-7.8-15.079-11.583-22.679H533.819l0,0l-0.01,0.013c-16.126,21.107-30.345,42.995-42.626,65.538l-0.38,0.682
	c-2.666,4.911-5.201,9.866-7.681,14.839c-0.61,1.222-1.225,2.442-1.823,3.667c-2.243,4.594-4.397,9.217-6.481,13.861
	c-0.728,1.622-1.434,3.249-2.143,4.876c-1.947,4.473-3.845,8.961-5.646,13.477c-0.705,1.769-1.36,3.551-2.043,5.326
	c-1.729,4.497-3.444,8.998-5.027,13.536c-0.473,1.354-0.883,2.726-1.343,4.084c-2.844,8.402-5.41,16.876-7.753,25.406
	c-0.719,2.614-1.492,5.215-2.163,7.841c-0.862,3.374-1.604,6.775-2.388,10.166c-0.784,3.396-1.577,6.789-2.283,10.203
	c-0.66,3.19-1.243,6.396-1.834,9.601c-0.681,3.696-1.331,7.398-1.92,11.113c-0.481,3.038-0.929,6.083-1.349,9.133
	c-0.551,4.007-1.034,8.025-1.478,12.052c-0.312,2.823-0.631,5.645-0.89,8.477c-0.417,4.556-0.724,9.129-1.003,13.708
	c-0.143,2.345-0.334,4.682-0.441,7.033c-0.317,6.957-0.508,13.933-0.508,20.939c0,175.396,101.52,337.447,272.511,436.589h0h707.087
	C1475.542,1780.606,1527.882,1736.913,1569.861,1687.447z"/>
<path style="fill:#E8C0B5;" d="M769.722,724.178c4.294,1.887,8.867,3.176,13.764,3.653c8.154,0.793,16.033-0.746,23.55-3.727
	l0.021-0.007c-2.12-10.949-4.115-21.925-6.027-32.917c-0.328-1.886-0.642-3.773-0.964-5.66c-1.572-9.212-3.07-18.438-4.502-27.677
	c-0.323-2.084-0.656-4.167-0.971-6.253c-5.216-34.447-9.493-69.067-12.887-103.806l-0.005-0.048
	c-1.119-11.452-2.134-22.918-3.069-34.393c-0.067-0.829-0.133-1.658-0.2-2.487c-0.639-7.959-1.187-15.928-1.741-23.896
	c-0.084-1.21-0.182-2.42-0.264-3.63c0.082,1.207,0.138,2.418,0.222,3.625c-44.481-5.787-80.853-12.91-106.281-20.944
	c-14.203,16.922-34.094,29.5-55.065,37.111c-30.908,11.217-64.298,13.159-97.143,14.675c-10.257,0.474-20.733,0.961-30.295,4.702
	c-9.562,3.741-18.219,11.403-20.314,21.455c-3.01,14.435,7.984,28.044,19.844,36.806c20.73,15.314,46.62,23.51,72.387,22.916
	c21.211-0.489,41.829-6.699,62.814-9.837c20.984-3.138,43.754-2.834,61.719,8.454c17.18,10.796,26.678,29.197,34.648,48.354
	c2.946,7.082,5.69,14.263,8.526,21.206C736.137,693.025,749.759,715.405,769.722,724.178z"/>
<path style="fill:#7C3C11;" d="M776.649,486.955c-0.084-1.207-0.14-2.418-0.222-3.625c-0.585-8.618-1.097-17.243-1.586-25.87
	c-0.202-3.562-0.426-7.122-0.612-10.686c-1.08-20.717-1.86-41.456-2.424-62.202c-0.058-2.149-0.144-4.297-0.198-6.446
	c0.052,2.145,0.058,4.29,0.116,6.435c-87.15-11.687-141.921-28.582-141.921-47.375v101.76c0,1.032,0.198,2.056,0.525,3.076
	l0.085,0.308c0.34,0.963,0.848,1.919,1.473,2.87l0.301,0.462c0.647,0.916,1.434,1.825,2.339,2.729l0.564,0.549
	c0.936,0.882,1.987,1.758,3.165,2.627l0.826,0.587c1.218,0.858,2.528,1.71,3.976,2.554l1.051,0.586
	c1.438,0.806,2.956,1.607,4.598,2.401c0.45,0.217,0.925,0.432,1.39,0.648c1.501,0.697,3.083,1.389,4.739,2.076
	c0.663,0.275,1.319,0.55,2.007,0.823c1.698,0.674,3.488,1.342,5.334,2.006c0.827,0.297,1.641,0.595,2.497,0.89
	c1.828,0.63,3.735,1.253,5.695,1.872C695.796,474.045,732.168,481.168,776.649,486.955z"/>
<path style="fill:#B8662E;" d="M771.724,384.562c-0.058-2.144-0.064-4.29-0.116-6.435c-0.245-9.985-0.409-19.971-0.541-29.957
	c-0.048-3.661-0.163-7.322-0.198-10.983c-0.146-15.755-0.159-31.51-0.051-47.258l-0.029,0.004
	c-4.674,0.631-9.234,1.279-13.716,1.939c-0.506,0.075-1.024,0.148-1.528,0.223c-4.302,0.64-8.496,1.295-12.614,1.961
	c-0.617,0.1-1.242,0.198-1.855,0.299c-4.01,0.657-7.917,1.328-11.742,2.01c-0.651,0.116-1.306,0.232-1.951,0.348
	c-3.751,0.678-7.405,1.367-10.969,2.069c-0.646,0.127-1.289,0.254-1.928,0.382c-3.529,0.704-6.965,1.421-10.299,2.147
	c-0.577,0.126-1.146,0.252-1.717,0.379c-3.337,0.738-6.583,1.486-9.715,2.247c-0.478,0.116-0.943,0.233-1.416,0.35
	c-3.169,0.78-6.245,1.569-9.192,2.37l-0.987,0.275c-3.034,0.834-5.968,1.677-8.755,2.533l-0.4,0.127
	c-2.796,0.864-5.462,1.738-8,2.623l-0.452,0.153c-2.494,0.876-4.836,1.764-7.071,2.659l-0.762,0.301
	c-2.136,0.869-4.129,1.749-6.015,2.635l-0.821,0.384c-1.818,0.874-3.501,1.757-5.069,2.646l-0.75,0.428
	c-1.518,0.886-2.908,1.78-4.173,2.68l-0.611,0.445c-1.227,0.905-2.332,1.818-3.298,2.737l-0.423,0.421
	c-0.939,0.935-1.759,1.876-2.421,2.824l-0.226,0.356c-0.646,0.976-1.166,1.959-1.512,2.948l-0.062,0.228
	c-0.337,1.036-0.533,2.078-0.533,3.127C629.804,355.98,684.574,372.875,771.724,384.562z"/>
<path style="fill:#FFFFFF;" d="M1323.428,565.125c3.145-9.748,2.267-19.141-3.392-25.441c-10.369-11.548-32.761-8.351-50.013,7.141
	c-17.252,15.491-22.832,37.412-12.462,48.959c4.74,5.279,12.003,7.443,20.128,6.793c-12.059,19.713-13.649,41.08-2.105,53.935
	c15.648,17.427,49.439,12.602,75.475-10.776c26.035-23.379,34.455-56.458,18.806-73.884
	C1359.687,560.516,1341.829,558.651,1323.428,565.125z"/>
<path style="fill:#FEDCA4;" d="M1581.259,1350.403c18.482-6.811,31.651-19.286,34.471-35.325
	c5.167-29.394-26.245-59.48-70.159-67.199c-43.914-7.719-83.703,9.853-88.869,39.247c-2.362,13.437,2.984,26.993,13.61,38.516
	c-44.139,5.147-78.355,28.1-84.107,60.822c-7.797,44.358,39.606,89.761,105.876,101.409c66.27,11.648,126.314-14.869,134.111-59.227
	C1631.263,1399.794,1612.895,1370.562,1581.259,1350.403z"/>
</svg>
