<?xml version="1.0" encoding="utf-8"?>
<!-- Generator: Adobe Illustrator 27.5.0, SVG Export Plug-In . SVG Version: 6.00 Build 0)  -->
<svg version="1.1" id="Capa_1" xmlns="http://www.w3.org/2000/svg" xmlns:xlink="http://www.w3.org/1999/xlink" x="0px" y="0px"
	 viewBox="0 0 2122 2122" style="enable-background:new 0 0 2122 2122;" xml:space="preserve">
<g>
	<path style="fill:#E6682D;" d="M460.975,1450.338c-13.422,103.444-63.673,170.563-169.237,218.675
		c105.52,26.217,150.945,161.627,180.416,261.359c1.447-13.914,2.87-17.656,4.012-23.771c1.683-9.018,3.55-18.007,5.637-26.953
		c4.039-17.301,8.882-34.446,14.748-51.288c19.149-54.987,48.867-115.893,100.005-152.327c13.323-9.496,27.876-17.529,43.035-24.438
		C512.527,1607.927,481.838,1537.072,460.975,1450.338z"/>
	<path style="fill:#EEC95F;" d="M1755.558,1200.902c0.765-4.088,1.608-8.156,2.553-12.21c1.832-7.834,4.024-15.6,6.679-23.23
		c8.677-24.906,22.134-52.492,45.296-68.999c6.037-4.297,12.629-7.937,19.494-11.07c-57.554-19.778-71.454-51.87-80.902-91.157
		c-6.08,46.855-28.843,77.257-76.657,99.05c47.795,11.873,68.37,73.208,81.72,118.382
		C1754.394,1205.364,1755.042,1203.669,1755.558,1200.902z"/>
	<path style="fill:#1F2142;" d="M1720.348,1658.733c22.032-67.235,9.588-139.771-18.295-203.269
		c-18.553-42.236-43.454-81.369-63.79-122.733c-23.186-47.172-37.861-96.229-41.822-148.774
		c-7.108-94.344,12.872-188.37,24.283-281.588c10.913-89.167,17.739-179.357,11.615-269.157
		c-10.923-160.151-67.464-320.543-197.87-421.692c-116.585-90.429-278.314-111.83-400.146-18.48
		c-58.502,44.826-97.617,110.092-103.406,184.127c-6.957,88.996,30.955,174.56,79.462,246.891
		c14.907,22.23,30.975,43.634,47.403,64.764c5.703-4.089,12.312-6.971,19.486-8.281c-48.036-61.492-93.676-126.368-114.826-202.193
		c-23.876-85.605-9.742-174.743,52.448-240.297c115.549-121.805,297.283-102.502,418.555-1.023
		c131.615,110.132,177.651,281.7,180.389,447.478c1.471,88.914-7.873,177.639-19.976,265.607
		c-11.922,86.706-26.938,174.658-15.05,262.233c12.102,89.174,60.658,159.815,98.772,239.05
		c33.544,69.749,47.863,152.633,13.676,225.008c-60.249,127.552-230.115,188.56-353.096,115.011
		c-154.694-92.521-138.188-302.441-81.695-447.902c33.427-86.075,81.257-165.208,121.895-247.849
		c35.903-73.018,64.039-150.699,76.77-231.273c23.24-147.045-10.032-323.342-130.465-422.713
		c-50.134-41.367-118.87-59.388-177.535-23.944c-59.946,36.214-82.297,106.855-79.649,173.574
		c1.19,29.961,6.538,59.492,13.242,88.706c1.747-0.19,3.518-0.304,5.315-0.304c5.821,0,11.378,1.077,16.551,2.953
		c-18.672-80.12-30.308-173.652,36.01-232.977c70.451-63.023,158.577-16.874,209.866,45.482
		c119.337,145.074,109.841,345.376,46.348,511.76c-65.452,171.505-188.404,320.353-199.849,510.019
		c-8.419,139.547,59.299,289.081,206.119,321.515C1530.954,1867.147,1678.569,1786.226,1720.348,1658.733z"/>
	<polygon style="fill:#A1C8AA;" points="1028.402,945.905 1028.402,945.905 862.385,903.993 821.19,1067.178 1002.326,1049.203 	"/>
	<polygon style="fill:#A1C8AA;" points="892.482,1484.327 695.041,1566.899 686.491,1600.768 852.507,1642.677 	"/>
	<polygon style="fill:#A1C8AA;" points="981.783,1130.575 793.811,1175.638 774.439,1252.377 963.831,1201.688 	"/>
	<path style="fill:#8AB592;" d="M1071.615,774.729c-3.469-1.077-6.747-2.567-9.834-4.352L862.385,903.993l166.017,41.912
		L1071.615,774.729z"/>
	<polygon style="fill:#8AB592;" points="852.507,1642.677 686.491,1600.768 805.97,1827.026 852.507,1642.677 	"/>
	<polyline style="fill:#5CA777;" points="1089.927,1401.753 892.482,1484.327 852.507,1642.677 852.507,1642.677 1018.528,1684.588 
			"/>
	<polygon style="fill:#5CA777;" points="1169.759,1085.512 981.783,1130.575 963.831,1201.688 1153.229,1150.998 1153.231,1150.997 
			"/>
	<polygon style="fill:#5CA777;" points="1002.326,1049.203 1183.468,1031.226 1194.423,987.818 1028.402,945.905 	"/>
	<path style="fill:#4C9A6A;" d="M1028.402,945.905L1028.402,945.905l166.021,41.912l-111.46-211.066
		c-3.922-0.247-7.733-0.901-11.347-2.023L1028.402,945.905z"/>
	<polygon style="fill:#4C9A6A;" points="805.97,1827.026 1018.528,1684.588 852.507,1642.677 	"/>
	<polygon style="fill:#BED9C3;" points="963.831,1201.688 774.439,1252.377 774.435,1252.378 713.551,1493.567 695.04,1566.9 
		695.041,1566.899 892.482,1484.327 	"/>
	<polygon style="fill:#92C29E;" points="963.831,1201.688 892.482,1484.327 1089.927,1401.753 1098.186,1369.037 1153.229,1150.998 
			"/>
	<polygon style="fill:#92C29E;" points="1153.229,1150.998 1153.231,1150.997 1153.229,1150.998 	"/>
	<polygon style="fill:#BED9C3;" points="1002.326,1049.203 821.19,1067.178 821.189,1067.178 807.054,1123.175 793.811,1175.638 
		793.811,1175.638 981.783,1130.575 	"/>
	<polygon style="fill:#92C29E;" points="1002.326,1049.203 981.783,1130.575 1169.759,1085.512 1174.141,1068.158 
		1183.465,1031.227 1183.468,1031.226 	"/>
	<path style="fill:#E6682D;" d="M1080.724,680.012c-1.168,0.127-2.315,0.319-3.457,0.528c-7.174,1.31-13.783,4.191-19.486,8.281
		c-12.299,8.818-20.341,23.198-20.341,39.487c0,17.995,9.805,33.669,24.341,42.07c3.088,1.785,6.365,3.275,9.834,4.352
		c3.614,1.122,7.425,1.776,11.347,2.023c1.022,0.064,2.037,0.155,3.077,0.155c26.841,0,48.599-21.759,48.599-48.599
		c0-21.019-13.369-38.869-32.048-45.646c-5.173-1.876-10.73-2.953-16.551-2.953C1084.242,679.708,1082.47,679.822,1080.724,680.012z
		"/>
	<path style="fill:#EEC95F;" d="M776.551,1006.013c-52.987-54.153-105.976-108.307-158.964-162.46
		c-13.605-13.905-34.94,7.442-21.34,21.343c52.989,54.153,105.975,108.306,158.964,162.457
		C768.817,1041.26,790.152,1019.91,776.551,1006.013z"/>
	<path style="fill:#EEC95F;" d="M726.468,1064.958c-40.54-21.237-81.079-42.475-121.62-63.712
		c-17.186-9.004-32.463,17.035-15.232,26.061c40.54,21.237,81.079,42.472,121.62,63.71
		C728.424,1100.024,743.698,1073.983,726.468,1064.958z"/>
	<path style="fill:#EEC95F;" d="M1030.897,1951.926c5.912,18.417,35.059,10.543,29.101-8.024
		c-17.569-54.738-31.569-110.353-42.007-166.884c-3.523-19.074-32.614-10.996-29.104,8.024
		C999.328,1841.573,1013.328,1897.188,1030.897,1951.926z"/>
	<path style="fill:#EEC95F;" d="M1149.348,1825.753c-22.636-33.218-47.021-65.13-73.091-95.722
		c-12.614-14.806-33.876,6.626-21.34,21.34c24.414,28.653,47.172,58.509,68.37,89.617
		C1134.156,1856.944,1160.319,1841.865,1149.348,1825.753z"/>
	<path style="fill:#EEC95F;" d="M1391.174,1518.144c-19.42,0-19.454,30.178,0,30.178
		C1410.594,1548.321,1410.624,1518.144,1391.174,1518.144z"/>
	<path style="fill:#EEC95F;" d="M562.084,1225.974v-3.104c0-7.893-6.94-15.455-15.091-15.089
		c-8.176,0.365-15.089,6.631-15.089,15.089v3.104c0,7.893,6.94,15.454,15.089,15.094
		C555.17,1240.697,562.084,1234.436,562.084,1225.974z"/>
	<path style="fill:#EEC95F;" d="M798.386,646.028c-19.42,0-19.452,30.18,0,30.18C817.806,676.208,817.837,646.028,798.386,646.028z"
		/>
	<path style="fill:#EEC95F;" d="M1320.358,1956.17c-8.463-1.929-15.718,2.568-18.563,10.538c-1.096,3.079-2.193,6.164-3.294,9.243
		c-2.655,7.444,2.996,16.842,10.538,18.563c8.468,1.929,15.723-2.568,18.563-10.538c1.102-3.084,2.198-6.163,3.299-9.243
		C1333.556,1967.283,1327.905,1957.885,1320.358,1956.17z"/>
</g>
</svg>
