<?xml version="1.0" encoding="utf-8"?>
<!-- Generator: Adobe Illustrator 27.5.0, SVG Export Plug-In . SVG Version: 6.00 Build 0)  -->
<svg version="1.1" id="Capa_1" xmlns="http://www.w3.org/2000/svg" xmlns:xlink="http://www.w3.org/1999/xlink" x="0px" y="0px"
	 viewBox="0 0 2042 2205" style="enable-background:new 0 0 2042 2205;" xml:space="preserve">
<path style="fill:#746BAF;" d="M1878.116,1630.92c0-346.448-272.752-779.728-664.302-1067.369
	c-114.666-84.235-270.881-83.509-385.656,0.576C424.203,860.072,162.975,1282.523,162.975,1630.92c0,3.338,0.032,6.663,0.095,9.976
	c-0.04,2.383-0.095,4.771-0.095,7.133c0,248.002,191.155,421.522,421.146,421.143h0.009
	c142.65-0.237,300.239-67.372,436.423-225.127c136.182,157.758,293.772,224.892,436.422,225.127c0.728,0.001,1.456,0,2.182-0.001
	c229.011-0.72,418.958-173.924,418.958-421.142c0-2.319-0.056-4.666-0.099-7.007
	C1878.083,1637.668,1878.116,1634.301,1878.116,1630.92z M838.23,1406.149l0.066-0.046
	c-55.782-48.039-92.432-117.681-96.813-195.973l-0.015-0.281c-0.031-0.539-0.058-1.078-0.085-1.618l-0.02-0.419
	c-0.022-0.472-0.044-0.944-0.064-1.417l-0.026-0.625l-0.049-1.265l-0.023-0.646l-0.041-1.294l-0.017-0.609l-0.032-1.316
	l-0.013-0.608l-0.022-1.289l-0.01-0.644l-0.015-1.395l-0.005-0.503c-0.004-0.638-0.007-1.277-0.007-1.917
	c0-154.367,125.139-279.505,279.503-279.505c0.998,0,1.993,0.007,2.987,0.017l0.319,0.003c0.953,0.011,1.904,0.027,2.854,0.048
	l0.43,0.009c0.934,0.022,1.867,0.048,2.799,0.079l0.45,0.016c0.949,0.033,1.898,0.07,2.843,0.112l0.18,0.009
	c0.958,0.043,1.914,0.092,2.87,0.145l0.23,0.012c0.953,0.054,1.907,0.113,2.859,0.176l0.391,0.026
	c0.946,0.064,1.89,0.133,2.833,0.206l0.316,0.025c0.977,0.077,1.955,0.159,2.93,0.246l0.083,0.008
	c1.021,0.092,2.04,0.189,3.058,0.292l0.007,0c0.994,0.1,1.986,0.207,2.977,0.318l0.216,0.024c0.975,0.109,1.949,0.224,2.919,0.344
	l0.209,0.026c0.99,0.123,1.98,0.25,2.966,0.384l0.038,0.005c119.297,16.119,214.657,107.527,236.806,224.811l0.072-0.011
	c3.192,16.903,4.863,34.343,4.863,52.174c0,154.365-125.139,279.504-279.505,279.504
	C950.881,1473.789,887.174,1448.303,838.23,1406.149z"/>
<path style="fill:#655EA2;" d="M1877.989,1639.374c-66.693,158.441-221.652,259.587-399.482,260.747
	c2.953,7.236,8.683,16.016,19.282,17.175c-18.399,2.011-22.125,26.148-22.125,26.148s-3.432-24.137-21.831-26.148
	c10.599-1.159,16.23-9.938,19.1-17.173c-147.971-0.772-311.223-70.712-452.379-234.232
	c-313.033,362.616-734.728,265.064-857.458-26.534c-0.007,0.512-0.017,1.026-0.025,1.539c-0.04,2.383-0.095,4.771-0.095,7.133
	c0,248.002,191.155,421.522,421.146,421.143h0.009c142.65-0.237,300.239-67.372,436.423-225.127
	c136.182,157.758,293.772,224.892,436.422,225.127c0.728,0.001,1.456,0,2.182-0.001c229.011-0.72,418.958-173.924,418.958-421.142
	c0-2.319-0.056-4.666-0.099-7.007C1878.007,1640.472,1877.997,1639.922,1877.989,1639.374z"/>
<path style="fill:#827BB9;" d="M480.967,1462.074c119.337,29.106,254.142,16.045,357.263-55.925l0.066-0.046
	c-55.782-48.039-92.432-117.681-96.813-195.973l-0.015-0.281c-0.031-0.539-0.058-1.078-0.085-1.618l-0.02-0.419
	c-0.022-0.472-0.044-0.944-0.064-1.417l-0.026-0.625l-0.049-1.265l-0.023-0.646l-0.041-1.294l-0.017-0.609l-0.032-1.316
	l-0.013-0.608l-0.022-1.289l-0.01-0.644l-0.015-1.395l-0.005-0.503c-0.004-0.638-0.007-1.277-0.007-1.917
	c0-154.367,125.139-279.505,279.503-279.505c0.998,0,1.993,0.007,2.987,0.017l0.319,0.003c0.953,0.011,1.904,0.027,2.854,0.048
	l0.43,0.009c0.934,0.022,1.867,0.048,2.799,0.079l0.45,0.016c0.949,0.033,1.898,0.07,2.843,0.112l0.18,0.009
	c0.958,0.043,1.914,0.092,2.87,0.145l0.23,0.012c0.953,0.054,1.907,0.113,2.859,0.176l0.391,0.026
	c0.946,0.064,1.89,0.133,2.833,0.206l0.316,0.025c0.977,0.077,1.955,0.159,2.93,0.246l0.083,0.008
	c1.021,0.092,2.04,0.189,3.058,0.292l0.007,0c0.994,0.1,1.986,0.207,2.977,0.318l0.216,0.024c0.975,0.109,1.949,0.224,2.919,0.344
	l0.209,0.026c0.99,0.123,1.98,0.25,2.966,0.384l0.038,0.005c119.297,16.119,214.657,107.527,236.806,224.811l0.072-0.011
	c18.451-2.792,36.424-7.856,53.745-16.515c79.762-37.223,113.255-129.904,103.151-218.917
	c-79.666-95.277-173.801-184.49-278.176-261.165c-94.734-69.593-223.795-68.993-318.62,0.475
	c-273.257,200.193-467.428,470.451-528.841,719.827C362.213,1412.486,412.347,1447.207,480.967,1462.074z"/>
<path style="fill:#FFFFFF;" d="M718.915,861.358c0,0,3.728-24.137,22.125-26.149c-18.397-2.011-22.125-26.986-22.125-26.986
	s-3.433,24.975-21.83,26.986C715.482,837.221,718.915,861.358,718.915,861.358z"/>
<path style="fill:#FFFFFF;" d="M1243.133,861.358c0,0,3.727-24.137,22.124-26.149c-18.397-2.011-22.124-26.986-22.124-26.986
	s-3.432,24.975-21.831,26.986C1239.701,837.221,1243.133,861.358,1243.133,861.358z"/>
<path style="fill:#FFFFFF;" d="M1362.666,1307.275c0,0-3.432,24.975-21.829,26.987c18.397,2.011,21.829,26.148,21.829,26.148
	s3.727-24.137,22.126-26.148C1366.392,1332.25,1362.666,1307.275,1362.666,1307.275z"/>
<path style="fill:#FFFFFF;" d="M998.419,648.905c0,0,3.727-24.137,22.125-26.148c-18.399-2.011-22.125-26.987-22.125-26.987
	s-3.432,24.975-21.83,26.987C994.987,624.768,998.419,648.905,998.419,648.905z"/>
<path style="fill:#FFFFFF;" d="M1580.95,1116.76c0,0,3.727-24.137,22.125-26.148c-18.398-2.011-22.125-26.986-22.125-26.986
	s-3.433,24.975-21.83,26.986C1577.517,1092.623,1580.95,1116.76,1580.95,1116.76z"/>
<path style="fill:#FFFFFF;" d="M1725.054,1593.258c0,0,3.727-24.137,22.125-26.148c-18.399-2.011-22.125-26.986-22.125-26.986
	s-3.432,24.975-21.831,26.986C1721.622,1569.121,1725.054,1593.258,1725.054,1593.258z"/>
<path style="fill:#FFFFFF;" d="M1265.11,1624.474c0,0-3.432,24.975-21.83,26.986c18.399,2.012,21.83,26.149,21.83,26.149
	s3.727-24.137,22.125-26.149C1268.837,1649.449,1265.11,1624.474,1265.11,1624.474z"/>
<path style="fill:#FFFFFF;" d="M950.698,1540.124c0,0-3.432,24.975-21.831,26.986c18.399,2.011,21.831,26.148,21.831,26.148
	s3.727-24.137,22.125-26.148C954.425,1565.099,950.698,1540.124,950.698,1540.124z"/>
<path style="fill:#FFFFFF;" d="M1472.933,1900.122c-2.87,7.235-8.5,16.014-19.1,17.173c18.398,2.011,21.831,26.148,21.831,26.148
	s3.727-24.137,22.125-26.148c-10.599-1.159-16.329-9.939-19.282-17.175c-2.173-5.324-2.843-9.811-2.843-9.811
	S1475.046,1894.798,1472.933,1900.122z"/>
<path style="fill:#FFFFFF;" d="M556.992,1663.54c0,0-3.432,24.975-21.831,26.987c18.398,2.011,21.831,26.148,21.831,26.148
	s3.727-24.137,22.125-26.148C560.719,1688.515,556.992,1663.54,556.992,1663.54z"/>
<path style="fill:#FFFFFF;" d="M874.18,1916.876c0,0,3.728-24.137,22.125-26.148c-18.397-2.011-22.125-26.986-22.125-26.986
	s-3.432,24.975-21.831,26.986C870.749,1892.74,874.18,1916.876,874.18,1916.876z"/>
<path style="fill:#FFFFFF;" d="M304.319,1469.281c0,0,3.728-24.137,22.126-26.149c-18.397-2.011-22.126-26.986-22.126-26.986
	s-3.432,24.975-21.83,26.986C300.887,1445.145,304.319,1469.281,304.319,1469.281z"/>
<path style="fill:#FFFFFF;" d="M578.969,1194.284c0,0,3.728-24.136,22.125-26.148c-18.398-2.011-22.125-26.986-22.125-26.986
	s-3.432,24.975-21.829,26.986C575.537,1170.148,578.969,1194.284,578.969,1194.284z"/>
<path style="fill:#FFFFFF;" d="M304.319,1916.876c0,0,3.728-24.137,22.126-26.148c-18.397-2.011-22.126-26.986-22.126-26.986
	s-3.432,24.975-21.83,26.986C300.887,1892.74,304.319,1916.876,304.319,1916.876z"/>
<path style="fill:#241B33;" d="M1007.582,148.492V385.1c0,7.16,5.803,12.963,12.963,12.963c7.16,0,12.963-5.803,12.963-12.963
	V148.492c0-7.16-5.803-12.963-12.963-12.963C1013.386,135.53,1007.582,141.333,1007.582,148.492z"/>
<path style="fill:#241B33;" d="M1227.044,183.165c-6.426-3.185-14.193-0.542-17.363,5.879l-109.08,220.786
	c-3.17,6.418-0.542,14.194,5.879,17.363c1.848,0.914,3.803,1.344,5.732,1.344c4.775,0,9.373-2.651,11.631-7.223l109.08-220.786
	C1236.093,194.111,1233.465,186.336,1227.044,183.165z"/>
<path style="fill:#241B33;" d="M1198.643,480.888c2.491,2.299,5.641,3.434,8.78,3.434c3.494,0,6.978-1.405,9.535-4.175
	l177.146-192.093c4.851-5.263,4.522-13.464-0.745-18.318c-5.261-4.853-13.459-4.514-18.315,0.742L1197.898,462.57
	C1193.047,467.834,1193.377,476.034,1198.643,480.888z"/>
<path style="fill:#241B33;" d="M814.047,183.165c-6.42,3.17-9.049,10.945-5.878,17.363l109.079,220.786
	c2.259,4.572,6.851,7.223,11.631,7.223c1.929,0,3.884-0.433,5.732-1.344c6.421-3.17,9.048-10.945,5.879-17.363L831.41,189.044
	C828.24,182.626,820.478,179.993,814.047,183.165z"/>
<path style="fill:#241B33;" d="M824.134,480.146c2.557,2.772,6.041,4.175,9.534,4.175c3.139,0,6.289-1.137,8.78-3.434
	c5.266-4.853,5.595-13.054,0.744-18.318L666.048,270.478c-4.856-5.261-13.044-5.591-18.315-0.742
	c-5.267,4.853-5.595,13.054-0.745,18.318L824.134,480.146z"/>
</svg>
