<?xml version="1.0" encoding="utf-8"?>
<!-- Generator: Adobe Illustrator 27.5.0, SVG Export Plug-In . SVG Version: 6.00 Build 0)  -->
<svg version="1.1" id="Design" xmlns="http://www.w3.org/2000/svg" xmlns:xlink="http://www.w3.org/1999/xlink" x="0px"
	y="0px" viewBox="0 0 2300 2000" style="enable-background:new 0 0 2300 2000;" xml:space="preserve">
	<g>
		<g>
			<path style="fill:#9FB3E7;"
				d="M1547.231,784.415h-24.786c0-205.367-167.078-372.445-372.445-372.445
			S777.555,579.048,777.555,784.415h-24.786c0-219.033,178.198-397.231,397.231-397.231S1547.231,565.382,1547.231,784.415z" />
		</g>
		<g>
			<path style="fill:#9FB2DC;" d="M529.703,778.209l238.016,834.607h764.563l238.016-834.607H529.703z M1522.937,1600.423H777.088
			L546.135,790.602h1207.754L1522.937,1600.423z" />
		</g>
		<polygon style="fill:#797EDB;" points="1770.297,778.209 1532.281,1612.816 767.719,1612.816 529.703,778.209 	" />
		<polygon style="fill:#9FB2DC;" points="1770.297,778.209 1547.595,1559.117 832.224,1559.117 529.703,778.209 	" />
		<g>
			<g>
				<path style="fill:#B0C6ED;" d="M1150.006,1350.935c-7.847,0-15.726-0.552-23.411-1.641c-4.686-0.635-9.466-1.507-14.172-2.585
				c-6.724-1.55-13.395-3.53-19.841-5.885c-4.001-1.456-8.007-3.092-11.899-4.859c-5.632-2.554-11.304-5.532-16.854-8.852
				c-3.527-2.125-6.944-4.357-10.168-6.644c-4.877-3.401-9.73-7.219-14.38-11.321c-2.98-2.621-5.882-5.371-8.622-8.172
				c-4.236-4.267-8.305-8.865-12.064-13.632c-2.466-3.091-4.865-6.351-7.109-9.665c-3.536-5.148-6.799-10.551-9.672-16.024
				l-0.712-1.363c-1.723-3.31-3.318-6.651-4.751-9.953c-2.658-6.034-4.986-12.374-6.903-18.807
				c-1.339-4.462-2.486-8.964-3.408-13.37c-1.568-7.361-2.636-14.951-3.171-22.541c-0.305-3.984-0.462-8.131-0.462-12.287
				c0-1.386,0.017-2.771,0.065-4.14c0.208-9.568,1.28-19.291,3.185-28.816c1.573-7.908,3.727-15.711,6.397-23.188
				c16.948-47.721,54.056-84.828,101.803-101.793l1.026-0.358c7.186-2.515,14.632-4.546,22.145-6.039
				c9.527-1.903,19.257-2.976,28.92-3.189c5.059-0.177,10.836-0.012,16.343,0.387c7.608,0.554,15.193,1.628,22.547,3.191
				c4.563,0.952,9.072,2.102,13.383,3.412c6.361,1.893,12.703,4.213,18.81,6.886c3.965,1.737,7.777,3.578,11.33,5.473
				c5.589,2.959,10.984,6.218,16.021,9.678c3.348,2.267,6.613,4.664,9.675,7.104c4.851,3.857,9.438,7.922,13.622,12.078
				c2.791,2.746,5.538,5.649,8.142,8.609c3.979,4.497,7.796,9.336,11.333,14.365c2.382,3.385,4.611,6.815,6.62,10.188
				c3.244,5.382,6.228,11.054,8.847,16.832c1.748,3.812,3.393,7.827,4.877,11.904c2.326,6.371,4.301,13.043,5.865,19.826
				c1.077,4.698,1.948,9.483,2.592,14.23c1.084,7.655,1.636,15.527,1.636,23.36c0,0.281-0.002,0.563-0.015,0.844
				c-0.024,5.905-0.363,11.836-1.009,17.631c-1.196,11.039-3.529,22.034-6.935,32.661c-3.236,10.165-7.489,20.06-12.64,29.399
				c-15.382,28.079-38.374,51.076-66.481,66.488c-9.338,5.136-19.236,9.384-29.414,12.623c-10.5,3.386-21.494,5.722-32.65,6.935
				c-5.795,0.646-11.725,0.985-17.616,1.006C1150.558,1350.932,1150.292,1350.935,1150.006,1350.935z M1013.496,1257.229
				c2.471,4.586,5.235,9.109,8.23,13.467c2.086,3.081,4.294,6.082,6.581,8.948c3.488,4.426,7.242,8.667,11.18,12.632
				c2.556,2.612,5.233,5.148,7.985,7.571c4.306,3.797,8.784,7.322,13.315,10.482c3.016,2.137,6.172,4.2,9.42,6.158
				c5.134,3.069,10.386,5.828,15.595,8.191c3.607,1.637,7.315,3.151,11.025,4.502c5.976,2.183,12.153,4.016,18.371,5.45
				c4.335,0.994,8.745,1.797,13.097,2.388c7.148,1.013,14.441,1.524,21.709,1.524l0.641-0.015
				c5.495-0.013,11.028-0.327,16.445-0.931c10.34-1.124,20.504-3.283,30.227-6.419c9.435-3.003,18.589-6.93,27.228-11.682
				c26.039-14.28,47.332-35.577,61.587-61.596c4.768-8.647,8.702-17.793,11.696-27.199c3.154-9.844,5.313-20.017,6.422-30.246
				c0.605-5.421,0.917-10.955,0.934-16.465l0.015-0.654c0-7.253-0.511-14.541-1.52-21.658c-0.598-4.413-1.401-8.826-2.394-13.155
				c-1.447-6.279-3.275-12.458-5.432-18.357c-1.372-3.772-2.888-7.473-4.509-11.008c-2.433-5.363-5.187-10.605-8.201-15.604
				c-1.866-3.133-3.921-6.294-6.126-9.427c-3.272-4.658-6.802-9.13-10.488-13.297c-2.421-2.75-4.96-5.434-7.562-7.994
				c-3.885-3.857-8.125-7.616-12.63-11.196c-2.817-2.246-5.824-4.452-8.939-6.563c-4.679-3.214-9.667-6.225-14.854-8.973
				c-3.289-1.755-6.809-3.454-10.483-5.062c-5.642-2.469-11.5-4.613-17.411-6.372c-3.994-1.214-8.142-2.272-12.366-3.153
				c-6.826-1.451-13.848-2.445-20.891-2.958c-5.061-0.365-10.159-0.531-15.097-0.359c-9.016,0.198-18.023,1.192-26.848,2.955
				c-7.281,1.448-14.484,3.437-21.416,5.916l-1.021,0.362c-43.738,15.871-77.702,50.047-93.283,93.918
				c-2.471,6.919-4.461,14.133-5.918,21.454c-1.765,8.82-2.757,17.817-2.953,26.746c-0.046,1.308-0.058,2.546-0.058,3.784
				c0,3.84,0.145,7.668,0.428,11.379c0.499,7.054,1.484,14.069,2.938,20.89c0.854,4.086,1.912,8.242,3.154,12.378
				c1.774,5.949,3.924,11.8,6.388,17.396c1.513,3.49,3.21,7,5.059,10.465L1013.496,1257.229z" />
			</g>
			<g>
				<path style="fill:#B0C6ED;" d="M1146.086,1022.007l-157.422,157.408c0.209-9.512,1.267-18.8,3.071-27.82l126.502-126.516
				C1127.271,1023.275,1136.574,1022.216,1146.086,1022.007z" />
			</g>
			<g>
				<path style="fill:#B0C6ED;" d="M1214.547,1035.366l-212.511,212.511c-2.579-5.859-4.8-11.912-6.649-18.115l201.031-201.031
				C1202.635,1030.58,1208.688,1032.801,1214.547,1035.366z" />
			</g>
			<g>
				<path style="fill:#B0C6ED;" d="M1263.314,1068.419l-228.224,228.224c-4.13-4.16-8.006-8.543-11.629-13.135l226.734-226.719
				C1254.771,1060.427,1259.155,1064.289,1263.314,1068.419z" />
			</g>
			<g>
				<path style="fill:#B0C6ED;" d="M1296.978,1116.574l-213.733,213.748c-5.591-2.535-11.003-5.397-16.236-8.528l221.441-221.441
				C1291.596,1105.571,1294.444,1110.983,1296.978,1116.574z" />
			</g>
			<g>
				<path style="fill:#B0C6ED;" d="M1311.395,1183.336c0,0.224,0,0.447-0.015,0.671l-160.717,160.717
				c-0.224,0.015-0.432,0.015-0.656,0.015c-7.648,0-15.177-0.537-22.542-1.58l182.35-182.35
				C1310.858,1168.174,1311.395,1175.688,1311.395,1183.336z" />
			</g>
			<g>
				<path style="fill:#B0C6ED;"
					d="M1291.567,1260.877c-14.775,26.97-37.064,49.259-64.034,64.048L1291.567,1260.877z" />
			</g>
		</g>
	</g>
</svg>